<svg width="30" height="30" viewBox="0 0 30 30" fill="none" xmlns="http://www.w3.org/2000/svg">
<path d="M2.50244 15.0022C2.5039 21.1514 6.97544 26.3872 13.0487 27.3509V18.6147H9.87744V15.0022H13.0524V12.2522C12.9105 10.9491 13.3556 9.65043 14.267 8.70835C15.1784 7.76628 16.4616 7.27846 17.7687 7.37719C18.7069 7.39234 19.6427 7.4759 20.5687 7.62719V10.7009H18.9887C18.4447 10.6297 17.8979 10.8093 17.5022 11.1893C17.1064 11.5692 16.9047 12.1083 16.9537 12.6547V15.0022H20.4174L19.8637 18.6159H16.9537V27.3509C23.5218 26.3129 28.1276 20.3144 27.4343 13.701C26.7411 7.08765 20.9916 2.1746 14.351 2.52116C7.71039 2.86772 2.5035 8.35257 2.50244 15.0022Z" fill="#2173F0"/>
</svg>
