<svg width="375" height="214" viewBox="0 0 375 214" fill="none" xmlns="http://www.w3.org/2000/svg">
<g clip-path="url(#clip0)">
<path d="M176.01 133.526C175.071 134.611 174.421 130.794 174.421 130.794C174.421 130.794 174.277 132.947 173.645 133.092C172.995 133.236 172.074 130.505 172.074 130.505C172.074 130.505 172.146 131.934 171.424 131.934C171.027 131.934 170.576 131.084 170.269 130.324V130.306C170.016 129.709 169.854 129.184 169.854 129.184C169.854 129.184 168.283 125.748 168.987 123.378C168.987 123.378 167.705 118.856 166.911 116.993C166.117 115.112 164.835 112.815 164.835 112.815C165.124 112.616 165.413 112.399 165.756 112.127C166.604 111.458 167.615 110.59 168.933 109.667C170.359 108.691 172.164 107.66 174.547 106.791C174.89 106.665 175.234 106.556 175.595 106.43C175.595 106.43 174.313 121.298 174.439 121.515C174.584 121.732 176.66 124.174 176.876 125.386C177.075 126.634 176.93 132.458 176.01 133.526Z" fill="#D64E27"/>
<path d="M170.25 130.324C169.998 129.727 169.835 129.203 169.835 129.203C169.835 129.203 168.265 125.766 168.969 123.396C168.969 123.396 167.687 118.874 166.893 117.011C166.098 115.13 164.816 112.833 164.816 112.833C165.105 112.634 165.394 112.417 165.737 112.146C166.586 111.476 167.597 110.608 168.914 109.686C169.005 113.122 169.474 121.117 170.25 122.817C170.25 122.836 169.546 126.598 170.25 130.324Z" fill="#BF3B27"/>
<path d="M169.618 140.635C169.618 140.635 170.629 148.449 170.196 161.382C169.763 174.315 167.759 197.16 167.759 197.16H165.61C165.61 197.16 156.656 164.42 155.356 157.655C154.056 150.909 156.782 146.097 156.782 146.097C156.782 146.097 148.388 133.96 145.662 129.583C142.936 125.205 133.404 110.265 133.404 110.265L128.746 113.72C128.746 113.72 127.609 121.552 126.453 127.213C125.298 132.893 122.716 150.692 122.716 150.692C127.013 163.552 123.583 175.906 122.355 179.922C121.128 183.937 116.326 198.951 116.326 198.951L115.676 198.86L113.6 198.535C113.6 198.535 111.596 157.818 111.451 151.433C111.397 149.534 111.307 146.423 111.199 142.715C110.946 133.996 110.657 121.986 110.801 114.515C110.982 105.978 112.209 94.51 112.877 86.3161C112.895 86.1352 112.914 85.9543 112.932 85.7735C113.076 83.9827 113.184 82.3548 113.238 80.9801C113.257 80.7088 113.275 80.4375 113.293 80.1662C113.311 79.9491 113.311 79.732 113.329 79.515C113.762 73.2203 115.044 66.8172 115.405 65.1169V65.0988C115.423 65.0626 115.441 64.9722 115.477 64.8094C115.477 64.7913 115.477 64.7732 115.477 64.7551C115.477 64.7189 115.495 64.7009 115.495 64.7009C115.495 64.7009 116.795 64.1039 119.124 62.8559C120.568 62.0781 122.409 61.0832 124.576 59.8171C130.226 56.507 134.036 53.9204 134.036 53.9204C134.036 53.9204 137.05 47.5353 139.199 42.9409C140.878 39.3595 142.611 35.4886 143.279 33.9873C144.615 34.2405 145.914 34.4938 147.196 34.7651C146.42 36.1036 144.597 39.2871 143.062 42.7238C141.058 47.2459 137.827 54.2821 137.827 54.2821C140.824 55.2227 152.233 62.476 152.233 62.476C160.519 52.2563 167.668 46.7032 170.394 44.7497C171.586 45.6541 172.615 46.5585 173.518 47.3725C171.315 49.0366 166.098 53.034 163.263 55.6568C159.617 59.0393 154.093 65.0626 154.093 65.0626C154.417 66.1117 154.869 68.7345 155.194 70.8146C155.446 72.4245 155.645 73.7268 155.645 73.7268C155.645 73.7268 155.627 73.7449 155.609 73.763C155.302 74.179 152.72 77.5615 150.446 80.8716C149.074 82.8432 147.232 86.099 145.86 88.559C145.77 88.7399 145.662 88.9389 145.571 89.1017C144.813 90.4764 144.272 91.5074 144.091 91.833C144.091 91.8511 144.073 91.8691 144.073 91.8872C144.055 91.9234 144.037 91.9415 144.037 91.9415L144.055 91.9596V91.9777L144.254 92.3575L169.618 140.635Z" fill="#5C95B7"/>
<path d="M43 203L193.679 215.893L356 203H43Z" fill="#FFBF4D"/>
<path d="M119.16 62.8193C117.481 70.0003 114.394 92.3572 113.763 99.8456C113.275 105.598 111.957 129.781 111.253 142.678C111 133.96 110.712 121.949 110.856 114.479C111.037 105.941 112.264 94.4735 112.932 86.2796C112.95 86.0987 112.968 85.9178 112.986 85.7369C113.131 83.9462 113.239 82.3183 113.293 80.9436C113.311 80.6723 113.329 80.4009 113.347 80.1296C113.365 79.9126 113.365 79.6955 113.383 79.4784C113.817 73.1838 115.098 66.7806 115.46 65.0803V65.0623C115.478 65.0261 115.496 64.9356 115.532 64.7729C115.532 64.7548 115.532 64.7367 115.532 64.7186C115.532 64.6824 115.55 64.6643 115.55 64.6643C115.55 64.6643 116.85 64.0674 119.16 62.8193Z" fill="#417EA3"/>
<path d="M166.026 197.16H165.61C165.61 197.16 156.656 164.421 155.356 157.656C154.057 150.909 156.783 146.097 156.783 146.097C156.783 146.097 148.388 133.96 145.662 129.583C142.936 125.206 133.404 110.265 133.404 110.265L128.746 113.72C128.746 113.72 127.609 121.552 126.453 127.213C125.298 132.893 122.716 150.692 122.716 150.692C127.013 163.552 123.583 175.906 122.355 179.922C121.128 183.938 116.326 198.951 116.326 198.951L115.676 198.86C117.517 192.312 121.092 179.108 121.94 172.632C123.096 163.824 121.074 152.139 121.074 152.139C121.074 152.139 121.453 148.304 122.608 139.224C123.745 130.144 127.392 113.828 127.392 113.828L133.133 109.324C133.133 109.324 137.339 114.389 142.16 120.376C146.98 126.363 161.242 145.319 161.242 145.319C161.242 145.319 160.953 150.294 160.556 157.059C160.177 163.842 162.668 176.431 163.895 183.521C164.834 188.586 165.719 194.23 166.026 197.16Z" fill="#417EA3"/>
<path d="M155.7 73.6724C155.7 73.6724 155.682 73.6905 155.664 73.7086C155.357 74.1246 152.776 77.5071 150.501 80.8172C149.129 82.7888 147.288 86.0447 145.916 88.5046C145.825 88.6855 145.717 88.8845 145.627 89.0473C144.869 90.422 144.327 91.453 144.146 91.7786C144.67 90.0421 153.047 73.4915 155.249 70.7783C155.502 72.3701 155.7 73.6724 155.7 73.6724Z" fill="#417EA3"/>
<path d="M143.315 33.9506C142.647 35.47 140.914 39.3228 139.235 42.9042C137.087 47.4986 134.072 53.8837 134.072 53.8837C134.072 53.8837 130.263 56.4703 124.612 59.7804C122.428 61.0466 120.586 62.0595 119.142 62.8373C116.831 64.0673 115.55 64.6642 115.55 64.6642C115.802 62.8554 116.488 55.584 119.612 50.0852C119.612 50.0852 110.441 47.4262 105.277 47.8603C105.277 47.8603 102.949 56.1447 103.617 64.1396C103.219 64.1034 102.75 64.0492 102.263 64.013C100.06 63.8321 97.1897 63.6874 95.0052 63.9407C94.5539 61.7158 92.4778 51.3152 92.1529 46.2867C91.7918 40.6251 92.5139 36.0127 92.5139 36.0127C92.5139 36.0127 99.5365 32.9196 113.221 31.78C121.579 31.0746 133.205 32.0875 143.315 33.9506Z" fill="#A6DDEB"/>
<path d="M177.219 68.1191C176.064 74.5042 175.288 81.1787 175.288 81.1787C175.288 81.1787 175.937 84.5611 175.721 89.7343C175.522 94.383 174.692 104.784 174.529 106.828C171.117 108.094 168.879 109.649 167.236 110.97C166.676 111.404 166.189 111.82 165.738 112.182C165.395 111.422 160.177 99.4115 162.885 94.2744C162.885 94.2744 162.091 87.5999 162.019 82.4268C161.946 77.2536 162.668 68.5713 162.668 68.5713L161.315 68.2819L155.7 73.7083C155.7 73.7083 155.556 72.7496 155.357 71.4473C155.014 69.2948 154.509 66.2198 154.147 65.0622C154.147 65.0622 159.672 59.0208 163.318 55.6564C166.153 53.0336 171.37 49.0543 173.573 47.3721C175.757 49.3798 177.057 50.9716 177.219 51.4781C177.653 52.6719 178.375 61.7159 177.219 68.1191Z" fill="#A6DDEB"/>
<path d="M170.449 44.7131C167.723 46.6486 160.574 52.2197 152.287 62.4394C152.287 62.4394 140.896 55.1861 137.881 54.2455C137.881 54.2455 141.112 47.2093 143.116 42.6873C144.651 39.2505 146.456 36.067 147.25 34.7285C148.045 34.8913 148.839 35.0722 149.597 35.2531C153.497 36.1756 156.927 37.2247 159.563 38.31C163.155 39.7932 166.369 41.7286 169.04 43.6459C169.528 43.9896 169.997 44.3514 170.449 44.7131Z" fill="#A6DDEB"/>
<path d="M123.8 48.5837C123.8 48.5837 120.713 56.8861 119.142 62.8371C116.832 64.0671 115.55 64.664 115.55 64.664C115.803 62.8552 116.489 55.5838 119.612 50.085C119.612 50.085 110.441 47.4261 105.278 47.8602C105.278 47.8602 102.949 56.1445 103.617 64.1394C103.22 64.1033 102.75 64.049 102.263 64.0128C101.541 60.4314 100.133 51.3873 102.606 45.3821C102.588 45.364 115.496 45.1831 123.8 48.5837Z" fill="#66C8CE"/>
<path d="M167.236 110.952C166.677 111.386 166.189 111.802 165.738 112.164C165.395 111.404 160.178 99.3937 162.886 94.2567C162.886 94.2567 162.091 87.5822 162.019 82.409C161.947 77.2358 162.669 68.5535 162.669 68.5535L161.315 68.2641L155.7 73.6905C155.7 73.6905 155.556 72.7319 155.357 71.4295C157.47 69.1866 160.484 66.0393 161.098 65.6775C162.073 65.0987 165.991 63.8145 165.991 63.8145C164.889 68.8429 165.991 93.6417 165.991 93.6417C165.016 97.5306 166.478 106.719 167.236 110.952Z" fill="#66C8CE"/>
<path d="M169.023 43.6458C166.315 43.9533 161.115 44.2065 156.53 42.3977C151.547 40.4261 150.031 36.8447 149.598 35.2529C153.497 36.1754 156.927 37.2245 159.563 38.3098C163.155 39.793 166.369 41.7285 169.023 43.6458Z" fill="#66C8CE"/>
<path d="M115.441 65.0982C115.46 65.0982 115.46 65.0794 115.441 65.0982C115.46 65.0794 115.46 65.0982 115.441 65.0982Z" fill="#9D5E55"/>
<path d="M115.459 65.0804C115.477 65.0443 115.495 64.9538 115.531 64.791C115.495 64.8453 115.477 64.9538 115.459 65.0804Z" fill="#844741"/>
<path d="M184.096 204.485C184.096 204.63 181.226 205.064 180.305 206.493C179.366 207.922 179.872 209.224 181.172 209.297C182.453 209.369 184.186 209.803 184.114 210.292C184.042 210.798 184.981 209.713 185.414 209.857C185.847 210.002 185.053 211.72 186.208 212.155C187.346 212.589 187.075 213.584 190.072 213.945C193.087 214.307 194.513 212.155 195.56 211.648C196.589 211.142 199.459 210.925 201.247 211.503C203.034 212.082 203.323 211.938 204.478 211.214C205.615 210.49 207.132 211.142 208.071 210.346C209.009 209.55 209.569 208.049 210.797 207.976C212.006 207.904 213.956 208.193 214.588 207.18C215.238 206.186 215.021 205.39 216.158 205.462C217.314 205.534 218.307 205.679 218.668 204.811C219.029 203.943 217.512 202.514 218.668 202.297C219.805 202.08 220.997 200.216 218.722 199.638C216.447 199.059 214.786 200.506 214.786 200.506L184.096 204.485Z" fill="#7BC6C9"/>
<path d="M193.503 206.493L215.42 199.673L208.325 197.159L184.098 203.617L193.503 206.493Z" fill="#D64E27"/>
<path d="M116.381 198.95C115.948 198.95 113.998 197.883 110.821 198.95C107.643 200.035 103.834 202.694 103.834 202.694H117.229L116.381 198.95Z" fill="#C72F47"/>
<path d="M166.044 202.676H179.873C179.873 202.676 171.912 196.997 165.467 196.635L166.044 202.676Z" fill="#C72F47"/>
<path d="M184.098 203.617V205.625L193.503 208.718V206.493L184.098 203.617Z" fill="#6E2C27"/>
<path d="M193.503 208.718L215.419 201.609V199.674L193.503 206.493V208.718Z" fill="#EE7123"/>
<path d="M190.055 192.276C189.802 192.276 189.549 192.167 189.387 191.95L83.1987 60.034C82.8918 59.6541 82.964 59.1296 83.325 58.8221C83.6861 58.5146 84.2277 58.5869 84.5346 58.9487L190.723 190.883C191.029 191.263 190.957 191.806 190.596 192.095C190.434 192.222 190.235 192.276 190.055 192.276Z" fill="#CE8686"/>
<path d="M159.546 34.7469C159.546 34.7469 159.022 35.7055 158.318 36.8813C157.145 38.7986 155.484 41.3128 154.762 41.0958C153.606 40.7702 153.281 39.1784 153.191 36.5918C153.191 36.411 153.173 36.212 153.173 36.013C153.173 35.6694 153.191 35.2895 153.191 34.9097C153.299 32.3412 153.696 29.2119 153.696 29.2119C153.769 29.3928 153.841 29.5737 153.949 29.7546C154.834 31.274 156.91 33.1913 159.546 34.7469Z" fill="#FFB882"/>
<path d="M188.629 193.126C188.918 192.981 191.427 189.599 191.427 189.599L202.458 201.229L196.301 201.953L188.629 193.126Z" fill="#2B91BE"/>
<path d="M149.309 68.843C146.547 67.4141 132.321 60.2874 132.177 60.2331C132.122 60.1969 132.068 60.1969 131.996 60.215C131.942 60.2331 131.888 60.2874 131.87 60.3416C131.707 60.7396 127.844 70.0007 130.425 75.2643C131.22 76.8741 132.538 77.9594 134.379 78.4478C135.191 78.6648 136.022 78.7734 136.834 78.7734C144.416 78.7734 149.345 69.241 149.399 69.1505C149.453 69.042 149.399 68.9154 149.309 68.843ZM136.834 78.3393C136.058 78.3393 135.264 78.2307 134.487 78.0137C132.772 77.5615 131.545 76.5666 130.804 75.0653C128.53 70.3986 131.617 62.1504 132.177 60.7215C133.91 61.5897 145.933 67.613 148.894 69.1324C148.171 70.4709 143.568 78.3393 136.834 78.3393Z" fill="#E8C792"/>
<path d="M145.627 89.0476C145.717 88.8848 145.807 88.6858 145.916 88.5049C144.598 88.9029 142.847 89.3732 140.879 89.753V88.4145C140.879 88.3421 140.843 88.2698 140.788 88.2336C140.734 88.1974 140.644 88.1974 140.572 88.2155L139.38 88.8124C139.308 88.8486 139.254 88.921 139.254 89.0114V90.0605C135.625 90.6574 131.455 90.9106 127.808 90.0424C125.064 89.3732 122.573 88.0346 120.443 86.4972L120.659 85.8641C120.695 85.7736 120.659 85.6651 120.587 85.6289L119.378 84.7245C119.323 84.6883 119.233 84.6703 119.179 84.6883C119.107 84.7245 119.053 84.7607 119.035 84.8511L118.926 85.3033C116.182 83.0423 114.232 80.6366 113.384 79.4971C113.366 79.7141 113.348 79.9312 113.348 80.1482C114.341 81.4325 116.254 83.6573 118.818 85.7555L117.969 89.337C115.623 87.9985 113.962 86.6599 112.987 85.7555C112.969 85.9364 112.951 86.1173 112.933 86.2982C113.962 87.2207 115.604 88.5049 117.861 89.7711L117.482 91.399C117.464 91.4895 117.5 91.5799 117.572 91.6342L118.349 92.1406C118.385 92.1587 118.421 92.1587 118.457 92.1587C118.493 92.1587 118.511 92.1587 118.529 92.1406C118.601 92.1225 118.637 92.0683 118.655 92.014L119.161 90.4584C121.381 91.5799 124.089 92.5928 127.285 93.244C129.578 93.6962 131.78 93.8771 133.82 93.8771C135.806 93.8771 137.647 93.7143 139.254 93.4611V95.0347C139.254 95.1071 139.29 95.1794 139.344 95.2156C139.38 95.2518 139.416 95.2518 139.471 95.2518C139.489 95.2518 139.507 95.2518 139.543 95.2337L140.734 94.7996C140.825 94.7634 140.879 94.673 140.879 94.6006V93.1717C142.269 92.9003 143.442 92.5747 144.327 92.3034L144.128 91.9236C143.28 92.1768 142.179 92.4843 140.879 92.7375V90.2052C142.702 89.8434 144.345 89.4274 145.627 89.0476ZM118.349 91.6161L117.933 91.3448L118.258 89.9882L118.367 89.554L119.197 86.063L119.305 85.6108L119.396 85.2672L120.226 85.8822L120.118 86.2439L119.973 86.678L118.926 89.8977L118.782 90.2956L118.349 91.6161ZM127.375 92.8099C124.198 92.1768 121.49 91.1458 119.305 90.0424L120.316 86.8951C122.447 88.4145 124.956 89.753 127.718 90.4223C129.451 90.8383 131.275 91.0011 133.116 91.0011C135.21 91.0011 137.304 90.784 139.254 90.4765V93.027C136.041 93.5334 131.888 93.7143 127.375 92.8099ZM140.463 92.828V93.2621V94.4559L139.705 94.7272V93.3887V92.9546V90.4223V89.9882V89.1561L140.463 88.7763V89.8615V90.2956V92.828Z" fill="#E8C792"/>
<path d="M173.481 133.236C173.337 133.236 173.138 133.146 172.94 132.856C171.676 131.12 170.611 126.29 170.683 125.929C170.701 125.82 170.828 125.73 170.936 125.766C171.044 125.784 171.116 125.893 171.098 126.001C171.098 126.417 172.091 130.957 173.283 132.603C173.409 132.784 173.481 132.802 173.481 132.802C173.969 132.585 174.005 128.045 173.644 126.019C173.626 125.911 173.698 125.784 173.806 125.766C173.915 125.748 174.041 125.82 174.059 125.929C174.294 127.249 174.637 132.766 173.644 133.182C173.608 133.236 173.554 133.236 173.481 133.236Z" fill="#AB3424"/>
<path d="M159.545 34.7473C159.545 34.7473 159.022 35.706 158.317 36.8817C156.44 36.5381 154.31 35.5251 153.19 34.9282C153.299 32.3597 153.696 29.2305 153.696 29.2305C153.768 29.4113 153.84 29.5922 153.949 29.7731C154.833 31.2744 156.909 33.1918 159.545 34.7473Z" fill="#F5948D"/>
<path d="M107.443 85.194C107.299 85.3206 107.137 85.3929 106.974 85.3387C106.559 85.194 105.963 84.1629 105.53 83.4575C105.512 83.4394 105.512 83.4213 105.494 83.4032C105.277 83.0234 105.097 82.7521 105.024 82.7521C105.024 82.7521 105.024 82.7521 105.006 82.7702C104.988 82.7702 104.97 82.7882 104.952 82.8244C104.609 83.4213 103.436 87.3464 102.443 87.3464C102.064 87.3464 101.269 86.9666 100.349 86.4059C98.6517 85.3748 96.5034 83.6746 95.6368 82.4627C94.2828 80.5996 95.9979 77.5789 95.9979 77.5789C95.9979 77.5789 95.7812 74.9199 94.9869 72.4057C94.1926 69.8914 92.5858 64.5193 92.983 64.3565C93.5246 64.1394 94.2106 64.0128 94.9688 63.9224C97.2255 63.6511 100.222 63.8139 102.461 64.0128C102.858 64.049 103.237 64.0852 103.58 64.1214C104.79 64.248 105.602 64.3565 105.602 64.3565L105.458 76.2042C105.458 76.2042 108.111 81.305 108.256 82.5169C108.382 83.4756 107.949 84.7418 107.443 85.194Z" fill="#D64E27"/>
<path d="M107.443 85.1933C106.865 82.4801 105.295 78.6093 104.5 76.5834C103.76 74.7384 102.858 67.3223 102.479 64.0303C102.876 64.0664 103.255 64.1026 103.598 64.1388C104.807 64.2654 105.62 64.3739 105.62 64.3739L105.475 76.2216C105.475 76.2216 108.129 81.3225 108.274 82.5344C108.382 83.475 107.949 84.7411 107.443 85.1933Z" fill="#BF3B27"/>
<path d="M104.988 82.8242C104.645 83.4211 103.472 87.3462 102.479 87.3462C102.1 87.3462 101.305 86.9664 100.385 86.4057C102.804 85.2118 104.627 83.2402 104.988 82.8242Z" fill="#BF3B27"/>
<path d="M229.482 196.492C229.175 196.492 228.904 196.238 228.904 195.913V191.445C228.904 191.119 229.157 190.866 229.482 190.866C229.807 190.866 230.06 191.119 230.06 191.445V195.913C230.042 196.238 229.789 196.492 229.482 196.492Z" fill="#4B4063"/>
<path d="M252.627 198.789C252.302 198.789 252.049 198.536 252.049 198.211V194.123C252.049 193.797 252.302 193.544 252.627 193.544C252.951 193.544 253.204 193.797 253.204 194.123V198.211C253.204 198.518 252.951 198.789 252.627 198.789Z" fill="#4B4063"/>
<path d="M276.13 198.789C275.805 198.789 275.553 198.536 275.553 198.21V193.688C275.553 193.363 275.805 193.109 276.13 193.109C276.455 193.109 276.708 193.363 276.708 193.688V198.21C276.708 198.518 276.455 198.789 276.13 198.789Z" fill="#4B4063"/>
<path d="M281.655 162.358C281.312 163.353 280.969 164.981 280.645 167.007C280.103 170.281 279.579 174.604 279.146 178.837C278.984 180.41 278.821 181.984 278.677 183.485C278.099 189.617 277.72 194.609 277.72 194.609C277.72 194.609 269.831 195.966 251.778 195.405C250.604 195.369 249.485 195.315 248.438 195.261C233.075 194.501 228.634 192.276 228.634 191.806C228.634 191.336 225.149 159.609 224.626 154.798C224.59 154.4 224.554 154.183 224.554 154.183C224.554 154.183 226.919 155.431 232.118 157.004C235.494 158.017 240.043 159.157 245.929 160.17C247.192 160.387 248.51 160.604 249.882 160.803C250.676 160.929 251.507 161.038 252.355 161.147C271.907 163.733 281.655 162.358 281.655 162.358Z" fill="#F79738"/>
<path d="M281.655 162.359C281.312 163.354 280.969 164.982 280.644 167.008C276.384 167.623 269.849 167.858 259.793 167.026C239.52 165.362 228.904 158.452 224.59 154.78C224.554 154.382 224.518 154.165 224.518 154.165C224.518 154.165 226.883 155.413 232.082 156.987C235.458 158 240.007 159.139 245.892 160.152C247.156 160.369 248.474 160.586 249.846 160.785C250.64 160.912 251.471 161.02 252.319 161.129C271.907 163.734 281.655 162.359 281.655 162.359Z" fill="#ED8222"/>
<path d="M261.725 135.932L244.809 136.24L236.92 136.384L218.217 130.922L238.635 128.986C239.194 129.077 239.88 129.221 240.639 129.42C247.625 131.085 261.725 135.932 261.725 135.932Z" fill="#ED7D27"/>
<path d="M244.809 136.24L236.92 136.384L218.217 130.922L238.635 128.986C239.194 129.077 239.88 129.221 240.639 129.42C241.614 131.519 243.292 134.087 244.809 136.24Z" fill="#D64E27"/>
<path d="M248.419 195.261C233.056 194.501 228.615 192.276 228.615 191.806C228.615 191.299 224.535 154.183 224.535 154.183C224.535 154.183 226.9 155.431 232.099 157.004C235.186 167.116 241.415 185.584 248.419 195.261Z" fill="#ED8222"/>
<path d="M236.523 127.576L226.684 105.707H229.68L239.212 127.576H236.523Z" fill="#5B1436"/>
<path d="M232.407 198.516C232.407 200.235 231.016 201.628 229.32 201.628C227.604 201.628 226.232 200.235 226.232 198.516C226.232 196.798 227.623 195.405 229.32 195.405C231.016 195.405 232.407 196.798 232.407 198.516Z" fill="#6C5964"/>
<path d="M255.948 200.001C255.948 201.846 254.449 203.347 252.626 203.347C250.785 203.347 249.286 201.846 249.286 200.001C249.286 198.156 250.785 196.654 252.626 196.654C254.467 196.654 255.948 198.156 255.948 200.001Z" fill="#6C5964"/>
<path d="M276.041 201.628C277.886 201.628 279.381 200.13 279.381 198.282C279.381 196.434 277.886 194.936 276.041 194.936C274.196 194.936 272.701 196.434 272.701 198.282C272.701 200.13 274.196 201.628 276.041 201.628Z" fill="#6C5964"/>
<path d="M253.727 154.057L252.103 159.393C252.103 159.393 246.307 158.561 238.4 157.277C230.475 155.992 226.702 153.876 226.828 152.483L233.706 153.46L253.727 154.057Z" fill="#D64E27"/>
<path d="M270.68 139.423C270.68 140.146 270.102 140.743 269.398 140.743C268.694 140.743 268.116 140.146 268.116 139.423C268.116 138.681 268.694 138.103 269.398 138.103C270.102 138.103 270.68 138.699 270.68 139.423Z" fill="#7BC6C9"/>
<path d="M284.453 146.857C284.453 147.779 283.623 148.503 282.594 148.503C281.565 148.503 280.734 147.761 280.734 146.857C280.734 145.953 281.565 145.211 282.594 145.211C283.605 145.211 284.453 145.953 284.453 146.857Z" fill="#7BC6C9"/>
<path d="M290.899 153.768C290.899 154.473 290.375 155.052 289.725 155.052C289.075 155.052 288.552 154.473 288.552 153.768C288.552 153.062 289.075 152.483 289.725 152.483C290.375 152.483 290.899 153.062 290.899 153.768Z" fill="#7BC6C9"/>
<path d="M215.853 130.994L225.168 152.248L233.707 153.46L236.559 137.813L215.853 130.994Z" fill="#F7991C"/>
<path d="M233.706 153.46L258.15 154.183L262.735 137.597L236.558 137.814L233.706 153.46Z" fill="#FFC40C"/>
<path d="M236.523 138.103L236.92 136.367L215.419 130.108L216.213 131.809L236.523 138.103Z" fill="#EDD260"/>
<path d="M236.523 138.103L262.736 137.597L263.585 135.517L236.921 136.367L236.523 138.103Z" fill="#F5E38F"/>
<path d="M218.217 130.922L238.653 128.968V127.322L215.419 130.108L218.217 130.922Z" fill="#F5E38F"/>
<path d="M238.653 128.968L261.003 135.589L263.585 135.516L238.653 127.322V128.968Z" fill="#EDD260"/>
<path d="M205.183 107.299L221.954 139.894L224.535 139.46L207.548 106.358L205.183 107.299Z" fill="#5B1436"/>
<path d="M252.048 159.627C252.048 159.627 253.384 153.206 256.724 147.852C260.063 142.498 260.984 141.793 262.717 142.245C264.468 142.697 265.895 147.183 265.895 147.183C265.895 147.183 267.898 142.679 271.527 143.728C275.156 144.777 274.686 150.33 274.686 150.33C274.686 150.33 276.022 147.653 277.846 148.033C279.651 148.413 279.182 152.157 279.182 152.157C279.182 152.157 280.517 149.588 282.919 150.873C285.302 152.157 284.543 155.503 284.543 155.503C284.543 155.503 287.883 153.297 287.991 157.041C288.082 160.767 289.039 162.377 274.614 162.214C260.172 162.033 252.048 159.627 252.048 159.627Z" fill="#CDE4E1"/>
<path d="M281.149 156.697C281.149 157.619 280.409 158.361 279.506 158.361C278.603 158.361 277.863 157.619 277.863 156.697C277.863 155.792 278.603 155.051 279.506 155.051C280.409 155.051 281.149 155.774 281.149 156.697Z" fill="#7BC6C9"/>
<path d="M270.047 156.118C270.047 157.583 268.855 158.777 267.393 158.777C265.931 158.777 264.739 157.583 264.739 156.118C264.739 154.653 265.931 153.459 267.393 153.459C268.855 153.459 270.047 154.653 270.047 156.118Z" fill="#7BC6C9"/>
<path d="M263.223 150.945C264.051 150.945 264.721 150.273 264.721 149.444C264.721 148.615 264.051 147.942 263.223 147.942C262.395 147.942 261.725 148.615 261.725 149.444C261.725 150.273 262.395 150.945 263.223 150.945Z" fill="#7BC6C9"/>
<path d="M279.128 178.838C278.965 180.411 278.803 181.985 278.658 183.486C274.578 183.36 268.603 182.275 261.725 178.241C253.167 173.212 248.257 165.109 245.91 160.171C247.174 160.388 248.492 160.605 249.864 160.804C253.077 165.688 258.349 172.887 263.331 175.817C267.718 178.386 274.235 178.892 279.128 178.838Z" fill="#ED8222"/>
<path d="M278.821 179.434C273.892 179.434 268.332 178.222 263.349 175.816C253.366 170.986 247.029 161.979 246.957 161.888C246.777 161.635 246.849 161.273 247.102 161.092C247.354 160.911 247.715 160.984 247.896 161.237C247.95 161.327 214.859 156.697 263.837 174.785C273.603 178.384 284.652 179.524 289.328 175.237C290.483 174.188 290.989 172.777 290.826 171.059C290.483 167.315 287.071 163.01 284.778 161.581C284.507 161.418 284.435 161.056 284.598 160.785C284.76 160.513 285.121 160.423 285.392 160.604C287.829 162.123 291.584 166.7 291.963 170.95C292.162 173.048 291.53 174.785 290.086 176.087C287.667 178.312 283.533 179.434 278.821 179.434Z" fill="#5B1436"/>
<path d="M281.656 162.866C280.59 163.752 274.037 164.403 260.281 163.336C255.226 162.956 250.153 162.124 245.513 161.147C237.516 159.483 230.836 157.367 227.876 156.354C223.2 154.726 223.868 152.429 224.843 151.452L227.497 152.809C227.244 154.111 231.54 155.775 244.051 158.036C246.163 158.416 248.528 158.814 251.128 159.23C269.109 162.106 281.656 161.437 281.656 161.437C281.656 161.437 282.721 161.997 281.656 162.866Z" fill="#FFC40C"/>
<path d="M245.513 161.165C237.516 159.501 230.836 157.385 227.876 156.372C223.2 154.744 223.868 152.446 224.843 151.47L227.497 152.826C227.244 154.129 231.54 155.793 244.051 158.054C244.466 159.139 244.99 160.206 245.513 161.165Z" fill="#F7991C"/>
<path d="M174.655 19.589C173.5 21.9043 169.546 34.1138 168.86 35.6151C168.228 36.9536 167.271 38.672 164.112 38.075C163.571 37.9846 162.975 37.8037 162.307 37.5505C161.928 37.4058 161.567 37.2611 161.206 37.0983C160.231 36.6823 159.292 36.1939 158.407 35.6693C158.227 35.5608 158.046 35.4523 157.884 35.3437C155.266 33.7158 153.208 31.7804 152.324 30.2248C152.215 30.0439 152.125 29.845 152.053 29.646C151.168 27.3669 152.179 24.5452 152.179 24.5452C151.295 24.2738 150.609 23.5503 150.139 22.5917C148.875 20.0412 149.11 15.9352 150.609 15.1032C150.717 15.0489 150.807 15.0128 150.933 14.9947C151.132 14.9404 151.331 14.9223 151.511 14.9404C153.298 15.3564 153.84 17.7079 153.84 17.7079C153.84 17.7079 154.869 14.6872 156.187 12.806C156.981 11.6303 158.823 10.5269 160.086 9.87574C160.827 9.49589 161.368 9.26074 161.368 9.26074C162.776 12.4442 166.892 16.0438 170.593 17.9792C172.056 18.7389 173.446 19.2815 174.655 19.589Z" fill="#FFB882"/>
<path d="M161.926 31.4713L165.394 33.6488C165.394 33.6488 164.819 35.2778 162.813 34.0963C160.702 32.844 161.926 31.4713 161.926 31.4713Z" fill="#FFEBEB"/>
<path d="M154.075 25.6126C154.002 28.7057 156.187 32.7212 157.866 35.3621C155.248 33.7341 153.19 31.7987 152.306 30.2431C152.197 30.0623 152.107 29.8633 152.035 29.6643C151.15 27.3852 152.161 24.5635 152.161 24.5635C151.276 24.2922 150.59 23.5686 150.121 22.61C150.753 19.9329 151.096 17.1655 150.59 15.1215C150.699 15.0673 150.789 15.0311 150.915 15.013C151.114 14.9587 151.313 14.9406 151.493 14.9587C153.28 15.3748 153.822 17.7262 153.822 17.7262C153.822 17.7262 154.851 14.7055 156.169 12.8243C156.981 11.6305 158.823 10.5271 160.086 9.87598C156.476 14.2533 154.165 21.1268 154.075 25.6126Z" fill="#DB816F"/>
<path d="M157.912 17.9186C157.619 17.5889 159.138 15.825 161.619 16.06C164.119 16.2929 165.02 18.2265 165.02 18.2265C165.02 18.2265 163.363 17.894 161.187 17.7867C159.047 17.6753 157.912 17.9186 157.912 17.9186Z" fill="#DF8B4B"/>
<path d="M169.935 20.8534C169.947 20.3391 170.923 19.6138 172.57 20.4825C174.2 21.3477 173.141 23.034 173.141 23.034C173.141 23.034 172.665 22.1073 171.83 21.7722C170.978 21.4336 169.931 21.1478 169.935 20.8534Z" fill="#DF8B4B"/>
<path d="M179.006 19.1186C178.952 19.209 178.88 19.2814 178.808 19.3357C177.941 19.9687 176.479 20.0411 174.656 19.5889C173.446 19.2814 172.056 18.7568 170.576 17.9791C166.875 16.0436 162.759 12.4441 161.351 9.26061C161.351 9.26061 157.469 10.9247 156.133 12.8059C154.815 14.687 153.786 17.7077 153.786 17.7077C153.786 17.7077 153.245 15.3563 151.457 14.9403H151.439C151.439 14.9403 150.302 9.98413 152.288 7.59651C153.859 5.69726 155.989 3.52669 161.242 1.71788C162.596 1.24759 164.167 0.81348 165.99 0.397454C174.854 -1.57415 178.501 4.5758 179.223 6.92725C179.927 9.15208 180.234 17.4183 179.006 19.1186Z" fill="#592019"/>
<path d="M151.602 16.8393C151.566 16.7669 151.493 16.7126 151.403 16.7488C151.331 16.785 151.277 16.8573 151.313 16.9478C151.313 16.9659 151.584 17.7618 151.728 18.8651C151.295 19.046 150.121 19.5886 150.338 20.2217C150.518 20.7825 151.385 20.8548 151.782 20.8548C151.746 21.2527 151.692 21.6688 151.584 22.0667C151.566 22.1572 151.62 22.2295 151.692 22.2657C151.71 22.2657 151.71 22.2657 151.728 22.2657C151.8 22.2657 151.854 22.2295 151.872 22.1572C152.54 19.661 151.638 16.9478 151.602 16.8393ZM150.627 20.1132C150.537 19.8419 151.186 19.4259 151.764 19.1907C151.8 19.6067 151.818 20.077 151.8 20.5473C151.421 20.5473 150.735 20.4569 150.627 20.1132Z" fill="#983222"/>
<path d="M166.766 30.9847C166.748 30.9847 166.748 30.9847 166.73 30.9847C166.621 30.9666 164.184 30.424 162.577 29.3568C162.505 29.3025 162.487 29.2121 162.541 29.1397C162.595 29.0674 162.686 29.0493 162.758 29.0855C164.094 29.9718 166.08 30.4963 166.657 30.641C167.109 28.1449 168.499 22.3929 168.499 22.3386C168.517 22.2482 168.607 22.1939 168.679 22.2301C168.77 22.2482 168.824 22.3386 168.788 22.411C168.77 22.4652 167.343 28.4524 166.91 30.8581C166.91 30.8943 166.874 30.9304 166.838 30.9666C166.82 30.9847 166.802 30.9847 166.766 30.9847Z" fill="#983222"/>
<path d="M161.729 22.0668C161.079 23.0074 160.899 24.0203 161.332 24.3278C161.765 24.6172 162.632 24.0927 163.3 23.1521C163.95 22.2115 164.13 21.1986 163.697 20.8911C163.264 20.6017 162.379 21.1262 161.729 22.0668Z" fill="#3C1515"/>
<path d="M169.564 24.3641C168.932 25.2866 168.734 26.2634 169.131 26.5347C169.528 26.806 170.358 26.2815 170.99 25.359C171.622 24.4365 171.821 23.4597 171.442 23.1884C171.044 22.899 170.214 23.4416 169.564 24.3641Z" fill="#3C1515"/>
<path d="M179.006 19.1185C178.952 19.2089 178.88 19.2813 178.808 19.3356C177.941 19.9686 176.479 20.041 174.656 19.5888C173.446 19.2813 172.056 18.7567 170.576 17.979C166.875 16.0435 162.759 12.444 161.351 9.2605C161.351 9.2605 157.469 10.9246 156.133 12.8058C154.815 14.6869 153.786 17.7076 153.786 17.7076C153.786 17.7076 153.245 15.3562 151.457 14.9402H151.439C151.439 14.9402 150.302 9.98402 152.288 7.5964C153.859 5.69715 155.989 3.52658 161.242 1.71777C161.134 4.1054 162.307 9.64035 165.629 12.643C168.987 15.6275 173.861 19.5345 179.006 19.1185Z" fill="#461714"/>
</g>
<defs>
<clipPath id="clip0">
<rect width="375" height="214" fill="white"/>
</clipPath>
</defs>
</svg>
