<svg width="313" height="211" viewBox="0 0 313 211" fill="none" xmlns="http://www.w3.org/2000/svg">
<path d="M43.2158 40.6101C37.484 32.2134 43.0151 24.7001 43.0151 24.7001C43.0151 24.7001 42.4724 16.823 46.1227 15.9321C49.758 15.0486 53.8841 18.3524 53.8841 18.3524C53.8841 18.3524 53.4083 8.04758 61.2961 11.626C69.0575 15.1451 67.9647 24.6407 67.9647 24.6407C67.9647 24.6407 72.4922 18.189 73.31 25.9473C74.1203 33.6314 70.6857 39.5485 69.0055 40.38C69.0055 40.38 68.4182 44.6638 58.3596 49.4821C48.1745 54.3598 43.2158 40.6101 43.2158 40.6101Z" fill="#842C35"/>
<path d="M56.9322 27.1799C55.3635 21.3742 54.4788 16.155 55.6163 12.042C53.6982 14.143 53.8841 18.3526 53.8841 18.3526C53.8841 18.3526 49.758 15.0488 46.1227 15.9323C42.4724 16.8232 43.0151 24.7003 43.0151 24.7003C43.0151 24.7003 37.484 32.221 43.2158 40.6103C43.2158 40.6103 48.1745 54.36 58.367 49.4823C63.0878 47.2179 65.727 45.0797 67.1915 43.439C62.8127 41.8947 59.1327 35.3466 56.9322 27.1799Z" fill="#6D202B"/>
<path d="M131.045 146.063V179.19H137.424V147.652C137.424 144.697 139.676 142.299 142.457 142.299H167.86C170.64 142.299 172.893 144.697 172.893 147.652V197.209H179.271V146.063C179.271 140.235 174.833 135.514 169.361 135.514H140.97C135.483 135.514 131.045 140.235 131.045 146.063Z" fill="#AAB5BA"/>
<path d="M138.487 135.855C137.082 136.242 135.795 136.932 134.703 137.882V160.6H137.424V147.653C137.424 146.413 137.825 145.277 138.487 144.371V135.855Z" fill="#93A0A5"/>
<path d="M132.041 178.403V146.754C132.041 141.594 134.665 138.802 136.048 136.909C133.06 138.728 131.045 142.143 131.045 146.063V179.19H135.624V178.403H132.041Z" fill="#93A0A5"/>
<path d="M170.647 139.908H145.244C143.445 139.908 141.876 140.955 140.984 142.529C141.453 142.38 141.943 142.299 142.456 142.299H167.859C170.64 142.299 172.893 144.697 172.893 147.652V197.208H175.68V145.491C175.673 142.41 173.42 139.908 170.647 139.908Z" fill="#93A0A5"/>
<path d="M161.459 186.607H108.333V197.209H161.459V186.607Z" fill="#465960"/>
<path d="M112.853 91.5553V127.949H116.637V92.8248C116.637 90.5604 118.362 88.7267 120.488 88.7267H136.888C139.014 88.7267 140.739 90.5604 140.739 92.8248V95.6609H144.523V91.5479C144.523 87.7615 141.639 84.6953 138.078 84.6953H119.284C115.738 84.7027 112.853 87.7689 112.853 91.5553Z" fill="#8E9DA3"/>
<path d="M142.56 95.6688V91.7711C142.56 89.425 140.575 87.5244 138.129 87.5244H119.246C116.8 87.5244 114.815 89.425 114.815 91.7711V127.949H116.637V92.8253C116.637 90.5609 118.362 88.7271 120.488 88.7271H136.888C139.014 88.7271 140.739 90.5609 140.739 92.8253V95.6613H142.56V95.6688Z" fill="#678087"/>
<path d="M180.119 190.208H172.692C172.03 190.208 171.488 190.743 171.488 191.411V197.209H181.316V191.411C181.323 190.75 180.781 190.208 180.119 190.208Z" fill="#514347"/>
<path d="M180.06 190.208H174.261C174.751 192.45 176.506 194.492 178.989 195.39C179.77 195.672 180.55 195.813 181.316 195.836V191.552C181.323 190.809 180.758 190.208 180.06 190.208Z" fill="#7F6B72"/>
<path d="M116.228 121.594H112.987C112.325 121.594 111.783 122.128 111.783 122.796V128.595H117.425V122.796C117.433 122.128 116.898 121.594 116.228 121.594Z" fill="#514347"/>
<path d="M99.702 121.17H87.2197V123.672H99.702V121.17Z" fill="#C9B697"/>
<path d="M99.6497 120.354H98.3784V132.225H99.6497C101.806 132.225 103.553 130.48 103.553 128.327V124.259C103.553 122.098 101.806 120.354 99.6497 120.354Z" fill="#C9B697"/>
<path d="M71.5779 91.4512L72.5295 118.943L61.1327 118.78L57.8467 93.1068L71.5779 91.4512Z" fill="#FFB882"/>
<path d="M61.2293 110.947C63.8164 104.028 68.1061 99.0461 71.8083 98.133L71.5779 91.4512L57.8467 93.1068L60.4338 113.338C60.6717 112.543 60.9245 111.749 61.2293 110.947Z" fill="#FF9566"/>
<path d="M52.8359 55.0869C58.4117 58.257 59.2146 73.1203 57.3188 94.5911L72.9309 93.3216C72.5072 81.9625 68.7974 55.5398 52.8359 55.0869Z" fill="#F7DEB0"/>
<path d="M63.0953 94.1239C63.3703 90.7756 63.3926 87.0932 63.125 83.2252C62.0693 67.7828 56.7984 55.2656 51.3565 55.2656C51.1334 55.2656 50.9104 55.2953 50.6948 55.3399C56.0401 59.1633 57.7351 73.7816 57.3262 94.5991L63.0953 94.1239Z" fill="#E8C792"/>
<path d="M152.032 186.607H106.542V197.209H152.032V186.607Z" fill="#2C3D42"/>
<path d="M76.4546 136.768V197.209H82.8332V138.35C82.8332 135.625 84.9074 133.413 87.4723 133.413H113.061C115.626 133.413 117.7 135.625 117.7 138.35V169.123H124.079V136.768C124.079 131.371 119.968 126.998 114.897 126.998H85.6434C80.5658 126.998 76.4546 131.371 76.4546 136.768Z" fill="#B8CCC9"/>
<path d="M120.25 169.123V136.657C120.25 133.739 117.871 131.371 114.935 131.371H83.1305C80.1939 131.371 77.8149 133.739 77.8149 136.657V197.209H82.8331V138.35C82.8331 135.625 84.9073 133.413 87.4721 133.413H113.061C115.626 133.413 117.7 135.625 117.7 138.35V169.123H120.25Z" fill="#91AFAA"/>
<path d="M144.992 153.436H142.063C140.494 153.436 139.215 154.713 139.215 156.279V157.281C139.215 157.942 139.751 158.477 140.412 158.477H144.984C145.646 158.477 146.181 157.942 146.181 157.281V154.631C146.189 153.97 145.653 153.436 144.992 153.436Z" fill="#465960"/>
<path d="M151.757 153.072H150.924C149.289 153.072 147.951 154.409 147.951 156.042V157.274C147.951 157.935 148.486 158.47 149.148 158.47H153.72C154.381 158.47 154.917 157.935 154.917 157.274V156.228C154.917 154.498 153.497 153.072 151.757 153.072Z" fill="#465960"/>
<path d="M137.751 155.299H129.989C129.328 155.299 128.792 155.833 128.792 156.494V157.274C128.792 157.934 129.328 158.469 129.989 158.469H137.751C138.412 158.469 138.948 157.934 138.948 157.274V156.494C138.948 155.833 138.412 155.299 137.751 155.299Z" fill="#465960"/>
<path d="M125.001 155.299H116.043C115.381 155.299 114.846 155.833 114.846 156.494V157.274C114.846 157.934 115.381 158.469 116.043 158.469H125.001C125.663 158.469 126.198 157.934 126.198 157.274V156.494C126.198 155.833 125.663 155.299 125.001 155.299Z" fill="#465960"/>
<path d="M159.34 156.71H106.943C93.3974 156.71 93.3974 195.294 106.943 195.294H159.34C170.499 195.301 170.499 156.71 159.34 156.71Z" fill="#6C7A82"/>
<path d="M159.34 156.71H106.943C100.869 156.71 97.5161 164.468 96.8916 173.028C97.8432 173.533 98.8914 173.815 100.036 173.815H152.433C157.548 173.815 160.314 165.716 160.738 156.933C160.292 156.792 159.831 156.71 159.34 156.71Z" fill="#9AAAAF"/>
<path d="M159.34 156.71H157.682C144.137 156.71 144.137 195.294 157.682 195.294H159.34C170.499 195.301 170.499 156.71 159.34 156.71Z" fill="#8798A0"/>
<path d="M158.374 156.858H159.957C159.593 156.769 159.221 156.717 158.835 156.717H157.177C143.698 156.717 143.631 194.899 156.969 195.293C144.851 192.717 145.312 156.858 158.374 156.858Z" fill="#6C7A82"/>
<path d="M100.148 109.655H99.724C99.3672 109.655 99.0698 109.945 99.0698 110.309V125.959C99.0698 126.315 99.3598 126.612 99.724 126.612H100.148C100.505 126.612 100.802 126.323 100.802 125.959V110.309C100.795 109.945 100.505 109.655 100.148 109.655Z" fill="#E2424D"/>
<path d="M100.148 113.687H99.724C99.3672 113.687 99.0698 113.976 99.0698 114.34V129.99C99.0698 130.346 99.3598 130.643 99.724 130.643H100.148C100.505 130.643 100.802 130.354 100.802 129.99V114.332C100.795 113.976 100.505 113.687 100.148 113.687Z" fill="#BF2B39"/>
<path d="M105.53 125.127H90.8848C89.5912 125.127 88.543 126.174 88.543 127.466V133.62C88.543 134.912 89.5912 135.959 90.8848 135.959H105.53C106.824 135.959 107.872 134.912 107.872 133.62V127.466C107.872 126.174 106.824 125.127 105.53 125.127Z" fill="#FFB531"/>
<path d="M107.872 133.339V127.733C107.872 126.286 106.772 125.12 105.411 125.12H101.263C99.9025 125.12 98.8022 126.293 98.8022 127.733V133.339C98.8022 134.786 99.9025 135.952 101.263 135.952H105.411C106.772 135.959 107.872 134.786 107.872 133.339Z" fill="#ED9224"/>
<path d="M93.7248 129.314C92.3643 129.314 91.264 128.141 91.264 126.701V125.127H90.9964C89.6359 125.127 88.5356 126.3 88.5356 127.74V133.346C88.5356 134.793 89.6359 135.959 90.9964 135.959H105.404C106.765 135.959 107.865 134.786 107.865 133.346V129.314H93.7248Z" fill="#ED9224"/>
<path d="M101.925 129.062V131.327C101.925 132.774 103.025 133.94 104.386 133.94H107.798C107.843 133.747 107.872 133.546 107.872 133.338V127.733C107.872 127.258 107.746 126.827 107.538 126.441H104.386C103.025 126.449 101.925 127.622 101.925 129.062Z" fill="#514347"/>
<path d="M114.496 126.998H105.367C104.073 126.998 103.025 128.045 103.025 129.337V131.059C103.025 132.351 104.073 133.398 105.367 133.398H114.496C115.79 133.398 116.838 132.351 116.838 131.059V129.337C116.838 128.045 115.79 126.998 114.496 126.998Z" fill="#B8CCC9"/>
<path d="M59.6087 120.954L57.4602 101.169C57.4602 101.169 61.787 67.1067 57.8617 58.1977C54.4567 50.4691 38.5993 44.2922 26.6449 54.7232C17.1513 63.0086 18.6753 79.6165 17.4784 109.722C17.0398 120.784 20.0804 126.619 25.0242 153.309L18.5638 195.865H19.8648L39.8037 152.27L41.6325 133.442L57.5048 156.405L64.1065 195.857H65.3034L70.8792 149.76L59.6087 120.954Z" fill="#5C95B7"/>
<path d="M64.7009 194.306L60.8499 155.441L47.0741 130.74L41.6396 133.443L57.7944 157.987L63.7716 194.588L64.7009 194.306Z" fill="#417EA3"/>
<path d="M36.9116 130.428L42.3907 134.029L52.5534 129.151L42.9855 131.059L36.9116 130.428Z" fill="#417EA3"/>
<path d="M25.4107 55.9268C17.2924 64.5685 18.6232 80.9983 17.4857 109.723C17.0471 120.785 20.0877 126.62 25.0316 153.31L18.5711 195.866H18.809L29.0461 152.686C29.0461 152.686 33.187 128.268 33.9304 120.035C35.6255 101.17 42.5989 94.592 39.5062 71.1686L25.4107 55.9268Z" fill="#417EA3"/>
<path d="M36.0043 86.6035L35.5806 119.255L23.9905 118.787L21.1729 88.764L36.0043 86.6035Z" fill="#FFB882"/>
<path d="M35.8632 97.5907L36.0044 86.6104L21.1655 88.7708L23.485 113.471C27.0163 105.624 31.7446 99.7289 35.8632 97.5907Z" fill="#FF9566"/>
<path d="M31.8264 50.8485C41.8404 48.9107 39.2978 90.1374 39.2978 90.1374L16.3853 94.1687C16.4299 86.0689 15.7608 53.9592 31.8264 50.8485Z" fill="#F7DEB0"/>
<path d="M21.4702 80.3368C21.4702 64.0927 26.533 50.9221 32.7778 50.9221C33.0826 50.9221 33.38 50.9593 33.6774 51.0261C33.1124 50.7959 32.5028 50.7217 31.8337 50.8553C15.7607 53.9661 16.4297 86.0683 16.3926 94.1756L22.5854 93.0842C21.8717 89.2236 21.4702 84.9027 21.4702 80.3368Z" fill="#E8C792"/>
<path d="M56.9323 83.0764C57.7352 81.9702 59.4376 66.0082 56.4193 55.9781C52.94 51.5607 45.5949 48.2866 37.9004 49.4373C41.5804 57.2253 42.5022 73.2839 42.19 80.2478C42.0562 83.2175 56.003 84.3459 56.9323 83.0764Z" fill="#F7DEB0"/>
<path d="M55.1404 51.2791L38.5396 49.2969C40.7996 58.6217 51.9511 71.6289 51.9511 71.6289C51.9511 71.6289 55.9359 56.0826 55.1404 51.2791Z" fill="#FFB882"/>
<path d="M56.4191 55.9785C55.3857 54.6644 53.9955 53.4542 52.3674 52.4297C53.5866 53.3057 54.6423 54.2932 55.4675 55.3474C58.4858 65.3849 56.7834 81.347 55.9805 82.4457C55.237 83.4629 46.1523 82.9432 42.6284 81.1688C44.9777 83.4406 56.0994 84.2127 56.9321 83.0842C57.735 81.978 59.4374 66.0086 56.4191 55.9785Z" fill="#E8C792"/>
<path d="M24.6151 124.451H83.0935V119.507H89.0112V132.366H86.8627V128.832H20.043C20.043 128.832 21.5224 124.169 24.6151 124.451Z" fill="#9B2642"/>
<path d="M83.3833 121.17H63.7046V123.672H83.3758C84.0746 123.672 84.0746 121.17 83.3833 121.17Z" fill="#C9B697"/>
<path d="M25.8713 124.451H84.3497V119.507H90.2675V132.366H88.1189V128.832H21.3066C21.3066 128.832 22.7786 124.169 25.8713 124.451Z" fill="#DD3737"/>
<path d="M71.1763 124.452H57.0288V128.832H71.1763V124.452Z" fill="#A32B2B"/>
<path d="M33.7222 124.452H26.5778C23.7602 124.17 22.4146 128.832 22.4146 128.832H33.7222V124.452Z" fill="#A32B2B"/>
<path d="M38.4058 49.5418C42.0932 42.86 47.0742 37.1953 47.0742 37.1953L57.1328 47.6337L54.739 53.9963C54.739 53.9963 52.1518 58.4508 46.472 57.4931C40.7922 56.5428 38.4058 49.5418 38.4058 49.5418Z" fill="#FFB882"/>
<path d="M61.0431 118.06C59.8536 122.017 59.6528 124.452 59.6528 124.452C59.6528 124.452 62.8347 124.007 63.0057 127.511C63.0726 128.87 60.9613 128.832 60.9613 128.832C60.9613 128.832 60.5821 131.342 63.3774 132.745C64.5074 133.309 66.3958 132.055 66.3958 132.055C66.3958 132.055 67.4886 133.747 68.8194 133.606C70.1501 133.465 71.0125 132.055 71.0125 132.055C71.0125 132.055 71.0794 133.465 72.8042 132.693C74.5289 131.913 75.592 126.895 74.9304 123.368C74.2687 119.834 72.4696 118.632 72.0756 115.098C71.6741 111.556 61.0431 118.06 61.0431 118.06Z" fill="#FFB882"/>
<path d="M23.7975 114.102C23.4853 115.149 23.7158 116.975 23.7455 117.955C23.805 120.198 24.8458 122.232 26.3921 123.746C27.0017 124.34 27.5742 125.313 27.6485 126.887C27.7154 128.245 26.236 128.973 26.236 128.973C26.236 128.973 25.8568 131.482 28.6522 132.885C29.7822 133.45 31.6705 132.195 31.6705 132.195C31.6705 132.195 32.7633 133.888 34.0941 133.747C35.4248 133.606 36.2872 132.195 36.2872 132.195C36.2872 132.195 36.3541 133.606 38.0789 132.834C39.8036 132.054 40.8668 127.035 40.2051 123.509C39.5434 119.975 36.0567 117.258 35.6627 113.724C35.2538 110.182 23.7975 114.102 23.7975 114.102Z" fill="#FFB882"/>
<path d="M73.8677 197.209H63.6083C63.6083 197.209 62.9095 193.177 64.7012 192.435C66.4928 191.693 73.8677 197.209 73.8677 197.209Z" fill="#F7DEB0"/>
<path d="M15.6567 197.209H24.3475C24.3475 197.209 22.8383 193.066 20.9351 192.301C19.0245 191.537 15.6567 197.209 15.6567 197.209Z" fill="#F7DEB0"/>
<path d="M157.816 160.993H159.244C165.897 160.993 167.934 176.933 165.369 186.725C169.362 177.675 167.667 157.986 160.269 157.986H158.842C154.954 157.986 152.367 161.676 151.073 166.598C152.53 163.258 154.776 160.993 157.816 160.993Z" fill="#97AAB2"/>
<path d="M147.148 193.073C146.761 192.138 136.933 190.742 125.521 190.742C114.109 190.742 105.426 192.138 105.813 193.073C106.199 194.009 115.5 194.135 126.919 194.135C138.338 194.135 147.534 194.009 147.148 193.073Z" fill="#7D8C93"/>
<path d="M108.058 157.638C104.482 157.638 101.962 160.607 100.467 164.81C105.805 165.448 113.18 165.478 121.283 164.728C134.725 163.488 145.869 160.533 148.872 157.638H108.058Z" fill="#B1C0C4"/>
<path opacity="0.45" d="M143.446 156.71H136.955C123.41 156.71 123.41 195.294 136.955 195.294H143.446C133.32 190.609 133.32 161.402 143.446 156.71Z" fill="#DAEAF2"/>
<path opacity="0.45" d="M124.324 156.71H117.834C104.289 156.71 104.289 195.294 117.834 195.294H124.324C114.191 190.609 114.191 161.402 124.324 156.71Z" fill="#DAEAF2"/>
<path d="M148.293 173.355H95.665C94.8472 173.355 94.1855 174.016 94.1855 174.833V175.798C94.1855 176.615 94.8472 177.275 95.665 177.275H148.293C149.11 177.275 149.772 176.615 149.772 175.798V174.833C149.772 174.016 149.11 173.355 148.293 173.355Z" fill="#465960"/>
<path d="M123.113 175.686H121.217C121.165 186.087 124.555 196.57 131.372 196.57H133.03C133.067 196.57 133.097 196.562 133.134 196.562C126.406 196.429 123.068 186.02 123.113 175.686Z" fill="#2C3D42"/>
<path d="M124.443 175.686H122.547C122.495 186.087 125.885 196.57 132.703 196.57H134.361C134.398 196.57 134.428 196.562 134.465 196.562C127.737 196.429 124.391 186.02 124.443 175.686Z" fill="#465960"/>
<path d="M104.557 175.686H102.661C102.609 186.087 105.999 196.57 112.816 196.57H114.474C114.511 196.57 114.541 196.562 114.578 196.562C107.842 196.429 104.504 186.02 104.557 175.686Z" fill="#2C3D42"/>
<path d="M105.947 175.686H104.051C103.999 186.087 107.389 196.57 114.206 196.57H115.864C115.901 196.57 115.931 196.562 115.968 196.562C109.24 196.429 105.902 186.02 105.947 175.686Z" fill="#465960"/>
<path d="M140.583 175.686H138.688C138.636 186.087 142.026 196.57 148.843 196.57H150.501C150.538 196.57 150.568 196.562 150.605 196.562C143.877 196.429 140.531 186.02 140.583 175.686Z" fill="#2C3D42"/>
<path d="M141.847 175.686H139.951C139.899 186.087 143.289 196.57 150.107 196.57H151.764C151.802 196.57 151.831 196.562 151.868 196.562C145.133 196.429 141.795 186.02 141.847 175.686Z" fill="#465960"/>
<path d="M145.571 173.355H95.6723C94.8545 173.355 94.1929 174.016 94.1929 174.833V175.798C94.1929 176.615 94.8545 177.275 95.6723 177.275H145.571C146.389 177.275 147.051 176.615 147.051 175.798V174.833C147.051 174.016 146.389 173.355 145.571 173.355Z" fill="#2C3D42"/>
<path d="M145.661 175.315C145.661 174.84 145.386 174.446 145.044 174.446C144.702 174.446 144.427 174.832 144.427 175.315C144.427 175.797 144.702 176.184 145.044 176.184C145.386 176.184 145.661 175.797 145.661 175.315Z" fill="#8798A0"/>
<path d="M95.9623 176.184C96.3031 176.184 96.5793 175.795 96.5793 175.315C96.5793 174.835 96.3031 174.446 95.9623 174.446C95.6215 174.446 95.3452 174.835 95.3452 175.315C95.3452 175.795 95.6215 176.184 95.9623 176.184Z" fill="#8798A0"/>
<path d="M107.686 111.838H92.1854C91.4792 111.838 90.9067 112.41 90.9067 113.115V113.946C90.9067 114.652 91.4792 115.223 92.1854 115.223H107.686C108.392 115.223 108.965 114.652 108.965 113.946V113.115C108.965 112.41 108.392 111.838 107.686 111.838Z" fill="#E2424D"/>
<path d="M107.374 113.642H92.4977C91.8881 113.642 91.3677 113.279 91.1 112.744C90.9811 112.982 90.9067 113.249 90.9067 113.539C90.9067 114.474 91.6204 115.231 92.4977 115.231H107.374C108.251 115.231 108.965 114.474 108.965 113.539C108.965 113.249 108.89 112.982 108.771 112.744C108.504 113.271 107.983 113.642 107.374 113.642Z" fill="#BF2B39"/>
<path d="M106.958 131.535C105.597 131.535 104.497 130.362 104.497 128.921V127.756C104.497 127.563 104.519 127.37 104.556 127.191C103.657 127.577 103.018 128.513 103.018 129.612V130.777C103.018 132.225 104.118 133.391 105.478 133.391H114.377C115.485 133.391 116.407 132.604 116.719 131.535H106.958Z" fill="#91AFAA"/>
<path d="M98.0885 134.029C98.0885 133.635 97.8952 133.323 97.6573 133.323C97.4194 133.323 97.2261 133.642 97.2261 134.029C97.2261 134.415 97.4194 134.734 97.6573 134.734C97.8952 134.734 98.0885 134.422 98.0885 134.029Z" fill="#514347"/>
<path d="M98.0885 127.495C98.0885 127.102 97.8952 126.79 97.6573 126.79C97.4194 126.79 97.2261 127.109 97.2261 127.495C97.2261 127.889 97.4194 128.201 97.6573 128.201C97.8952 128.201 98.0885 127.881 98.0885 127.495Z" fill="#514347"/>
<g opacity="0.65">
<path opacity="0.65" d="M130.584 84.7021H121.819V88.7335H130.584V84.7021Z" fill="#F7DEB0"/>
<path opacity="0.65" d="M136.293 84.7021H132.309V88.7335H136.293V84.7021Z" fill="#F7DEB0"/>
</g>
<path d="M161.578 192.287C165.117 192.287 167.986 184.904 167.986 175.798C167.986 166.691 165.117 159.309 161.578 159.309C158.039 159.309 155.169 166.691 155.169 175.798C155.169 184.904 158.039 192.287 161.578 192.287Z" fill="#97AAB2"/>
<path opacity="0.45" d="M166.128 166.472C165.429 163.176 164.031 160.637 162.998 160.793C161.964 160.956 161.689 163.755 162.388 167.052C163.087 170.348 164.485 172.887 165.518 172.731C166.544 172.575 166.819 169.769 166.128 166.472Z" fill="#DAEAF2"/>
<path opacity="0.45" d="M167.503 176.318C167.518 174.721 167.116 173.392 166.603 173.348C166.09 173.303 165.667 174.558 165.652 176.154C165.637 177.75 166.038 179.079 166.551 179.124C167.064 179.168 167.488 177.914 167.503 176.318Z" fill="#DAEAF2"/>
<path d="M83.8222 190.208H76.3953C75.7336 190.208 75.1909 190.743 75.1909 191.411V197.209H85.0191V191.411C85.0265 190.75 84.4838 190.208 83.8222 190.208Z" fill="#514347"/>
<path d="M83.7626 190.208H77.9639C78.4545 192.45 80.209 194.492 82.6921 195.39C83.4727 195.672 84.2533 195.813 85.019 195.836V191.552C85.0265 190.809 84.4615 190.208 83.7626 190.208Z" fill="#7F6B72"/>
<path d="M44.985 87.7537C45.2749 85.8754 44.6876 84.2124 43.684 84.0416C42.6803 83.8709 41.6321 85.2518 41.3422 87.1301C41.0522 89.0084 41.6395 90.6714 42.6432 90.8422C43.6542 91.013 44.7025 89.632 44.985 87.7537Z" fill="#417EA3"/>
<path d="M44.3756 86.7519C44.5169 85.8164 44.2269 84.9923 43.7288 84.9032C43.2307 84.8142 42.7103 85.5046 42.5616 86.4401C42.4204 87.3755 42.7103 88.1996 43.2084 88.2887C43.7065 88.3703 44.2269 87.6873 44.3756 86.7519Z" fill="#E8C792"/>
<path d="M57.7872 88.1248C58.0772 86.2465 57.4899 84.5835 56.4862 84.4127C55.4826 84.242 54.4344 85.6229 54.1444 87.5012C53.8545 89.3795 54.4418 91.0425 55.4454 91.2133C56.4565 91.3841 57.5047 90.0031 57.7872 88.1248Z" fill="#417EA3"/>
<path d="M57.1774 87.123C57.3186 86.1875 57.0287 85.3634 56.5306 85.2743C56.0325 85.1853 55.5121 85.8757 55.3634 86.8112C55.2221 87.7466 55.5121 88.5707 56.0102 88.6598C56.5083 88.7489 57.0287 88.0584 57.1774 87.123Z" fill="#E8C792"/>
<path opacity="0.6" d="M47.3717 67.0846C56.6349 67.879 60.5528 57.641 58.8355 56.7056C58.0102 56.2601 57.1404 55.8963 56.226 55.629C55.9063 55.2504 55.5569 54.8792 55.1778 54.5154C55.2298 53.8472 55.2521 53.2236 55.2447 52.6668L57.0438 47.8708C56.739 47.4995 56.4342 47.1283 56.1071 46.7646C53.1556 43.4014 49.7061 40.5579 46.1005 38.3604C44.4946 40.3129 41.2087 44.5224 38.5472 49.2962H38.5397V49.3036C38.5323 49.3185 38.5249 49.3333 38.5174 49.3407C36.6514 49.5635 34.7631 50.0386 32.8971 50.8107C32.8674 50.8107 32.8451 50.8033 32.8228 50.7959C32.8079 50.7959 32.8004 50.7885 32.7856 50.7885C32.6518 50.7736 32.5179 50.7736 32.3841 50.781C32.3618 50.781 32.3395 50.781 32.3172 50.781C32.1611 50.7885 31.9975 50.8107 31.834 50.8404C32.4287 56.3789 38.2201 66.305 47.3717 67.0846Z" fill="#C94343"/>
<path d="M54.6869 28.2861C46.13 35.5024 43.0299 50.2766 43.3867 52.8305C44.0856 57.8122 53.9435 59.6757 55.3411 58.2354C56.7314 56.8025 61.9131 45.9186 65.1916 42.7262C68.4553 39.5412 67.184 31.8572 64.6563 28.9914C62.1064 26.1034 57.7201 25.7322 54.6869 28.2861Z" fill="#FFB882"/>
<path d="M47.6766 45.3837C53.4828 36.2668 59.0511 31.842 55.3711 25.4794C51.6911 19.1243 46.2715 39.7933 46.2715 39.7933L47.6766 45.3837Z" fill="#6D202B"/>
<path d="M45.9443 45.3765C43.7586 43.7728 43.7957 35.5617 45.6618 34.4258C47.5278 33.2898 49.2823 35.1014 48.7544 39.103C48.2266 43.0824 46.8661 46.0521 45.9443 45.3765Z" fill="#FFB882"/>
<path d="M46.1524 42.9632C44.9109 42.05 44.9258 37.3802 45.9963 36.7268C47.0594 36.0809 48.0556 37.1129 47.7583 39.3847C47.4534 41.6565 46.6803 43.3492 46.1524 42.9632Z" fill="#DB5B3E"/>
<path d="M45.9664 43.9066C45.1709 43.3201 45.1858 40.343 45.8623 39.9272C46.5388 39.5115 47.1782 40.1722 46.9849 41.6274C46.799 43.0751 46.3009 44.1516 45.9664 43.9066Z" fill="#FFB882"/>
<path d="M61.7419 43.0459C62.292 42.1922 62.3366 41.2419 61.846 40.9375C61.3478 40.6331 60.5003 41.0785 59.9502 41.9397C59.4001 42.7935 59.3554 43.7438 59.8461 44.0482C60.3368 44.3526 61.1917 43.9071 61.7419 43.0459Z" fill="#4F3131"/>
<path d="M59.3332 39.7421C60.1807 39.6308 58.9095 49.7722 58.2255 50.7671C57.891 51.2645 54.8354 48.6809 54.8354 48.6809C54.8354 48.6809 59.1771 39.757 59.3332 39.7421Z" fill="#FFB882"/>
<path d="M59.5043 40.1572C59.5266 42.3771 58.7089 49.6899 58.1364 50.514C57.8762 50.8852 55.9284 49.3855 55.1404 48.7173C55.0512 48.9104 54.9917 49.0217 54.9917 49.0217C54.9917 49.0217 58.1587 51.9394 58.4858 51.442C59.1178 50.4769 60.0619 40.8403 59.5043 40.1572Z" fill="#EA7B59"/>
<path d="M57.4001 39.623C57.9576 38.7618 58.0171 37.8189 57.519 37.5145C57.0283 37.2027 56.1734 37.6482 55.6084 38.5094C55.0434 39.3706 54.9913 40.3135 55.482 40.6253C55.9875 40.9297 56.8425 40.4842 57.4001 39.623Z" fill="#4F3131"/>
<path d="M65.2062 40.1721C64.9757 39.6227 61.9574 39.2737 61.2288 39.3183C60.5002 39.3628 60.4036 39.9271 60.4333 40.5284C60.4631 41.1298 63.749 42.6146 64.7898 41.9761C65.2656 41.6866 65.4292 40.7214 65.2062 40.1721Z" fill="#963939"/>
<path d="M59.5342 37.8784C59.3335 36.9355 58.0697 33.6466 57.4452 33.4387C56.843 33.2383 56.0773 33.847 55.8542 34.3073C55.3338 35.3542 57.4675 38.8213 58.2407 38.9103C59.0361 38.992 59.7498 38.8955 59.5342 37.8784Z" fill="#963939"/>
<path d="M50.4269 47.5078C50.4269 47.5078 48.8211 50.7076 49.5943 51.7099C50.4418 52.7938 53.2222 54.9914 54.2333 54.9394C54.3076 54.9394 56.8427 52.4152 56.9245 52.4004C55.6012 51.9475 50.4269 47.5078 50.4269 47.5078Z" fill="#4F3131"/>
<path d="M51.8842 54.8059C51.9883 54.6426 51.7132 54.2788 51.2671 54.0041C50.8211 53.722 50.3824 53.6329 50.2783 53.7962C50.1743 53.9596 50.4493 54.3234 50.8954 54.5981C51.334 54.8802 51.7801 54.9767 51.8842 54.8059Z" fill="#EA7B59"/>
<path d="M50.8133 48.1758C50.8133 48.1758 49.4156 50.9599 50.0921 51.8285C50.8281 52.7714 53.2443 54.6794 54.1215 54.6423C54.181 54.6423 56.3964 52.4447 56.4559 52.4373C55.3185 52.0364 50.8133 48.1758 50.8133 48.1758Z" fill="#FFF5E1"/>
<path d="M51.8171 51.0267L50.5235 50.2174L49.728 50.9227L49.9957 49.2597L50.8134 48.1758L50.7242 49.6161L51.8171 51.0267Z" fill="#4F3131"/>
<path d="M224.77 19.9708C230.152 13.0144 235.259 10.7871 235.259 10.7871C235.259 10.7871 247.147 17.2759 248.165 20.0599C249.184 22.844 246.307 31.4635 246.307 31.4635L224.77 19.9708Z" fill="#387EAD"/>
<path d="M238.605 45.7483C246.218 41.8506 246.686 37.9603 246.686 37.9603L245.668 36.2899L247.712 36.9358C249.065 34.5452 248.708 32.459 247.229 30.5733L239.17 26.1855L238.605 45.7483Z" fill="#591D32"/>
<path d="M205.908 55.3547C205.908 55.3547 196.348 60.5071 186.103 52.9121L181.658 68.3693C196.259 76.7661 207.931 73.1059 207.931 73.1059L205.908 55.3547Z" fill="#FF9566"/>
<path d="M198.273 56.1342C198.273 56.1342 196.482 76.3132 197.077 76.9888C197.671 77.6644 225.201 71.7547 226.754 56.1862C228.323 40.6102 198.273 56.1342 198.273 56.1342Z" fill="#F7DEB0"/>
<path d="M223.134 49.6602C217.662 58.7251 203.076 63.2539 197.604 64.3007C197.173 69.9802 196.742 76.6026 197.084 76.9812C197.679 77.6568 225.208 71.7472 226.762 56.1786C227.141 52.3774 225.624 50.4323 223.134 49.6602Z" fill="#E8C792"/>
<path d="M190.073 76.8479L195.553 55.0207L174.119 44.3076L167.808 57.2554C167.808 57.2554 180.498 71.2649 190.073 76.8479Z" fill="#FFCE55"/>
<path d="M183.375 60.4994L183.145 48.8137L174.119 44.2998L167.808 57.2476C167.808 57.2476 180.505 71.2571 190.081 76.8401L192.75 66.2012C187.367 63.2612 183.375 60.4994 183.375 60.4994Z" fill="#FFB14A"/>
<path d="M212.867 51.272C186.528 92.6025 210.228 195.784 210.228 195.784H210.912L221.439 139.776H222.926L250.537 195.784H251.526C251.526 195.784 239.036 108.527 244.842 88.7716C247.578 79.4542 252.522 67.9987 250.039 61.3243C249.333 59.4089 241.177 51.9624 233.698 49.453C226.249 46.9659 214.592 48.5621 212.867 51.272Z" fill="#5C95B7"/>
<path d="M207.79 75.7043C207.79 74.2715 207.143 73.1133 206.355 73.1133C205.567 73.1133 204.92 74.2715 204.92 75.7043C204.92 77.1372 205.567 78.2954 206.355 78.2954C207.143 78.2954 207.79 77.1372 207.79 75.7043Z" fill="#417EA3"/>
<path d="M206.355 76.5803C206.733 76.5803 207.039 76.0252 207.039 75.3404C207.039 74.6557 206.733 74.1006 206.355 74.1006C205.977 74.1006 205.671 74.6557 205.671 75.3404C205.671 76.0252 205.977 76.5803 206.355 76.5803Z" fill="#E8C792"/>
<path d="M225.134 81.6887C225.134 80.2558 224.487 79.0977 223.699 79.0977C222.904 79.0977 222.264 80.2558 222.264 81.6887C222.264 83.1216 222.911 84.2797 223.699 84.2797C224.494 84.2797 225.134 83.1216 225.134 81.6887Z" fill="#417EA3"/>
<path d="M224.383 81.3248C224.383 80.6418 224.078 80.085 223.699 80.085C223.32 80.085 223.015 80.6418 223.015 81.3248C223.015 82.0078 223.32 82.5646 223.699 82.5646C224.078 82.5646 224.383 82.0078 224.383 81.3248Z" fill="#E8C792"/>
<path d="M240.961 100.679L233.408 84.4796C233.408 84.4796 228.115 90.1145 219.171 89.4983V88.0655L201.842 84.2197C201.136 89.8992 200.727 95.7941 200.541 101.771C205.998 104.97 213.343 108.875 219.164 110.568V105.201C232.888 106.522 240.961 100.679 240.961 100.679Z" fill="#417EA3"/>
<path d="M226.42 86.5364C224.465 97.5391 244.902 172.769 251.265 195.784H251.518C251.518 195.784 239.028 108.527 244.835 88.7711C247.57 79.4537 252.514 67.9982 250.031 61.3238C249.972 61.1531 249.845 60.9452 249.674 60.6928C246.106 55.5849 240.025 59.8019 236.3 64.8058C230.836 72.1557 227.55 80.1368 226.42 86.5364Z" fill="#417EA3"/>
<path d="M224.524 137.362L228.412 134.422L210.852 133.368L218.212 137.778L210.681 195.783H210.904L221.431 139.775H222.911L229.929 154L224.524 137.362Z" fill="#417EA3"/>
<path d="M200.288 110.376L200.444 113.554C215.172 115.677 229.275 118.149 242.805 121.401L242.924 118.097C230.799 112.499 200.288 110.376 200.288 110.376Z" fill="#417EA3"/>
<path d="M144.546 90.7539H140.829V153.11C140.829 153.622 141.245 154.045 141.765 154.045H143.609C144.122 154.045 144.546 153.629 144.546 153.11V90.7539Z" fill="#BC3737"/>
<path d="M144.546 108.066H140.829V153.109C140.829 153.621 141.245 154.045 141.765 154.045H143.609C144.122 154.045 144.546 153.629 144.546 153.109V108.066Z" fill="#E85454"/>
<path d="M153.459 90.7539H149.742V153.11C149.742 153.622 150.159 154.045 150.679 154.045H152.523C153.036 154.045 153.459 153.629 153.459 153.11V90.7539Z" fill="#2D93AA"/>
<path d="M153.459 108.066H149.742V153.109C149.742 153.621 150.159 154.045 150.679 154.045H152.523C153.036 154.045 153.459 153.629 153.459 153.109V108.066Z" fill="#43B4D6"/>
<path d="M166.581 88.0957H162.864V115.172C162.864 119.559 161.994 120.918 157.11 120.918H151.475V124.63H159.087C164.098 124.63 166.581 121.846 166.581 117.77V88.0957Z" fill="#43B4D6"/>
<path d="M166.581 88.0957H162.864V107.859H166.581V88.0957Z" fill="#2D93AA"/>
<path d="M225.639 76.9074C228.494 75.2443 233.862 56.0454 244.798 55.934C241.683 53.4246 237.594 50.7668 233.683 49.4601C228.011 47.5595 219.878 48.0421 215.573 49.5789C210.168 60.5444 208.05 71.2873 209.046 72.5791C210.287 74.1827 222.666 78.6372 225.639 76.9074Z" fill="#F7DEB0"/>
<path d="M209.961 72.0145C208.979 70.7376 211.046 60.1804 216.339 49.3262C216.079 49.4078 215.819 49.4895 215.581 49.5712C210.176 60.5367 208.057 71.2795 209.054 72.5713C210.295 74.1824 222.673 78.6295 225.647 76.8997C225.781 76.818 225.922 76.6918 226.071 76.5433C222.428 77.6569 211.143 73.5439 209.961 72.0145Z" fill="#E8C792"/>
<path d="M240.084 57.2326C241.527 56.4308 243.095 55.9482 244.798 55.9333C244.627 55.7923 244.441 55.6512 244.263 55.5176C242.761 55.77 241.371 56.3714 240.084 57.2326Z" fill="#E8C792"/>
<path d="M230.464 79.127C230.464 79.127 223.038 87.0412 210.905 83.0841L211.596 99.1575C228.108 102.498 238.018 95.3266 238.018 95.3266L230.464 79.127Z" fill="#FFB882"/>
<path d="M230.464 79.127C230.464 79.127 228.405 81.3097 224.695 82.8094L227.974 88.3849L220.458 90.4192L219.104 84.1309C216.696 84.3239 213.945 84.0789 210.897 83.0841L211.588 99.1575C228.1 102.498 238.01 95.3266 238.01 95.3266L230.464 79.127Z" fill="#FF9566"/>
<path d="M216.228 105.216V82.7135L192.981 79.0459L190.527 88.0069C190.527 88.0069 205.582 102.128 216.228 105.216Z" fill="#FFCE55"/>
<path d="M191.367 84.4424L189.613 87.1002C189.613 87.1002 205.574 102.127 216.228 105.215V93.4034C207.165 91.3617 196.073 86.5731 191.367 84.4424Z" fill="#FFB14A"/>
<path d="M241.913 53.7885C239.356 52.0216 236.478 50.3957 233.683 49.4602C228.992 47.8863 222.621 47.9457 218.123 48.8885C216.547 57.0552 220.569 63.7518 241.913 53.7885Z" fill="#FFB882"/>
<path d="M218.904 48.7471C218.644 48.7916 218.376 48.8287 218.131 48.8807C215.7 57.4854 219.692 65.1174 241.92 53.7881C241.623 53.5802 241.318 53.3798 241.013 53.1793C222.435 61.3831 218.056 56.0302 218.904 48.7471Z" fill="#F44E63"/>
<path d="M223.097 43.9882L221.238 48.4131C221.238 48.4131 223.194 53.8179 239.534 52.0584L242.337 31.0479L223.097 43.9882Z" fill="#FFB882"/>
<path d="M172.789 92.6318H135.677V96.6186H172.789V92.6318Z" fill="#563A48"/>
<path d="M176.521 0H133.863C131.558 0 129.685 1.86348 129.685 4.1724V90.5382C129.685 92.8397 131.551 94.7106 133.863 94.7106H176.521C178.825 94.7106 180.699 92.8471 180.699 90.5382V4.1724C180.699 1.86348 178.825 0 176.521 0Z" fill="#F7DEB0"/>
<path d="M169.436 61.6875H159.169V76.1424H169.436V61.6875Z" fill="#E5C693"/>
<path d="M176.067 0H137.818V48.9255C137.818 51.4794 139.892 53.5434 142.442 53.5434H180.692V4.61785C180.699 2.07135 178.625 0 176.067 0Z" fill="#FCE6C3"/>
<path d="M179.451 1.47742V85.0517C179.451 87.6056 177.377 89.6695 174.827 89.6695H139.64C137.083 89.6695 135.016 87.5982 135.016 85.0517V0H134.318C131.76 0 129.693 2.07135 129.693 4.61785V90.0853C129.693 92.6392 131.768 94.7031 134.318 94.7031H176.076C178.634 94.7031 180.7 92.6318 180.7 90.0853V4.61785C180.7 3.40029 180.224 2.3015 179.451 1.47742Z" fill="#E5C693"/>
<path d="M199.761 108.802L199.634 111.519C214.971 113.583 229.743 116.144 243.831 119.307L243.958 116.092C231.334 110.658 199.761 108.802 199.761 108.802Z" fill="#FFCE55"/>
<path d="M220.896 109.811L212.941 108.928V114.785L220.896 115.669V109.811Z" fill="#FFCE55"/>
<path d="M219.313 110.806L214.525 110.271V113.798L219.313 114.325V110.806Z" fill="#F7DEB0"/>
<path d="M229.587 112.262C229.632 112.47 229.677 112.677 229.721 112.885C229.967 114.103 230.16 115.313 230.309 116.508C234.881 117.392 239.393 118.32 243.839 119.315L243.965 116.1C240.337 114.534 235.141 113.271 229.587 112.262Z" fill="#FFAC48"/>
<path d="M201.188 108.898C200.274 108.831 199.761 108.802 199.761 108.802L199.634 111.519C200.192 111.593 200.742 111.675 201.292 111.749C201.233 110.784 201.195 109.834 201.188 108.898Z" fill="#FFAC48"/>
<path d="M250.403 117.332L240.62 114.362C240.62 114.362 239.631 137.979 244.21 138.84C248.79 139.716 250.775 130.443 250.403 117.332Z" fill="#FFAC48"/>
<path d="M245.073 110.851C243.348 110.821 243.868 114.021 244.009 118.097H245.69C246.217 113.665 246.797 110.88 245.073 110.851Z" fill="#723F4A"/>
<path d="M249.437 109.744C247.712 109.7 248.232 114.021 248.374 119.515H250.054C250.582 113.538 251.162 109.789 249.437 109.744Z" fill="#E23754"/>
<path d="M246.537 116.753L241.936 115.491C241.936 115.491 241.467 129.991 243.623 130.258C245.779 130.525 246.708 124.742 246.537 116.753Z" fill="#FFCE55"/>
<path d="M250.864 117.993L247.407 117.117C247.407 117.117 246.708 130.711 248.515 130.963C250.329 131.216 250.842 125.484 250.864 117.993Z" fill="#FFCE55"/>
<path d="M211.96 197.639H201.805C201.805 197.639 208.377 194.158 209.826 193.994C212.079 193.742 211.96 197.639 211.96 197.639Z" fill="#F7DEB0"/>
<path d="M248.329 197.639H258.945C258.945 197.639 252.076 192.517 250.552 192.279C248.202 191.908 248.329 197.639 248.329 197.639Z" fill="#F7DEB0"/>
<path d="M226.628 79.87C226.628 79.87 238.263 102.373 239.132 102.618C240.002 102.863 257.748 78.994 250.693 65.029C243.638 51.0567 226.628 79.87 226.628 79.87Z" fill="#F7DEB0"/>
<path d="M250.693 65.0287C249.541 62.7495 248.121 61.6136 246.56 61.3018C248.745 72.9429 238.672 87.9101 233.892 93.649C236.434 98.3708 238.761 102.514 239.133 102.617C240.003 102.87 257.748 79.0011 250.693 65.0287Z" fill="#E8C792"/>
<path opacity="0.6" d="M241.014 41.368C237.022 40.6405 232.843 40.1653 229.178 39.9277L223.134 43.9591L221.253 48.3691C221.015 48.3913 220.785 48.421 220.555 48.4433C220.175 48.4878 219.811 48.5398 219.447 48.5918C219.439 48.5918 219.432 48.5918 219.424 48.5992C218.703 48.7106 218.012 48.8442 217.373 49.0001C216.971 49.0966 216.599 49.2006 216.235 49.3119C212.317 54.1302 213.247 62.5419 217.536 63.4625C233.505 66.8924 235.817 56.5134 243.497 54.9989C243.475 54.984 243.452 54.9692 243.43 54.9469C243.17 54.7539 242.902 54.5534 242.634 54.3604C242.471 54.2416 242.315 54.1302 242.151 54.0114C241.884 53.8184 241.609 53.6328 241.333 53.4472C241.162 53.3284 240.992 53.2096 240.813 53.0983C240.568 52.9349 240.322 52.7864 240.07 52.6305C240.003 52.586 239.928 52.5415 239.861 52.4969C239.72 52.4078 239.572 52.3187 239.43 52.2296C239.371 52.1925 239.319 52.1554 239.259 52.1257C239.349 52.1183 239.438 52.1108 239.534 52.1034L241.014 41.368Z" fill="#C94343"/>
<path d="M219.685 36.5564C218.265 28.7238 221.157 21.8564 221.157 21.8564L227.171 22.2054L219.685 36.5564Z" fill="#591D32"/>
<path d="M235.267 10.7871C235.267 10.7871 230.159 13.0144 224.777 19.9708L234.709 25.2717C235.371 24.9896 236.032 24.6555 236.687 24.2695C240.552 21.9977 243.013 18.5825 243.244 15.6351C239.586 13.148 235.267 10.7871 235.267 10.7871Z" fill="#4F8EC1"/>
<path d="M216.852 45.0647C219.796 47.6928 230.159 48.064 233.037 46.7648C235.914 45.4656 243.065 31.3744 242.783 28.865C242.508 26.3631 228.487 20.498 225.788 19.8669C222.42 19.0874 217.164 39.0807 216.852 45.0647Z" fill="#FFB882"/>
<path d="M237.118 25.0713L234.895 38.0488L237.304 38.7912L242.597 34.3441L242.85 28.1895L237.118 25.0713Z" fill="#591D32"/>
<path d="M237.386 36.601C239.229 34.0025 242.835 33.6016 243.08 36.356C243.326 39.1103 239.698 40.4912 237.876 40.6546C236.07 40.8105 236.813 37.4102 237.386 36.601Z" fill="#FFB882"/>
<path d="M238.56 36.9205C239.653 35.3762 241.794 35.1461 241.936 36.7794C242.084 38.4127 239.928 39.2294 238.85 39.3259C237.78 39.415 238.219 37.403 238.56 36.9205Z" fill="#DB5B3E"/>
<path d="M238.345 37.9743C239.163 36.8236 240.754 36.6454 240.865 37.8704C240.977 39.088 239.371 39.6967 238.568 39.771C237.758 39.8378 238.092 38.3307 238.345 37.9743Z" fill="#FFB882"/>
<path d="M222.108 30.0305C222.435 29.1099 223.119 28.5308 223.632 28.7461C224.138 28.954 224.279 29.882 223.944 30.8026C223.61 31.7232 222.933 32.2949 222.428 32.087C221.915 31.8717 221.773 30.9585 222.108 30.0305Z" fill="#4F3131"/>
<path d="M227.342 29.5553C226.762 28.9614 223.03 35.9401 223.03 37.0241C223.03 37.5735 226.457 38.4272 226.457 38.4272C226.457 38.4272 227.446 29.6667 227.342 29.5553Z" fill="#FFB882"/>
<path d="M227.015 29.7119C225.959 31.078 223.194 36.0373 223.208 36.9505C223.216 37.3663 225.29 37.9825 226.204 38.2126C226.182 38.4057 226.167 38.517 226.167 38.517C226.167 38.517 222.547 37.7672 222.554 37.2252C222.577 36.2081 226.286 29.7862 227.015 29.7119Z" fill="#EA7B59"/>
<path d="M229.475 31.1738C229.736 30.2235 230.368 29.5925 230.888 29.7632C231.416 29.9266 231.624 30.8323 231.371 31.7826C231.118 32.7329 230.486 33.364 229.959 33.2006C229.438 33.0299 229.223 32.1241 229.475 31.1738Z" fill="#4F3131"/>
<path d="M229.074 24.6409C229.773 24.1583 233.088 26.1554 233.78 26.7939C234.471 27.4249 234.077 28.1896 233.527 28.8801C232.977 29.578 228.42 28.7316 227.929 27.1428C227.706 26.4152 228.375 25.1234 229.074 24.6409Z" fill="#591D32"/>
<path d="M225.691 26.6974C224.829 27.7665 221.825 27.3433 221.625 26.6529C221.416 25.9253 221.35 25.1606 222.13 24.8117C222.903 24.4701 226.048 23.7871 226.331 24.3959C226.606 24.9676 226.093 26.2 225.691 26.6974Z" fill="#591D32"/>
<path d="M223.536 41.6872C223.588 41.5165 224.138 41.4942 224.77 41.6427C225.402 41.7912 225.877 42.051 225.825 42.2218C225.773 42.3925 225.223 42.4148 224.591 42.2663C223.959 42.1178 223.484 41.858 223.536 41.6872Z" fill="#EA7B59"/>
<path d="M228.702 40.3733C228.747 40.1728 228.777 40.0466 228.777 40.0466C226.294 40.5737 224.703 40.7593 221.142 39.7051C221.149 39.7199 221.179 39.8833 221.216 40.1283C223.179 40.9449 227.446 41.2196 228.702 40.3733Z" fill="#EA7B59"/>
<path opacity="0.6" d="M242.85 28.1899L242.04 27.7444C239.066 24.9306 228.145 20.4241 225.796 19.8748C225.06 19.704 224.227 20.5281 223.379 21.9906L221.164 21.8644C221.164 21.8644 219.818 25.0865 219.417 29.6227C230.427 29.4668 240.493 33.9585 246.151 37.0841L245.668 36.2897L247.712 36.9356C249.065 34.545 248.708 32.4588 247.229 30.573L242.85 28.1899Z" fill="#C94343"/>
<path d="M216.636 13.1107C213.276 14.0239 212.711 19.4435 220.703 23.1556C223.335 20.4978 231.944 23.4971 242.136 27.7586C242.136 27.7586 225.833 10.6087 216.636 13.1107Z" fill="#34688C"/>
<path d="M216.22 14.1582C223.394 12.2056 234.902 22.2208 239.608 26.7125C240.441 27.054 241.281 27.3955 242.143 27.7519C242.143 27.7519 225.981 10.3941 216.785 12.8961C215.603 13.2153 214.629 14.3141 214.391 15.4797C214.785 14.8486 215.424 14.3735 216.22 14.1582Z" fill="#6BA1BF"/>
<path d="M147.906 122.588C147.906 124.986 149.854 126.931 152.255 126.931C154.657 126.931 156.604 124.986 156.604 122.588C156.604 120.19 154.657 118.245 152.255 118.245C149.854 118.253 147.906 120.19 147.906 122.588Z" fill="#563A48"/>
<path d="M152.255 125.284C153.746 125.284 154.954 124.077 154.954 122.589C154.954 121.1 153.746 119.894 152.255 119.894C150.765 119.894 149.557 121.1 149.557 122.589C149.557 124.077 150.765 125.284 152.255 125.284Z" fill="#F7DEB0"/>
<path d="M152.255 121.438C153.475 121.438 154.493 122.254 154.828 123.361C154.902 123.116 154.954 122.863 154.954 122.589C154.954 121.104 153.742 119.894 152.255 119.894C150.768 119.894 149.557 121.104 149.557 122.589C149.557 122.856 149.609 123.116 149.683 123.361C150.018 122.247 151.036 121.438 152.255 121.438Z" fill="#E2BC7F"/>
<path d="M151.408 122.589C151.408 123.056 151.787 123.435 152.255 123.435C152.724 123.435 153.103 123.056 153.103 122.589C153.103 122.121 152.724 121.742 152.255 121.742C151.787 121.742 151.408 122.121 151.408 122.589Z" fill="#563A48"/>
<path d="M176.365 18.9693V2.86623C176.313 2.82169 176.253 2.79199 176.194 2.79199H172.439V18.9619H176.365V18.9693Z" fill="#FFF1DC"/>
<path d="M172.439 29.5117V62.7202C172.439 64.8955 172.848 66.6624 173.354 66.6624H175.458C175.963 66.6624 176.372 64.8955 176.372 62.7202V29.5117H172.439Z" fill="#FFF1DC"/>
<path d="M132.205 40.5289V24.4258C132.182 24.3813 132.16 24.3516 132.13 24.3516H130.517V40.5215H132.205V40.5289Z" fill="#F7DEB0"/>
<path d="M130.524 51.0713V84.2798C130.524 86.455 130.703 88.222 130.918 88.222H131.818C132.034 88.222 132.212 86.455 132.212 84.2798V51.0713H130.524Z" fill="#F7DEB0"/>
<path d="M168.796 61.7617H159.823V74.9248H168.796V61.7617Z" fill="#E85454"/>
<path d="M166.796 61.7617H163.577L161.815 74.9174H165.034L166.796 61.7617Z" fill="#FF6161"/>
<path d="M161.92 71.0274C161.92 72.4305 162.99 73.5664 164.306 73.5664C165.622 73.5664 166.693 72.4305 166.693 71.0274C166.693 69.6242 165.622 68.4883 164.306 68.4883C162.99 68.4883 161.92 69.6316 161.92 71.0274Z" fill="#563A48"/>
<path d="M167.741 62.7422H160.872V67.0853H167.741V62.7422Z" fill="#563A48"/>
<path d="M162.455 71.027C162.455 72.1109 163.288 72.9944 164.306 72.9944C165.332 72.9944 166.157 72.1109 166.157 71.027C166.157 69.9431 165.325 69.0596 164.306 69.0596C163.288 69.0596 162.455 69.9431 162.455 71.027Z" fill="#F7DEB0"/>
<path d="M167.258 63.1572H161.362V66.654H167.258V63.1572Z" fill="#83C4DD"/>
<path d="M176.069 0H134.31C131.827 0 129.805 1.95257 129.693 4.40998C130.489 3.75665 131.515 3.36316 132.63 3.36316H174.389C176.946 3.36316 179.013 5.43452 179.013 7.98102V93.4484C179.013 93.5227 179.005 93.5895 179.005 93.6637C180.039 92.8174 180.7 91.533 180.7 90.0927V4.61785C180.7 2.07135 178.626 0 176.069 0Z" fill="#FCE6C3"/>
<path d="M189.724 76.7217L187.917 88.0584C188.081 88.0213 188.245 87.9916 188.408 87.9693C192.646 87.4051 196.296 84.7398 197.612 80.6714L197.857 79.9141C197.857 79.9141 192.073 79.5429 189.724 76.7217Z" fill="#FFCE55"/>
<path d="M191.464 79.3198C190.988 78.6813 190.631 77.0554 189.903 75.4814C188.319 72.0515 186.178 67.9088 185.509 67.8939C184.528 67.8716 183.621 68.9184 183.584 69.5124C183.546 70.1137 186.022 76.1942 185.286 76.5654C184.059 77.1816 181.39 75.912 180.796 76.261C179.487 77.0183 180.833 83.8559 181.435 85.6749C182.045 87.5161 186.803 89.0529 190.222 87.4418C191.442 86.8553 191.464 79.3198 191.464 79.3198Z" fill="#FFCE55"/>
<path d="M183.732 76.7511C181.933 76.3725 179.428 75.9567 178.885 75.6152C178.335 75.2663 175.212 73.1949 174.766 73.336C174.32 73.477 172.915 74.457 173.465 75.1549C174.023 75.8528 177.554 78.1172 178.506 78.3696C179.457 78.622 182.446 79.6688 182.751 79.5352C183.063 79.4016 184.736 76.959 183.732 76.7511Z" fill="#FFCE55"/>
<path d="M183.301 80.5971C181.427 80.4709 178.825 80.4189 178.238 80.1442C177.643 79.8696 174.231 78.2065 173.785 78.4144C173.339 78.6223 171.978 79.825 172.618 80.4635C173.257 81.102 177.101 82.8838 178.104 83.0026C179.1 83.1214 182.253 83.745 182.557 83.5668C182.855 83.396 184.334 80.6714 183.301 80.5971Z" fill="#FFCE55"/>
<path d="M186.624 84.6575C184.736 84.806 182.126 85.1401 181.502 84.9545C180.87 84.7614 177.227 83.581 176.811 83.8557C176.387 84.1378 175.197 85.5633 175.918 86.1201C176.647 86.6695 180.743 87.9167 181.762 87.887C182.78 87.8573 186.007 88.0207 186.289 87.7905C186.564 87.5678 187.672 84.5758 186.624 84.6575Z" fill="#FFCE55"/>
<path d="M0 197.603L150.679 210.513L313 197.603H0Z" fill="#FFBF4D"/>
</svg>
