<svg width="313" height="195" viewBox="0 0 313 195" fill="none" xmlns="http://www.w3.org/2000/svg">
<path d="M171.302 79.2578L173.815 88.4143C175.814 86.8648 178.573 87.7322 179.546 87.8286L178.528 78.8945C178.528 78.8945 174.03 80.585 171.302 79.2578Z" fill="#FFBF4D"/>
<path d="M173.495 80.629C172.915 80.3102 172.089 79.2129 171.004 78.2713C168.632 76.225 165.607 73.8376 165.094 74.0526C164.343 74.364 164.016 75.4687 164.194 75.9284C164.373 76.3881 168.32 80.1322 167.889 80.6586C167.175 81.5409 164.729 81.4964 164.395 81.9561C163.666 82.9718 167.019 87.665 168.097 88.829C169.183 90.0079 173.301 89.5482 175.331 87.1683C176.059 86.3156 173.495 80.629 173.495 80.629Z" fill="#FFBF4D"/>
<path d="M166.789 81.3256C165.302 81.6518 163.273 82.193 162.745 82.1189C162.217 82.0448 159.146 81.548 158.857 81.8075C158.567 82.067 157.845 83.2829 158.5 83.6166C159.161 83.9576 162.596 84.4544 163.406 84.3209C164.209 84.1875 166.819 83.9576 167.012 83.75C167.19 83.5498 167.614 81.1402 166.789 81.3256Z" fill="#FFBF4D"/>
<path d="M166.834 83.9732C165.376 84.5144 163.399 85.3596 162.856 85.3596C162.314 85.3522 159.169 85.2632 158.909 85.5746C158.641 85.886 158.031 87.2502 158.73 87.5171C159.429 87.7766 162.945 87.8137 163.741 87.5616C164.536 87.3095 167.124 86.709 167.295 86.4717C167.451 86.2271 167.636 83.6766 166.834 83.9732Z" fill="#FFBF4D"/>
<path d="M169.443 86.6717C167.993 87.2722 166.031 88.2064 165.488 88.2212C164.945 88.2361 161.771 88.2435 161.511 88.5697C161.25 88.8959 160.678 90.3269 161.392 90.5789C162.105 90.8236 165.652 90.7495 166.447 90.4677C167.235 90.186 169.822 89.4816 169.986 89.2296C170.149 88.9775 170.246 86.338 169.443 86.6717Z" fill="#FFBF4D"/>
<path d="M191.702 77.6041C196.304 76.2695 199.909 74.0378 202.4 70.7979L216.19 90.5788C210.823 92.1432 205.656 93.1367 200.965 92.8105L191.702 77.6041Z" fill="#FF9566"/>
<path d="M196.556 75.6545L201.864 82.1493L203.596 81.0668L199.664 73.5859C198.72 74.3496 197.686 75.0465 196.556 75.6545Z" fill="#FFB882"/>
<path d="M192.72 73.8379C201.953 80.9777 203.076 96.1694 203.076 96.1694C203.076 96.1694 185.129 94.39 173.019 89.3409L172.707 79.2947L192.72 73.8379Z" fill="#FFBF4D"/>
<path d="M198.34 80.5693C193.285 81.118 173.019 89.3403 173.019 89.3403C185.13 94.3968 203.076 96.1687 203.076 96.1687C203.076 96.1687 202.459 87.8575 198.34 80.5693Z" fill="#FFA33E"/>
<path d="M228.204 44.5221C223.446 41.8604 209.127 59.6915 199.901 70.9165L215.692 93.5298C234.337 73.2149 232.962 47.1764 228.204 44.5221Z" fill="#F7DEB0"/>
<path d="M228.204 44.5221C226.345 43.4841 223.037 45.5749 219.141 49.1634C219.067 52.8779 218.524 57.1336 217.469 61.5747C215.201 71.0945 211.224 78.7978 207.447 81.7264L215.692 93.5372C234.337 73.2149 232.962 47.1764 228.204 44.5221Z" fill="#E8C792"/>
<path d="M288.117 181.455H289.314L275.322 134.538C275.322 134.538 270.602 93.2334 271.672 83.4245C272.75 73.6155 267.546 48.1479 264.855 45.6641C259.16 40.4149 246.715 35.4326 243.124 36.0257C239.534 36.6188 222.695 43.4176 220.717 49.564C215.528 65.7343 227.356 88.5625 228.256 105.044C228.3 105.904 225.029 138.905 225.029 138.905L226.464 181.922H227.542L235.199 146.237L249.726 122.72L258.937 145.288L288.117 181.455Z" fill="#5C95B7"/>
<path d="M232.56 119.494L256.424 111.353L255.599 108.788L263.316 100.417L265.888 101.678L268.713 90.9198L261.643 78.8125L228.196 99.1718L232.56 119.494Z" fill="#417EA3"/>
<path d="M267.874 58.624C269.948 71.4579 270.922 90.8608 268.119 90.9201C265.316 90.9794 257.027 74.9352 257.027 72.5923C257.027 70.242 267.874 58.624 267.874 58.624Z" fill="#417EA3"/>
<path d="M266.58 56.125C268.654 68.9589 269.628 88.3618 266.825 88.4211C264.023 88.4804 255.733 72.4362 255.733 70.0933C255.726 67.743 266.58 56.125 266.58 56.125Z" fill="#E8C792"/>
<path d="M237.051 147.097L247.935 125.714L258.32 146.125L288.117 181.461H289.061C282.199 171.43 260.298 144.783 260.298 144.783L251.763 122.052L254.73 117.774L248.544 119.36L237.162 118.285L229.988 109.707V145.755L226.799 181.928H227.527L237.051 147.097Z" fill="#417EA3"/>
<path d="M217.974 182.84H228.538C228.538 182.84 229.207 179.786 227.111 178.859C225.014 177.94 217.974 182.84 217.974 182.84Z" fill="#F2E0AD"/>
<path d="M293.663 182.841H285.671C285.671 182.841 285.307 179.171 286.935 178.051C288.556 176.946 293.663 182.841 293.663 182.841Z" fill="#F2E0AD"/>
<path d="M240.255 84.4551C239.802 82.9574 238.813 81.9342 238.04 82.1641C237.267 82.3939 237.006 83.7952 237.46 85.2929C237.913 86.7905 238.902 87.8137 239.675 87.5838C240.441 87.354 240.709 85.9527 240.255 84.4551Z" fill="#417EA3"/>
<path d="M239.222 84.3883C238.962 83.5357 238.404 82.95 237.958 83.0834C237.519 83.2169 237.371 84.0102 237.624 84.8628C237.884 85.7154 238.441 86.3011 238.887 86.1677C239.326 86.0417 239.475 85.2409 239.222 84.3883Z" fill="#E8C792"/>
<path d="M258.157 41.1118C252.358 37.9015 245.615 35.6179 243.132 36.0331C239.928 36.5669 226.16 42.0979 221.848 47.6956C220.361 57.7418 222.123 72.0215 224.859 80.8295L244.716 81.6673C239.579 57.6009 253.183 44.8634 258.157 41.1118Z" fill="#F7DEB0"/>
<path d="M243.125 36.0331C240.642 36.4483 231.825 39.8588 225.974 43.9737C225.305 50.1867 227.349 54.4128 235.044 54.1459C243.088 53.8716 249.414 43.4695 252.098 38.2277C248.254 36.6633 244.768 35.7588 243.125 36.0331Z" fill="#FF7694"/>
<path d="M225.684 79.6281C222.977 70.8943 221.23 56.7999 222.643 46.7686C222.353 47.0725 222.078 47.3839 221.84 47.6879C220.353 57.7341 221.951 72.4661 224.68 81.2741L244.701 81.6596C244.611 81.237 244.537 80.8292 244.463 80.414L225.684 79.6281Z" fill="#E8C792"/>
<path d="M250.358 37.5523L238.359 22.8574L225.446 27.6247C225.446 27.6247 225.899 39.2205 226.167 43.0091C226.375 45.96 228.078 51.2388 235.497 50.7643C243.771 50.2379 250.358 37.5523 250.358 37.5523Z" fill="#FFB882"/>
<path opacity="0.6" d="M259.941 42.1568C259.012 41.5933 258.045 41.0447 257.056 40.5257C257.049 40.5257 257.049 40.5183 257.041 40.5183C256.692 40.3403 256.35 40.1624 256.001 39.9844C255.964 39.9696 255.934 39.9474 255.897 39.9325C255.183 39.5767 254.462 39.243 253.748 38.9242C253.711 38.9094 253.674 38.8946 253.637 38.8723C253.302 38.724 252.975 38.5832 252.648 38.4497C252.618 38.4423 252.596 38.4275 252.566 38.4201C252.209 38.2718 251.852 38.1235 251.503 37.99C251.495 37.99 251.488 37.9826 251.488 37.9826C251.161 37.8566 250.841 37.7305 250.522 37.6193C250.462 37.5971 250.41 37.5748 250.351 37.56L238.426 22.9541L229.378 28.7446C227.832 32.9632 226.732 37.0781 226.033 40.9483C226.078 41.7638 226.122 42.4756 226.159 43.0242C226.174 43.2615 226.204 43.521 226.248 43.7805C226.003 43.951 225.765 44.1215 225.527 44.2995C223.892 57.5931 227.468 67.0684 235.192 65.6226C244.938 63.7839 246.73 46.2791 259.941 42.1568Z" fill="#C94343"/>
<path d="M221.468 32.3403C214.74 31.7397 214.369 22.5832 214.369 22.5832C214.369 22.5832 211.008 20.7 211.93 15.8438C212.852 10.9578 219.275 10.6464 219.275 10.6464C219.275 10.6464 217.655 8.11821 222.427 6.15345C227.386 4.10714 230.613 6.56123 230.613 6.56123C230.613 6.56123 237.095 2.9357 239.72 8.3777C242.389 13.9309 221.468 32.3403 221.468 32.3403Z" fill="#A88476"/>
<path d="M239.705 8.37058C237.081 2.936 230.598 6.55411 230.598 6.55411C230.598 6.55411 228.955 5.31594 226.219 5.33819C228.613 6.38358 230.338 8.1704 230.806 10.4391C231.735 14.9395 227.379 19.6327 221.082 20.9228C217.818 21.59 214.681 21.2045 212.28 20.0627C213.038 21.8347 214.369 22.5835 214.369 22.5835C214.369 22.5835 214.741 31.74 221.469 32.3406C221.469 32.3406 242.389 13.9312 239.705 8.37058Z" fill="#895F52"/>
<path d="M217.796 17.4229C215.707 27.8472 222.583 43.0092 225.565 45.5597C228.546 48.1101 237.571 47.2353 240.998 41.8155C243.511 37.8489 242.173 31.3319 240.359 26.1271C238.552 20.9224 235.616 14.4276 231.951 12.9596C228.761 11.6918 218.643 13.1746 217.796 17.4229Z" fill="#FFB882"/>
<path d="M227.989 42.4019C227.989 41.9348 227.379 41.5566 226.628 41.5566C225.877 41.5566 225.268 41.9348 225.268 42.4019C225.268 42.8689 225.899 43.1655 226.628 42.8319C227.171 42.5872 227.989 42.8689 227.989 42.4019Z" fill="#FF9566"/>
<path d="M223.676 42.2275L228.054 40.2107C228.054 40.2107 228.702 42.7249 226.891 43.4921C225.152 44.2391 223.676 42.2275 223.676 42.2275Z" fill="#491D2E"/>
<path d="M224.021 42.1847L227.74 40.4771C227.74 40.4771 228.508 41.3682 226.411 42.3794C224.199 43.441 224.021 42.1847 224.021 42.1847Z" fill="#FFEBEB"/>
<path d="M246.649 33.0303C248.961 26.2464 246.084 22.6283 246.084 22.6283C246.084 22.6283 248.225 17.4309 245.4 14.4134C242.575 11.3958 241.46 12.4041 241.46 12.4041C241.46 12.4041 242.434 7.54785 238.293 7.54785C233.929 7.54785 229.148 11.2327 229.832 16.0964C230.546 21.1825 233.929 22.4652 233.929 22.4652C233.929 22.4652 232.702 29.1157 236.211 32.1258C242.263 30.4502 246.649 33.0303 246.649 33.0303Z" fill="#A88476"/>
<path d="M246.76 22.25C246.76 22.25 248.7 16.9192 245.883 13.909C243.058 10.8915 241.868 11.8256 241.868 11.8256C241.868 11.8256 242.448 7.5625 238.307 7.5625C238.077 7.5625 237.839 7.57733 237.608 7.59957C238.664 9.00085 239.311 10.9137 239.311 13.0342C239.311 17.3121 236.664 20.7745 233.408 20.7745C232.717 20.7745 232.055 20.6114 231.438 20.3223C232.613 21.9682 233.951 22.4724 233.951 22.4724C233.951 22.4724 232.724 29.1229 236.233 32.133C242.285 30.4574 246.664 33.0376 246.664 33.0376C248.961 26.2462 246.76 22.25 246.76 22.25Z" fill="#895F52"/>
<path d="M236.672 27.5212C237.623 23.0356 241.11 22.3535 242.656 25.0671C244.203 27.7732 240.991 34.3348 238.478 33.6379C237.14 33.2671 236.478 28.4479 236.672 27.5212Z" fill="#FFB882"/>
<path d="M221.967 45.4934C220.286 39.8586 221.855 36.2627 224.42 35.6696C226.992 35.0765 234.033 38.6353 235.698 44.752C235.698 44.752 230.367 43.2024 225.171 39.7474L221.967 45.4934Z" fill="#A88476"/>
<path d="M237.854 27.9287C238.411 25.304 240.448 24.9037 241.355 26.4903C242.262 28.0769 240.381 31.9101 238.917 31.5023C238.129 31.2873 237.742 28.4699 237.854 27.9287Z" fill="#DB5B3E"/>
<path d="M238.352 29.471C238.738 27.6175 240.18 27.3357 240.812 28.4553C241.452 29.5748 240.128 32.281 239.095 31.9918C238.545 31.8435 238.27 29.8565 238.352 29.471Z" fill="#FFB882"/>
<path d="M222.085 24.9035C222.397 23.9656 227.93 23.5179 229.292 23.6321C230.653 23.7389 230.948 24.7221 231.01 25.7547C231.072 26.7872 225.268 29.1709 223.215 28.0345C222.273 27.5062 221.771 25.834 222.085 24.9035Z" fill="#A88476"/>
<path d="M221.439 28.507C221.409 30.3605 218.212 30.8573 217.588 30.0121C216.963 29.1668 216.45 28.2549 216.874 27.5357C217.305 26.8166 219.595 24.6145 220.301 25.2077C221.007 25.8082 221.453 27.6618 221.439 28.507Z" fill="#A88476"/>
<path d="M226.91 29.3079C226.854 29.1523 226.672 29.0837 226.516 29.1393L225.139 29.6304C225.042 29.6651 224.986 29.7749 225.022 29.8714C225.431 30.8946 226.189 31.5989 226.709 31.4506C227.23 31.2949 227.319 30.3311 226.91 29.3079Z" fill="#4F3131"/>
<path d="M219.974 31.5029C220.242 32.6224 220.874 33.4009 221.394 33.2526C221.892 33.1117 222.1 32.1479 221.877 31.0654L219.974 31.5029Z" fill="#4F3131"/>
<path d="M222.219 29.1523C221.372 33.2598 221.283 36.4775 222.048 36.9965C223.461 37.953 225.803 35.9289 225.803 35.9289L222.219 29.1523Z" fill="#FF9566"/>
<path d="M222.725 28.9004C221.885 32.8225 221.781 35.8994 222.517 36.3961C223.87 37.3006 226.115 35.3359 226.115 35.3359L222.725 28.9004Z" fill="#FFB882"/>
<path d="M235.727 88.3624C235.75 86.798 235.118 85.5228 234.308 85.5079C233.505 85.4931 232.828 86.7535 232.806 88.3179C232.783 89.8823 233.415 91.1575 234.226 91.1724C235.029 91.1798 235.705 89.9268 235.727 88.3624Z" fill="#417EA3"/>
<path d="M234.761 87.9841C234.776 87.0944 234.412 86.3678 233.951 86.3604C233.49 86.353 233.111 87.0722 233.096 87.9619C233.081 88.8516 233.445 89.5782 233.906 89.5856C234.359 89.593 234.746 88.8738 234.761 87.9841Z" fill="#E8C792"/>
<path d="M182.706 76.0993L181.739 75.7953L183.754 69.4413C184.155 68.1809 185.62 67.5211 187.025 67.9659L190.653 69.1077C192.058 69.5526 192.868 70.9316 192.474 72.192L191.463 75.3727L190.497 75.0687L191.508 71.888C191.753 71.1095 191.248 70.2495 190.378 69.9752L186.75 68.8334C185.88 68.5591 184.973 68.9668 184.728 69.7527L182.706 76.0993Z" fill="#ED4854"/>
<path d="M190.4 83.1495L188.884 82.6676L192.4 71.576C193.099 69.3814 195.456 68.158 197.656 68.855L203.344 70.6492C205.544 71.3461 206.771 73.6964 206.072 75.891L204.31 81.4368L202.793 80.9549L204.555 75.4091C204.987 74.0523 204.228 72.5917 202.868 72.1617L197.181 70.3675C195.82 69.9374 194.355 70.6937 193.924 72.0505L190.4 83.1495Z" fill="#ED4854"/>
<path d="M206.273 89.6664C204.541 95.1232 207.774 100.691 213.447 102.485C219.201 104.302 225.907 101.751 228.539 96.4133C231.386 90.6302 228.36 83.9871 221.654 82.052C215.053 80.1466 208.146 83.7647 206.273 89.6664Z" fill="#7A6651"/>
<path d="M209.38 89.8517C207.574 95.5458 210.741 101.633 216.45 103.434C222.16 105.236 228.264 102.078 230.07 96.3836C231.877 90.6895 228.71 84.6025 223 82.8008C217.283 80.9918 211.187 84.1502 209.38 89.8517Z" fill="#9B8B78"/>
<path d="M210.847 173.438L132.363 148.669L130.234 155.377L208.718 180.146L210.847 173.438Z" fill="#56323B"/>
<path d="M198.586 74.8088L170.313 65.8821C168.484 65.3038 166.522 66.3196 165.942 68.1434L163.801 74.8903L198.712 85.9078L200.853 79.1609C201.433 77.337 200.422 75.3871 198.586 74.8088Z" fill="#7A6651"/>
<path d="M207.507 77.6262L179.234 68.6995C177.405 68.1212 175.443 69.1369 174.863 70.9608L172.722 77.7077L207.633 88.7252L209.774 81.9783C210.354 80.1544 209.343 78.2045 207.507 77.6262Z" fill="#9B8B78"/>
<path d="M173.665 70.7597L171.574 77.3477L207.63 88.7265L209.721 82.1385L173.665 70.7597Z" fill="#7A6651"/>
<path d="M180.892 74.6233L157.875 67.3574L129.246 153.08L155.623 161.406L180.892 74.6233Z" fill="#E5D2B7"/>
<path d="M180.892 74.6233L157.875 67.3574L168.291 83.6315L155.623 161.406L180.892 74.6233Z" fill="#D8BE9E"/>
<path d="M161.57 154.77L154.716 152.605L150.694 164.387L155.221 165.818L161.57 154.77Z" fill="#FFEED2"/>
<path d="M208.184 169.487L215.038 171.645L211.789 183.671L207.262 182.247L208.184 169.487Z" fill="#FFEED2"/>
<path d="M138.881 147.608L132.026 145.443L127.291 157.002L131.818 158.433L138.881 147.608Z" fill="#E5D2B7"/>
<path d="M180.126 160.628L173.272 158.463L168.536 170.022L173.064 171.453L180.126 160.628Z" fill="#56323B"/>
<path d="M237.267 92.4178L178.305 73.8008L152.181 160.606L212.733 179.72L237.267 92.4178Z" fill="#FFEED2"/>
<path d="M230.018 90.1264L212.302 84.5361L160.306 163.178L187.114 171.638L230.018 90.1264Z" fill="#FFF3E1"/>
<path d="M203.633 87.8945C202.972 89.9705 203.752 92.0761 205.38 92.5877C207.001 93.0992 208.86 91.8314 209.514 89.748C210.176 87.6647 209.395 85.5664 207.767 85.0549C206.146 84.5507 204.288 85.8185 203.633 87.8945Z" fill="#C1A787"/>
<path d="M204.444 86.9823C203.975 88.4503 204.793 90.0221 206.265 90.4892C207.737 90.9563 209.313 90.1407 209.781 88.6727C210.25 87.2047 209.432 85.6329 207.96 85.1658C206.488 84.6987 204.912 85.5143 204.444 86.9823Z" fill="#E5D2B7"/>
<path d="M205.276 87.2417C204.867 88.5317 205.581 89.9033 206.875 90.3111C208.168 90.7189 209.544 90.0072 209.953 88.7171C210.361 87.427 209.648 86.0554 208.354 85.6476C207.068 85.2473 205.685 85.959 205.276 87.2417Z" fill="#F4E2C9"/>
<path d="M208.302 85.8115C207.566 85.5816 206.8 85.7744 206.265 86.2563C206.429 86.9532 206.942 87.5538 207.67 87.7836C208.406 88.0135 209.172 87.8207 209.707 87.3388C209.551 86.6493 209.038 86.0487 208.302 85.8115Z" fill="#FFF1DC"/>
<path d="M193.612 84.7362C192.95 86.8196 193.731 88.9178 195.359 89.4293C196.98 89.9409 198.838 88.6731 199.492 86.5897C200.154 84.5138 199.373 82.4081 197.745 81.8966C196.117 81.385 194.266 82.6528 193.612 84.7362Z" fill="#C1A787"/>
<path d="M194.422 83.8173C193.954 85.2853 194.771 86.8571 196.243 87.3242C197.715 87.7913 199.292 86.9757 199.76 85.5077C200.228 84.0397 199.411 82.4679 197.939 82.0008C196.467 81.5337 194.89 82.3493 194.422 83.8173Z" fill="#E5D2B7"/>
<path d="M195.255 84.084C194.846 85.374 195.56 86.7456 196.853 87.1534C198.147 87.5612 199.522 86.8494 199.931 85.5594C200.34 84.2693 199.626 82.8977 198.333 82.4899C197.039 82.0821 195.664 82.7939 195.255 84.084Z" fill="#F4E2C9"/>
<path d="M198.281 82.6523C197.545 82.4224 196.779 82.6152 196.244 83.0971C196.407 83.7941 196.92 84.3946 197.649 84.6245C198.385 84.8543 199.15 84.6615 199.686 84.1796C199.53 83.4827 199.017 82.8821 198.281 82.6523Z" fill="#FFF1DC"/>
<path d="M210.265 89.993C209.604 92.0764 210.384 94.1746 212.012 94.6862C213.633 95.1978 215.492 93.9299 216.146 91.8466C216.807 89.7706 216.027 87.665 214.399 87.1534C212.778 86.6418 210.927 87.9096 210.265 89.993Z" fill="#C1A787"/>
<path d="M211.075 89.0741C210.607 90.5421 211.425 92.1139 212.897 92.581C214.369 93.0481 215.945 92.2325 216.413 90.7645C216.882 89.2965 216.064 87.7247 214.592 87.2576C213.12 86.7905 211.544 87.6061 211.075 89.0741Z" fill="#E5D2B7"/>
<path d="M211.916 89.3408C211.507 90.6309 212.22 92.0025 213.514 92.4103C214.807 92.818 216.183 92.1063 216.592 90.8162C217.001 89.5261 216.287 88.1545 214.993 87.7467C213.7 87.339 212.324 88.0507 211.916 89.3408Z" fill="#F4E2C9"/>
<path d="M214.934 87.9091C214.198 87.6793 213.432 87.8721 212.897 88.354C213.061 89.0509 213.574 89.6515 214.302 89.8813C215.038 90.1111 215.804 89.9184 216.339 89.4364C216.183 88.7395 215.67 88.139 214.934 87.9091Z" fill="#FFF1DC"/>
<path d="M229.322 92.0152L219.527 88.9238L217.941 93.9214L227.737 97.0127L229.322 92.0152Z" fill="#C1A787"/>
<path d="M228.936 92.227L219.729 89.3213L218.332 93.7251L227.539 96.6307L228.936 92.227Z" fill="#56323B"/>
<path d="M227.747 92.5644L219.674 90.0166L218.69 93.1197L226.763 95.6675L227.747 92.5644Z" fill="#80CBD8"/>
<path d="M189.07 80.1695L178.974 76.9814L178.788 77.5746C178.476 78.5532 179.018 79.5986 180 79.91L186.542 81.9786C187.523 82.29 188.572 81.7488 188.884 80.7701L189.07 80.1695Z" fill="#C1A787"/>
<path d="M187.211 78.6794L179.242 76.166L179.056 76.7591C178.744 77.7378 179.286 78.7832 180.268 79.0946L184.684 80.4885C185.665 80.7999 186.713 80.2586 187.026 79.28L187.211 78.6794Z" fill="#FFEED2"/>
<path opacity="0.6" d="M219.3 138.571C223.881 121.13 216.675 104.139 203.206 100.62C189.737 97.1017 175.105 108.388 170.524 125.83C165.943 143.271 173.148 160.262 186.617 163.781C200.086 167.3 214.719 156.013 219.3 138.571Z" fill="#CC7D7D"/>
<path d="M217.414 134.676C221.432 119.294 214.997 104.306 203.042 101.2C191.086 98.094 178.137 108.046 174.119 123.428C170.101 138.81 176.535 153.798 188.491 156.904C200.446 160.011 213.395 150.059 217.414 134.676Z" fill="#E5D2B7"/>
<path d="M219.556 134.662C223.431 119.56 216.87 104.841 204.901 101.787C192.932 98.7322 180.087 108.499 176.212 123.601C172.338 138.703 178.899 153.422 190.868 156.477C202.837 159.531 215.681 149.764 219.556 134.662Z" fill="#FFF1DC"/>
<path d="M203.753 140.009C191.969 136.287 185.984 121.155 190.386 106.2C190.653 105.288 190.958 104.399 191.285 103.531C184.728 106.868 179.13 113.622 176.55 122.408C172.149 137.362 178.134 152.494 189.917 156.216C200.987 159.708 213.224 151.894 218.324 138.548C213.707 140.884 208.615 141.544 203.753 140.009Z" fill="#F4E2C9"/>
<path d="M214.745 133.522C217.504 122.768 212.831 112.286 204.306 110.111C195.782 107.935 186.635 114.89 183.875 125.644C181.116 136.399 185.789 146.881 194.314 149.056C202.838 151.231 211.985 144.277 214.745 133.522Z" fill="#C1A584"/>
<path d="M211.098 141.515C209.21 140.617 207.15 139.794 204.95 139.105C196.036 136.295 187.732 136.391 184.245 139.016C185.881 143.768 189.174 147.461 193.627 148.869C199.924 150.849 206.756 147.698 211.098 141.515Z" fill="#DDC2A8"/>
<path d="M209.983 132.437C212.717 122.532 209.225 112.935 202.183 111.002C195.141 109.069 187.216 115.531 184.482 125.436C181.748 135.341 185.24 144.937 192.282 146.871C199.324 148.804 207.249 142.342 209.983 132.437Z" fill="#56323B"/>
<path d="M208.498 132.011C211.024 122.86 207.796 113.994 201.288 112.207C194.781 110.421 187.457 116.39 184.931 125.541C182.406 134.692 185.633 143.559 192.141 145.345C198.649 147.132 205.972 141.162 208.498 132.011Z" fill="#619CAA"/>
<path d="M201.143 113.748C198.058 112.776 194.72 113.866 191.954 116.372C192.304 121.414 194.749 125.551 198.608 126.767C201.693 127.738 205.031 126.648 207.797 124.142C207.447 119.101 205.009 114.964 201.143 113.748Z" fill="#4D8993"/>
<path d="M204.221 138.727C196.46 136.28 189.122 136.376 185.331 138.608C186.617 141.856 188.854 144.31 191.836 145.244C196.512 146.719 201.694 144.087 205.217 139.053C204.883 138.942 204.556 138.831 204.221 138.727Z" fill="#80CBD8"/>
<path d="M234.132 103.604L172.339 84.1035L172.093 84.8811L233.885 104.382L234.132 103.604Z" fill="#D8BE9E"/>
<path d="M193.376 78.5588L192.079 78.1494L188.384 89.7915L189.682 90.2009L193.376 78.5588Z" fill="#D8BE9E"/>
<path d="M203.999 81.9025L202.702 81.4932L199.008 93.1353L200.305 93.5446L203.999 81.9025Z" fill="#D8BE9E"/>
<path d="M131.833 47.6364C132.725 36.3298 131.945 27.1733 137.052 23.1029C142.159 19.0325 151.935 20.2781 153.601 24.3485C153.601 24.3485 166.343 24.7637 152.768 45.857C148.151 55.4954 131.833 47.6364 131.833 47.6364Z" fill="#AA4F3D"/>
<path d="M147.341 27.1588C142.799 25.2237 138.977 25.2756 138.345 22.2432C137.892 22.5027 137.453 22.7844 137.052 23.1032C131.945 27.1736 132.718 36.3301 131.833 47.6367C131.833 47.6367 148.159 55.4957 152.768 45.8499C157.519 38.4654 159.043 33.6239 159.02 30.4358C156.508 32.4599 152.211 29.2347 147.341 27.1588Z" fill="#8C3425"/>
<path d="M139.089 105.104C138.806 112.659 137.639 134.293 139.297 133.648C139.929 133.403 140.479 133.233 140.948 133.122C143.319 132.58 145.259 130.905 146.01 128.592C149.177 118.842 154.612 101.278 154.515 96.0138C154.381 88.5996 139.089 105.104 139.089 105.104Z" fill="#FFB882"/>
<path d="M144.947 131.869C144.947 131.869 154.664 103.42 154.522 96.0063C154.381 88.5921 139.089 105.103 139.089 105.103C139.022 106.95 138.925 109.53 138.829 112.384C150.627 102.212 144.947 131.869 144.947 131.869Z" fill="#FF9566"/>
<path d="M149.891 59.6329C156.336 65.0898 162.172 74.6763 154.463 97.8975L137.847 105.912C137.847 105.912 135.022 99.5063 135.58 97.1264C136.145 94.7539 144.441 55.0139 149.891 59.6329Z" fill="#F7DEB0"/>
<path d="M146.278 89.2969C143.81 88.778 143.534 79.4361 144.471 71.1396C140.271 81.349 135.914 95.725 135.58 97.1337C135.022 99.5137 137.847 105.92 137.847 105.92L154.463 97.9048C156.641 91.3358 157.808 86.4277 158.24 82.5204C154.879 87.0949 149.831 90.0458 146.278 89.2969Z" fill="#E8C792"/>
<path d="M138.249 108.395C136.286 107.417 137.713 105.148 137.059 104.896C134.955 104.088 135.275 102.219 135.446 101.33C135.795 99.5132 155.229 86.8498 157.682 87.8952C160.135 88.948 155.645 100.87 154.879 101.782C154.099 102.694 139.698 109.115 138.249 108.395Z" fill="#EAC18B"/>
<path d="M139.55 107.572C137.929 106.764 139.111 104.888 138.561 104.681C136.821 104.013 137.089 102.464 137.23 101.73C137.52 100.225 153.586 89.7558 155.615 90.6232C157.645 91.4907 153.935 101.352 153.296 102.1C152.656 102.857 140.746 108.165 139.55 107.572Z" fill="#F7D7A9"/>
<path d="M157.675 87.8956C156.619 87.4433 152.396 89.5415 147.913 92.2254C150.419 91.3951 152.337 91.3802 152.783 92.3663C153.4 93.7379 150.991 96.5405 147.274 98.9353C150.263 97.8231 152.664 97.5266 153.028 98.3125C153.474 99.2763 150.679 101.515 146.783 103.31C142.888 105.104 139.371 105.779 138.918 104.815C138.613 104.162 139.803 102.924 141.802 101.641C139.252 102.501 137.297 102.531 136.844 101.53C136.591 100.974 136.844 100.173 137.483 99.2689C136.271 100.24 135.498 100.989 135.431 101.337C135.26 102.227 134.941 104.103 137.044 104.904C137.706 105.156 136.271 107.424 138.234 108.403C139.684 109.122 154.084 102.702 154.857 101.79C155.645 100.87 160.135 88.9484 157.675 87.8956Z" fill="#EAC18B"/>
<path d="M128.51 113.808L94.6165 104.185L37.7959 182.345H38.9185L103.315 129.244H111.455L126.606 140.388C126.606 140.388 115.239 180.558 115.239 180.973L116.644 180.558L136.985 137.496L128.51 113.808Z" fill="#5C95B7"/>
<path d="M127.521 117.545L97.0846 108.618L94.4082 113.052C107.21 116.544 119.388 119.435 127.521 117.545Z" fill="#417EA3"/>
<path d="M129.298 112.911L120.391 113.119L133.513 136.837L116.25 180.669L116.645 180.551L137.52 137.341L129.298 112.911Z" fill="#417EA3"/>
<path d="M110.392 128.941L99.6049 128.096L37.8926 182.345H38.9185L103.515 130.157L111.931 129.593L110.392 128.941Z" fill="#417EA3"/>
<path d="M143.155 90.0385C136.286 95.0801 130.049 110.45 129.692 114.06C129.328 117.671 128.287 117.137 126.465 117.278C124.644 117.419 97.7094 115.321 94.4755 110.279C91.249 105.245 100.928 90.1349 106.958 83.5585C112.987 76.9821 108.779 59.3513 117.336 56.2744C125.893 53.1975 144.977 54.5691 149.883 59.633C154.099 63.9703 155.363 81.0896 143.155 90.0385Z" fill="#5C95B7"/>
<path d="M125.744 54.7539C120.808 73.1114 118.191 74.824 122.525 78.1085C126.867 81.393 142.724 84.6775 145.869 82.4384C149.014 80.1993 150.954 63.1912 149.014 59.4545C147.066 55.7252 125.744 54.7539 125.744 54.7539Z" fill="#F7DEB0"/>
<path d="M151.021 77.3078C147.311 83.7211 135.736 80.1178 126.413 74.7499C119.031 70.5016 114.645 63.6287 114.987 57.7715C109.589 63.0652 112.34 77.6933 106.965 83.5579C105.307 85.367 103.374 87.8137 101.508 90.5273C114.117 93.2112 130.725 98.1416 128.8 104.866C126.599 112.562 106.385 116.84 94.416 110.16C94.4383 110.197 94.4532 110.242 94.4829 110.279C97.7094 115.313 124.644 117.411 126.473 117.278C128.294 117.137 129.335 117.671 129.699 114.06C130.064 110.449 138.122 95.5986 144.992 90.5569C154.181 83.8026 152.381 74.9501 151.021 77.3078Z" fill="#417EA3"/>
<path d="M98.7428 68.7961C102.534 61.3449 108.028 54.1532 123.291 54.9836C123.291 54.9836 117.284 69.545 124.25 70.1974C125.216 70.2864 133.431 70.924 131.097 72.5625C127.655 74.9721 122.481 83.4688 123.321 87.9766C123.477 88.8144 85.6361 94.5826 98.7428 68.7961Z" fill="#F7DEB0"/>
<path d="M124.257 70.1981C121.93 69.9831 121.053 68.2111 120.919 65.9424C120.206 72.667 112.147 83.6548 108.177 83.6548C104.192 83.6548 98.423 79.6734 96.3935 75.084C92.2451 93.8938 123.804 90.6316 123.663 89.8679C122.822 85.3527 127.67 74.9654 131.112 72.5558C133.439 70.9247 125.216 70.2871 124.257 70.1981Z" fill="#E8C792"/>
<path d="M126.25 54.7316L135.617 39.1396L150.032 44.5965L147.289 57.8382L135.721 64.9484L126.25 54.7316Z" fill="#FFB882"/>
<path d="M41.3422 183.671H31.291C31.291 183.671 38.6436 180.224 39.5282 180.224C40.9556 180.231 41.3422 183.671 41.3422 183.671Z" fill="#FFEAC0"/>
<path d="M113.738 183.671H123.001C123.001 183.671 117.031 179.764 116.221 179.764C114.912 179.771 113.738 183.671 113.738 183.671Z" fill="#FFEAC0"/>
<path d="M118.087 127.019L111.931 129.592L104.378 129.733L95.3525 126.597L110.392 128.472L118.087 127.019Z" fill="#417EA3"/>
<path d="M113.857 117.048L109.01 115.98L108.333 119.05L113.597 119.473L113.857 117.048Z" fill="#417EA3"/>
<path d="M112.615 117.026L109.441 116.321L108.995 118.338L112.444 118.612L112.615 117.026Z" fill="#EAC18B"/>
<path opacity="0.6" d="M134.271 73.6233C143.46 75.6919 149.266 69.679 150.53 60.1889C150.322 59.9961 150.106 59.8107 149.891 59.6328C149.244 58.9729 148.359 58.3724 147.281 57.8386L149.601 46.6728C149.363 45.7387 149.058 44.8712 148.686 44.0927L135.617 39.1475L126.25 54.7469C125.231 54.8062 124.242 54.8877 123.291 54.9989C122.02 54.9322 120.823 54.9174 119.678 54.9545C122.042 64.2741 123.975 71.3101 134.271 73.6233Z" fill="#843131"/>
<path d="M132.428 55.2951C133.833 57.6677 145.557 61.953 146.716 61.3228C147.876 60.6926 155.295 35.262 154.344 31.6884C153.4 28.1222 141.051 23.644 138.353 29.5828C136.412 33.8682 131.06 52.9893 132.428 55.2951Z" fill="#FFB882"/>
<path d="M137.907 25.8092C142.301 24.4153 139.498 31.0139 135.721 47.2213L132.458 43.7589C132.458 43.7589 134.376 26.9287 137.907 25.8092Z" fill="#8C3425"/>
<path d="M133.089 46.9024C130.993 45.4715 128.673 41.5123 130.071 38.4354C131.476 35.3585 134.212 39.2065 134.769 41.5864C135.334 43.9664 134.635 47.9552 133.089 46.9024Z" fill="#FFB882"/>
<path d="M123.045 88.1622C131.342 90.9128 155.206 90.5273 159.645 88.3253L159.637 74.5201C155.719 79.6507 145.623 72.5257 132.197 74.8241C129.201 75.3431 118.272 86.5756 123.045 88.1622Z" fill="#FFB882"/>
<path d="M153.683 87.628C142.382 90.4899 132.056 88.8884 130.621 84.047C129.707 80.9775 132.591 77.3372 137.706 74.3567C134.956 74.2529 132.859 74.1861 132.13 74.2084C129.075 74.3122 116.801 87.8134 121.574 89.4C129.87 92.1507 155.207 90.5195 159.645 88.3175L160.15 85.4779C158.165 86.3083 155.995 87.0423 153.683 87.628Z" fill="#FF9566"/>
<path d="M132.428 72.088C130.249 75.3799 125.202 86.642 124.503 91.046C123.804 95.4501 120.503 91.3945 119.522 91.5354C118.54 91.6762 113.842 93.211 110.333 90.4826C108.296 88.9033 119.381 71.8063 127.937 69.8489C129.625 69.4634 133.26 70.8202 132.428 72.088Z" fill="#F7D7A9"/>
<path d="M127.937 69.8489C126.881 70.0936 125.796 70.5607 124.696 71.2057C125.112 71.1538 125.454 71.228 125.699 71.4282C126.205 71.8359 126.272 72.7256 125.96 73.9045C126.175 73.8081 126.368 73.7784 126.532 73.8378C127.588 74.2529 127.097 78.0193 125.439 82.2603C123.781 86.5012 121.581 89.6003 120.525 89.1925C119.581 88.8218 119.878 85.7672 121.135 82.0897C117.7 86.1527 114.035 88.5697 112.749 87.5391C111.968 86.9163 112.243 85.1666 113.284 82.9498C110.838 86.6494 109.507 89.8449 110.333 90.4826C113.842 93.211 118.54 91.6688 119.521 91.5354C120.503 91.3945 123.804 95.4501 124.502 91.046C125.201 86.642 130.249 75.3799 132.427 72.088C133.26 70.8202 129.625 69.4634 127.937 69.8489Z" fill="#EAC18B"/>
<path d="M157.422 76.0919C159.868 73.8158 163.645 69.1004 163.972 67.2394C164.299 65.3784 166.18 60.2404 167.942 60.4777C169.696 60.7149 169.77 61.5824 169.77 61.5824C169.77 61.5824 162.143 87.3466 159.006 87.2576C155.876 87.1687 157.422 76.0919 157.422 76.0919Z" fill="#FFB882"/>
<path d="M156.611 86.7834C156.864 88.0661 158.842 88.2959 159.645 88.3182C162.774 88.4071 164.425 78.917 164.425 78.917C164.425 78.917 160.864 85.1968 156.611 86.7834Z" fill="#FF9566"/>
<path d="M164.641 67.9065C165.845 66.4459 172.305 66.483 172.737 67.1355C173.168 67.7879 173.368 70.4718 172.357 70.8055C171.346 71.1465 165.592 72.5182 164.953 73.4375C164.313 74.3569 162.648 70.3236 164.641 67.9065Z" fill="#FFB882"/>
<path d="M163.072 74.8167C164.276 73.3561 170.737 73.3932 171.168 74.0456C171.599 74.6981 171.8 77.382 170.789 77.7231C169.778 78.0641 164.023 79.4357 163.384 80.3551C162.752 81.2744 161.079 77.2411 163.072 74.8167Z" fill="#FFB882"/>
<path d="M132.792 45.0785C131.506 44.2037 130.078 41.7718 130.941 39.8812C131.803 37.9906 133.483 40.3557 133.825 41.8163C134.167 43.2769 133.736 45.7236 132.792 45.0785Z" fill="#EA7B59"/>
<path d="M132.941 45.4566C132.145 44.9154 131.26 43.4103 131.796 42.2389C132.331 41.0674 133.372 42.528 133.58 43.4325C133.796 44.3371 133.528 45.857 132.941 45.4566Z" fill="#FFB882"/>
<path d="M147.92 40.4372L139.795 38.4131L138.323 44.2554L145.504 46.0497L147.92 40.4372Z" fill="#FFF9DE"/>
<path d="M139.981 38.4431L132.77 36.4932L132.606 37.1382L139.312 40.3189L139.981 38.4431Z" fill="#FFF9DE"/>
<path d="M148.5 40.6006L155.295 42.2836L153.199 47.9851L147.75 46.6283L148.5 40.6006Z" fill="#FFF9DE"/>
<path d="M148.887 41.3115L154.522 42.7054L152.79 47.4356L148.27 46.3087L148.887 41.3115Z" fill="#FFB882"/>
<path d="M148.181 42.3135L147.333 42.4247L144.962 52.7155C144.962 52.7155 149.37 52.5302 149.415 52.2633C149.452 51.989 148.181 42.3135 148.181 42.3135Z" fill="#FFB882"/>
<path d="M148.218 41.7637L148.018 41.7933C148.181 43.721 148.754 51.7135 148.716 51.9507C148.687 52.1509 146.3 52.2992 145.036 52.3659L144.955 52.7144C144.955 52.7144 149.363 52.529 149.408 52.2621C149.452 51.9878 148.218 41.7637 148.218 41.7637Z" fill="#EA7B59"/>
<path d="M147.14 40.8449L140.159 39.1025L138.94 43.9811L145.103 45.5158L147.14 40.8449Z" fill="#FFB882"/>
<path d="M145.995 39.9329C144.843 39.629 140.813 37.8866 140.813 37.8866C140.813 37.8866 140.598 35.6476 141.401 35.2324C142.204 34.8246 146.159 37.6642 146.434 37.9311C146.701 38.198 145.995 39.9329 145.995 39.9329Z" fill="#7F4442"/>
<path d="M148.813 40.4519C149.861 40.7114 153.697 41.0525 153.697 41.0525C153.697 41.0525 154.478 39.3027 153.913 38.6132C153.348 37.9237 149.274 38.5168 148.976 38.6132C148.679 38.717 148.813 40.4519 148.813 40.4519Z" fill="#7F4442"/>
<path d="M147.371 40.3037L148.835 40.667L148.56 42.2981L147.036 41.92L147.371 40.3037Z" fill="#FFF9DE"/>
<path d="M149.831 42.2012L151.771 42.6831C151.771 42.6831 151.34 44.633 150.337 44.3884C149.333 44.1437 149.831 42.2012 149.831 42.2012Z" fill="#492E2E"/>
<path d="M142.353 40.0889L143.929 40.5115C143.929 40.5115 143.341 42.3798 142.524 42.1574C141.706 41.9498 142.353 40.0889 142.353 40.0889Z" fill="#492E2E"/>
<path d="M138.271 51.9962C138.227 51.6329 139.438 50.3725 139.81 50.5059C141.438 51.0842 144.865 53.7237 145.312 53.998V54.1611C143.2 54.1166 138.546 54.1537 138.271 51.9962Z" fill="#492D26"/>
<path d="M143.564 54.9463C143.579 54.8351 143.178 54.6794 142.657 54.6052C142.137 54.5311 141.706 54.5608 141.691 54.672C141.676 54.7832 142.077 54.9389 142.598 55.013C143.118 55.0872 143.549 55.0575 143.564 54.9463Z" fill="#EA7B59"/>
<path d="M138.591 52.0701C138.554 51.7513 139.617 50.6392 139.951 50.7578C141.386 51.2694 144.419 53.5975 144.806 53.8421V53.983C142.947 53.9385 138.829 53.9682 138.591 52.0701Z" fill="#FFF9DE"/>
<path opacity="0.55" d="M152.277 42.2012L154.27 42.6831L150.582 46.7683L148.991 46.3679L152.277 42.2012Z" fill="#FFF7DB"/>
<path opacity="0.55" d="M143.586 40.0664L145.579 40.5557L141.884 44.6335L140.3 44.2406L143.586 40.0664Z" fill="#FFF7DB"/>
<path d="M142.129 126.931C141.683 126.509 140.932 126.664 140.702 127.243C139.877 129.319 137.624 132.514 136.435 134.412C135.713 135.569 134.583 139.105 135.565 141.374C137.267 145.296 140.523 144.532 139.014 143.228C137.899 142.264 137.356 140.47 140.999 139.869C141.757 139.743 142.226 138.216 141.854 136.866C141.453 135.42 143.995 135.079 145.579 130.186L142.129 126.931Z" fill="#FFB882"/>
<path d="M137.788 140.684C139.156 142.582 139.245 143.198 140.144 144.073C141.044 144.955 142.88 146.379 143.349 146.89C143.876 147.454 142.836 149.255 142.263 148.959C141.408 148.521 139.252 146.675 138.442 145.978C137.922 145.533 136.858 143.806 135.877 142.004C134.844 140.114 135.981 138.178 137.788 140.684Z" fill="#FFB882"/>
<path d="M139.104 135.161C140.256 134.634 142.352 137.526 142.791 137.607C143.237 137.696 144.635 136.592 145.311 136.77C145.995 136.947 146.568 138.23 146.337 138.482C146.107 138.727 143.943 139.958 143.222 140.039C142.501 140.121 140.836 139.505 139.713 140.247C137.691 141.589 135.699 136.725 139.104 135.161Z" fill="#FFB882"/>
<path d="M139.713 139.358C140.412 140.025 141.17 140.937 141.943 141.293C142.717 141.649 143.958 139.766 144.501 139.766C145.043 139.766 146.121 140.818 145.884 141.404C145.638 141.99 143.051 143.621 142.546 143.799C142.04 143.977 138.486 142.516 137.654 141.493C136.702 140.314 138.174 137.882 139.713 139.358Z" fill="#FFB882"/>
<path d="M234.382 86.5007C237.638 83.802 239.995 80.7992 242.076 76.8623L263.13 89.674C257.235 95.4348 250.916 99.95 243.638 101.655L234.382 86.5007Z" fill="#FF9566"/>
<path d="M237.787 83.2016L249.704 95.3237L256.908 91.4165C250.737 86.4193 244.968 82.4602 239.95 80.3916C239.281 81.3777 238.56 82.3193 237.787 83.2016Z" fill="#FFB882"/>
<path d="M260.573 44.3589C255.287 42.7203 241.593 65.9118 239.794 76.3362L262.142 92.6103C275.345 68.922 265.859 45.9974 260.573 44.3589Z" fill="#F7DEB0"/>
<path d="M260.573 44.3585C260.179 44.2399 259.74 44.2695 259.257 44.403C261.48 54.0933 261.413 69.8187 253.674 86.4487L262.134 92.6099C275.345 68.9216 265.859 45.997 260.573 44.3585Z" fill="#E8C792"/>
<path d="M234.865 82.9424C245.08 88.2361 249.763 102.857 249.763 102.857C249.763 102.857 231.297 103.739 217.721 101.767L216.25 93.0479L234.865 82.9424Z" fill="#FFBF4D"/>
<path d="M245.243 93.374C239.987 94.4713 218.123 102.182 218.123 102.182C231.698 104.154 249.763 102.857 249.763 102.857C249.763 102.857 248.298 98.3119 245.243 93.374Z" fill="#FFA33E"/>
<path d="M214.54 102.123C212.726 103.087 210.726 103.525 209.514 104.763C209.068 105.222 209.953 107.209 210.979 107.135C212.004 107.061 213.714 106.238 213.997 106.016C214.279 105.793 215.179 101.79 214.54 102.123Z" fill="#FFA33E"/>
<path d="M208.02 104.362C208.198 105.015 209.529 106.876 210.882 107.135C211.38 107.232 212.554 105.489 211.937 105.052C210.964 104.355 209.811 102.946 209.544 102.857C209.276 102.768 207.849 103.725 208.02 104.362Z" fill="#FFA33E"/>
<path d="M220.658 100.677C219.602 101.188 218.688 101.945 218.264 103.124C217.937 104.028 214.472 105.815 213.84 105.926C213.157 106.045 211.521 106.445 209.707 103.479C208.109 100.862 207.871 99.9058 209.216 98.9272C210.562 97.9485 210.517 93.3295 210.896 92.766C211.789 91.4166 213.796 93.0626 216.948 92.7141C225.282 91.7799 226.68 97.778 220.658 100.677Z" fill="#FFBF4D"/>
<path d="M216.963 93.3669C216.146 92.6848 210.087 91.8099 208.882 92.2622C207.67 92.7145 204.541 92.6403 203.797 92.7145C203.054 92.7886 202.964 94.7459 203.641 94.872C204.31 94.998 208.235 95.0944 209.046 95.4354C210.666 96.1101 209.774 97.9488 209.678 98.6087C210.927 98.883 219.253 95.2797 216.963 93.3669Z" fill="#FFBF4D"/>
<path d="M211.001 98.1931C209.246 98.6899 207.172 99.8094 206.622 99.5129C206.072 99.2163 202.615 96.473 202.213 96.6584C201.812 96.8363 200.622 97.9188 201.21 98.5638C201.797 99.2015 205.492 101.789 206.406 101.967C207.321 102.145 209.648 102.004 209.938 101.856C210.22 101.707 211.61 98.0226 211.001 98.1931Z" fill="#FFBF4D"/>
<path d="M212.696 101.53C210.703 102.101 208.644 102.116 207.194 103.072C206.659 103.428 207.127 105.534 208.153 105.675C209.179 105.808 211.038 105.363 211.365 105.2C211.684 105.037 213.394 101.33 212.696 101.53Z" fill="#FFBF4D"/>
<path d="M205.046 102.093C205.165 102.783 206.481 105 208.049 105.682C208.629 105.934 210.28 104.622 209.603 103.999C208.547 103.02 207.38 101.293 207.068 101.122C206.771 100.944 204.934 101.426 205.046 102.093Z" fill="#FFBF4D"/>
<path d="M222.843 100.551C221.535 101.084 217.639 101.255 217.045 102.449C216.591 103.361 211.513 105.311 210.703 105.466C211.729 106.178 213.498 106.319 213.93 106.245C214.562 106.134 218.137 104.087 218.465 103.19C218.888 102.011 220.516 102.471 222.316 102.664C224.672 102.908 224.895 99.7054 222.843 100.551Z" fill="#FFA33E"/>
<path d="M73.5028 72.9411C76.4766 75.4916 80.9371 70.3313 77.5025 67.6252C74.5511 65.3045 69.6072 69.5973 73.5028 72.9411Z" fill="#FF9566"/>
<path d="M64.7677 31.9104C64.4629 28.2034 60.7903 25.9346 57.0955 26.7724C53.8615 27.5064 51.7725 30.4054 52.0773 33.2969C52.3747 36.1662 54.9618 38.4794 58.2106 38.4868C61.9129 38.5016 65.0725 35.573 64.7677 31.9104Z" fill="#6D2D38"/>
<path d="M66.879 16.4817C66.6931 14.1166 65.1394 12.1963 63.4146 12.1963C61.6898 12.1889 60.4409 14.1018 60.6267 16.4669C60.8126 18.832 62.3664 20.7523 64.0911 20.7523C65.8233 20.7597 67.0648 18.8468 66.879 16.4817Z" fill="#6D2D38"/>
<path d="M40.5986 19.1955C39.3942 13.1085 38.4724 9.43108 39.6767 7.44409C40.8811 5.45709 51.1256 -1.50481 56.4188 0.296829C59.5413 1.35705 62.3068 9.85369 62.3068 9.85369L40.5986 19.1955Z" fill="#4F8EC1"/>
<path d="M56.4188 0.29671C54.0844 -0.496606 50.7836 0.415337 47.7206 1.85369C46.7839 3.08444 46.2412 4.51537 46.2412 6.06493C46.2412 9.66822 49.1703 12.7154 53.222 13.7683L62.3068 9.86099C62.3142 9.84616 59.5412 1.35694 56.4188 0.29671Z" fill="#6BADDB"/>
<path d="M57.4671 3.21785C56.8501 1.83882 55.5565 0.90463 54.5826 1.11964C53.6013 1.33465 53.3113 2.62472 53.9284 4.00375C54.5454 5.38279 55.839 6.31697 56.8129 6.10196C57.7942 5.87954 58.0842 4.58947 57.4671 3.21785Z" fill="#A2D6F4"/>
<path d="M62.292 44.3291C71.2578 51.9583 76.2239 60.0323 76.2239 60.0323L68.1279 68.5957L62.292 44.3291Z" fill="#E8C792"/>
<path d="M58.4113 182.878H60.1137C60.1137 182.878 76.4916 118.931 74.7891 95.7245L62.0244 59.0911L47.9735 55.6436C52.2334 90.7422 43.6467 87.3614 41.3049 98.4752C38.9482 109.648 58.4113 182.878 58.4113 182.878Z" fill="#5C95B7"/>
<path d="M62.8496 108.996L56.8799 106.023L61.9798 111.724C61.9798 111.724 59.7421 180.557 59.4893 181.173H60.4855L64.0912 111.598L70.8044 105.771L62.8496 108.996Z" fill="#417EA3"/>
<path d="M53.9579 132.617C51.5938 100.499 54.3593 92.2769 63.5333 88.2214C66.9679 86.7015 70.8189 87.5245 73.4804 92.314L62.0241 59.0911L47.9732 55.6436C52.2331 90.7422 42.6131 87.1538 40.2713 98.2676C37.9146 109.441 58.4036 182.878 58.4036 182.878H60.1061C60.1135 182.878 54.798 144.065 53.9579 132.617Z" fill="#417EA3"/>
<path d="M45.9512 87.2794C55.757 84.0913 60.7901 71.3464 69.2355 79.9913L62.0316 59.0833L47.9807 55.6357C50.3077 74.8829 48.4714 82.4973 45.9512 87.2794Z" fill="#2F6E8E"/>
<path d="M42.2265 45.0269C41.5872 48.7414 48.6126 72.2072 50.3151 73.3713C52.0175 74.5427 72.566 71.8884 73.4135 70.717C74.2685 69.5455 72.6032 55.1917 62.8717 44.2855C60.8495 42.0167 55.98 39.4589 51.5864 39.9334C46.7466 40.4598 42.5462 43.1734 42.2265 45.0269Z" fill="#5C95B7"/>
<path d="M54.6421 71.5396C53.0586 70.4497 45.6689 48.2295 45.1262 42.0312C43.4832 42.9951 42.3829 44.1146 42.2268 45.0192C41.5874 48.7337 48.3973 73.282 50.0997 74.446C51.594 75.4691 67.7711 72.4738 72.2689 71.1986C65.801 72.2736 55.7944 72.3255 54.6421 71.5396Z" fill="#417EA3"/>
<path d="M46.5534 80.9779C41.2601 70.4201 36.5468 48.6373 41.7285 46.3018C43.3492 45.5678 48.687 69.3006 50.3895 73.7639C52.0919 78.2198 50.8876 89.6154 46.5534 80.9779Z" fill="#FF9566"/>
<path d="M41.6615 76.8775L50.1069 68.24C50.1069 68.24 46.531 46.7537 42.5759 44.3145C38.4127 47.4803 35.6248 56.2809 41.6615 76.8775Z" fill="#F7DEB0"/>
<path d="M42.2936 44.5449C38.2865 47.8887 35.7662 56.7486 41.6617 76.8707L47.2746 71.1321C40.5837 57.0749 40.2863 48.9638 42.2936 44.5449Z" fill="#E8C792"/>
<path d="M67.9273 57.3345C66.6338 53.7163 64.6042 48.5116 62.2847 44.33C60.0098 42.2318 55.6012 40.1336 51.5941 40.571C48.4048 40.9195 45.498 42.217 43.7881 43.5886C47.8918 48.2669 50.6574 56.2668 51.9287 60.5596C52.4342 62.2575 54.0846 63.3548 55.8466 63.1694L64.8421 62.213C67.2136 61.9609 68.7302 59.5735 67.9273 57.3345Z" fill="#F7DEB0"/>
<path d="M60.2327 62.2346L54.4414 44.9521L55.1997 44.752L60.9762 62.1159L60.2327 62.2346Z" fill="#E8C792"/>
<path d="M67.9273 57.3342C66.6338 53.7161 64.6042 48.5113 62.2847 44.3297C61.6676 43.7588 60.887 43.1879 60.0098 42.6689C60.4633 42.9878 60.8722 43.314 61.229 43.6476C63.5485 47.8292 65.5781 53.034 66.8717 56.6521C67.6671 58.8911 66.158 61.2785 63.7864 61.5306L54.7909 62.487C54.1441 62.5537 53.5196 62.4499 52.9546 62.2127C53.7129 62.917 54.7537 63.2877 55.8465 63.1691L64.8421 62.2127C67.2136 61.9606 68.7302 59.5732 67.9273 57.3342Z" fill="#E8C792"/>
<path d="M46.3823 42.0164L48.3078 41.0303C52.0845 43.9218 55.1102 44.0701 56.7829 41.1563L58.0245 41.6531L57.2141 46.6131L55.1325 45.4639L53.326 48.0515L46.3823 42.0164Z" fill="#E5C289"/>
<path d="M48.4045 76.641C51.6459 68.7969 63.065 62.7617 63.065 62.7617L63.4219 63.4661C63.4219 63.4661 55.0806 82.2758 50.2111 83.5362C46.6575 84.4556 47.6165 78.5465 48.4045 76.641Z" fill="#FFB882"/>
<path d="M63.0649 62.7617C63.0649 62.7617 53.1624 79.755 49.7129 80.6521C48.7539 80.8968 48.1219 80.6002 47.7279 79.9997C47.5644 82.3425 48.0179 84.767 50.2779 84.1887C55.1399 82.9283 63.4292 63.4735 63.4292 63.4735L63.0649 62.7617Z" fill="#FF9566"/>
<path d="M55.1402 30.3757C50.2558 40.7703 46.2711 37.1671 46.2711 37.1671C46.2711 37.1671 39.4612 39.2949 38.8219 33.9122C38.8219 33.9122 33.997 32.3553 35.2013 24.8521C36.4057 17.349 42.5093 17.8457 42.5093 17.8457C42.5093 17.8457 44.4942 12.9598 49.7503 13.5974C54.9989 14.235 55.1402 30.3757 55.1402 30.3757Z" fill="#6D2D38"/>
<path d="M55.8537 25.2747L49.9657 24.2812C49.9657 24.2812 49.8914 35.4618 47.6982 41.623C52.9171 45.5673 56.218 45.8787 56.9986 41.408L55.8537 25.2747Z" fill="#FFB882"/>
<path d="M72.5514 77.7304L59.7792 78.0863L59.5562 77.3597L70.4251 56.4072L84.4091 56.8076L84.8106 57.5713L72.5514 77.7304Z" fill="#5E484F"/>
<path d="M72.5515 77.7305L59.7793 78.0863L71.0126 57.2451L84.8107 57.5713L72.5515 77.7305Z" fill="#47333A"/>
<path d="M72.5511 77.7301C79.6435 64.911 78.4688 58.6089 71.0122 57.2373L84.8103 57.5635L72.5511 77.7301Z" fill="#3A2930"/>
<path d="M69.2505 76.6553H65.3772L65.0278 77.0705H68.9011L69.2505 76.6553Z" fill="#3A2930"/>
<path d="M70.2169 183.672H59.8609C59.8609 183.672 59.2067 180.603 61.2586 179.676C63.3104 178.749 70.2169 183.672 70.2169 183.672Z" fill="#FFF1C5"/>
<path d="M54.917 183.672H61.0206C61.0206 183.672 60.5745 180.603 59.1099 179.676C57.6454 178.749 54.917 183.672 54.917 183.672Z" fill="#FFF1C5"/>
<path d="M46.5239 41.2305L48.4792 38.6133C52.2558 41.5048 55.2444 42.2314 56.9171 39.3102L57.8018 40.7189L56.7759 45.8643L55.0511 44.8857L53.2817 47.2137L46.5239 41.2305Z" fill="#62ACDD"/>
<path d="M50.6425 68.9597L49.5794 65.5195L40.792 74.3943L41.9592 78.1162L50.6425 68.9597Z" fill="#62ACDD"/>
<path d="M46.2487 68.8926L40.7993 74.4013L41.9665 78.1158L47.9883 71.7693C47.3341 70.9463 46.7393 69.975 46.2487 68.8926Z" fill="#5C95B7"/>
<path opacity="0.6" d="M59.5861 56.2592C63.8088 55.4363 65.7863 51.8701 65.3551 47.1027C65.1321 46.8877 64.9091 46.6727 64.6786 46.4577C64.1136 45.7237 63.5114 44.9971 62.8795 44.2854C61.809 43.0843 59.9355 41.809 57.7647 40.9342L57.8093 40.7192L56.9246 39.3105C56.9023 39.3549 56.8726 39.3846 56.8503 39.4291L56.2109 30.3245C54.2334 28.4042 52.0997 26.7731 49.9438 25.5127C49.8694 28.0113 49.5944 33.8907 48.5313 38.6506C48.5164 38.6358 48.5015 38.6284 48.4867 38.6209L46.5314 41.2381L46.5909 41.2975C45.104 41.9573 43.8922 42.7655 43.1265 43.5588C43.1191 43.5736 43.1042 43.581 43.0968 43.5884C42.9853 43.7071 42.8812 43.8183 42.792 43.9369C42.7697 43.9666 42.7548 43.9962 42.7251 44.0259C42.6507 44.1223 42.5838 44.2186 42.5243 44.315C42.502 44.3521 42.4946 44.3818 42.4723 44.4188C42.4128 44.4633 42.3533 44.5152 42.3013 44.5597C42.1823 44.6635 42.0634 44.7673 41.9444 44.8785C41.937 44.8859 41.9296 44.8933 41.9221 44.9007C41.8106 45.0045 41.6991 45.1158 41.595 45.227C41.5802 45.2418 41.5653 45.2566 41.5579 45.2715C41.4538 45.3827 41.3571 45.4939 41.2531 45.6125C41.2382 45.6347 41.2159 45.657 41.201 45.6718C41.1044 45.7904 41.0152 45.9091 40.9185 46.0277C40.8962 46.0574 40.8739 46.0796 40.859 46.1093C40.7698 46.2279 40.688 46.3539 40.5988 46.48C40.5765 46.517 40.5542 46.5541 40.5245 46.5912C40.4873 46.6431 40.4576 46.7024 40.4204 46.7617C46.1969 53.2936 53.9955 57.3491 59.5861 56.2592Z" fill="#C94343"/>
<path d="M47.505 17.1636C47.9214 30.1384 50.9992 34.7278 60.2921 38.0567C60.2921 38.0567 69.637 23.8364 63.9721 11.6401C60.4333 3.98863 47.3638 12.7744 47.505 17.1636Z" fill="#FFB882"/>
<path d="M49.0663 31.014C52.6422 22.0132 50.4863 13.4721 53.0362 11.2627C53.0362 11.2627 47.6984 12.9976 45.0518 17.3127C42.4052 21.6277 49.0663 31.014 49.0663 31.014Z" fill="#894049"/>
<path d="M46.6054 20.9011C47.7354 16.5787 50.0549 13.2274 52.3819 12.1895C52.5603 11.8188 52.7685 11.4925 53.0435 11.2627C53.0435 11.2627 47.3117 12.7678 44.6651 17.0828C43.3789 19.181 44.6874 22.7102 45.9661 25.5498C45.9809 24.0966 46.1817 22.5174 46.6054 20.9011Z" fill="#6D2D38"/>
<path d="M50.3524 23.2961C47.8768 23.2961 45.8769 20.4194 45.8769 16.8754C45.8769 16.6159 45.8918 16.3638 45.9141 16.1191C45.6093 16.4898 44.7395 16.7493 44.4793 17.172C41.8252 21.4944 49.0663 31.0142 49.0663 31.0142C50.1368 28.3229 50.687 25.676 51.0066 23.2219C50.791 23.2664 50.5754 23.2961 50.3524 23.2961Z" fill="#6D2D38"/>
<path d="M48.3823 23.2435C46.7021 20.8562 43.1188 23.6291 44.6428 25.8681C46.1669 28.1146 49.7428 29.2786 50.1963 28.5298C50.6498 27.7736 49.148 24.3334 48.3823 23.2435Z" fill="#FFB882"/>
<path d="M48.0923 24.0292C47.0292 22.5168 44.7542 24.2739 45.7281 25.6974C46.6946 27.1209 48.9621 27.8624 49.252 27.3804C49.5271 26.8985 48.5755 24.7188 48.0923 24.0292Z" fill="#DB5B3E"/>
<path d="M48.7987 25.6233C48.137 24.6817 46.7319 25.7715 47.3341 26.6538C47.9363 27.5361 49.3339 27.9958 49.5124 27.6992C49.6908 27.4027 49.1035 26.0533 48.7987 25.6233Z" fill="#FFB882"/>
<path d="M64.0759 21.6052C64.0462 20.4041 63.4589 19.4254 62.7526 19.418C62.0538 19.4106 61.5111 20.3819 61.5334 21.5904C61.5631 22.7915 62.1504 23.7701 62.8493 23.7775C63.563 23.7775 64.1057 22.8063 64.0759 21.6052Z" fill="#66423B"/>
<path d="M57.2066 21.5309C57.214 20.1445 56.6119 18.9805 55.8536 18.9286C55.0953 18.8767 54.4782 19.9517 54.4708 21.3382C54.4633 22.7172 55.0655 23.8886 55.8238 23.9405C56.5821 23.9924 57.1992 22.91 57.2066 21.5309Z" fill="#66423B"/>
<path d="M53.2515 20.9003C53.2515 20.9003 55.5858 19.1061 57.6898 19.5509C57.6898 19.5509 57.1619 18.4314 55.6082 18.6835C54.0618 18.9355 53.2515 20.9003 53.2515 20.9003Z" fill="#66423B"/>
<path d="M64.9608 20.5895C64.9608 20.5895 62.7974 19.1289 60.9463 19.6405C60.9463 19.6405 61.37 18.6099 62.7603 18.7434C64.1505 18.8768 64.9608 20.5895 64.9608 20.5895Z" fill="#66423B"/>
<path d="M52.6941 18.3429L52.6123 18.0463C53.3632 16.2521 55.2887 15.1103 56.4336 14.9102L56.5599 15.9556C55.6158 15.8962 53.5565 16.8378 52.6941 18.3429Z" fill="#C14D33"/>
<path d="M65.1837 17.9645C63.9273 16.1925 61.6152 15.7922 61.0576 15.8515L61.1022 14.8209C61.7341 14.7839 63.8975 15.3844 65.3398 17.6087L65.1837 17.9645Z" fill="#C14D33"/>
<path d="M61.1024 25.4976C61.095 25.5347 61.1024 25.5718 61.095 25.6163C60.8868 26.3799 60.1062 26.7581 59.3553 26.4689C58.9093 26.2984 58.597 25.9277 58.4409 25.4902C58.3071 26.2242 58.7234 27.0027 59.4371 27.2845C60.188 27.5736 60.9686 27.1955 61.1767 26.4318C61.2511 26.113 61.2065 25.7942 61.1024 25.4976Z" fill="#EA7B59"/>
<path d="M56.8052 29.5234L61.6226 29.7014C61.6226 29.7014 61.065 32.237 59.1024 32.1036C57.2141 31.9849 56.8052 29.5234 56.8052 29.5234Z" fill="#491D2E"/>
<path d="M57.1325 29.6416L61.2214 29.7973C61.2214 29.7973 61.5039 30.9391 59.1769 30.8946C56.7236 30.8427 57.1325 29.6416 57.1325 29.6416Z" fill="#FFEBEB"/>
<path d="M60.1434 32.9711C60.1582 32.6523 59.7271 32.9563 59.2067 32.934C58.6937 32.9118 58.2848 32.5782 58.2699 32.897C58.2551 33.2158 58.6639 33.4901 59.1769 33.5123C59.6973 33.5272 60.1285 33.2899 60.1434 32.9711Z" fill="#EF8F6F"/>
<path opacity="0.6" d="M63.9796 11.6334C61.6378 6.59175 55.1625 8.69737 51.0588 11.9744C50.1964 12.3451 49.1481 12.879 48.1073 13.5907C44.0854 14.0059 42.5093 17.8465 42.5093 17.8465C42.5093 17.8465 36.4057 17.3497 35.2013 24.8528C33.997 32.356 38.8219 33.913 38.8219 33.913C38.9928 35.3216 39.5876 36.2188 40.3682 36.7674C50.0477 24.5414 60.7159 20.2116 65.8679 18.751C65.6375 16.371 65.0576 13.9614 63.9796 11.6334Z" fill="#623C3C"/>
<path d="M71.6816 1.14158C65.5854 1.49746 55.497 7.00618 48.1147 13.59C55.8167 9.6827 61.8162 9.06732 64.4851 12.7522C74.3431 6.16838 76.5064 0.85984 71.6816 1.14158Z" fill="#34688C"/>
<path d="M71.6816 2.26178C73.0197 2.18023 73.8227 2.53611 74.068 3.22562C74.4248 1.81693 73.6145 1.03103 71.6816 1.14224C65.5854 1.49812 55.497 7.00685 48.1147 13.5906C49.1481 13.0642 50.1517 12.6045 51.1256 12.1968C58.0544 6.77701 66.3809 2.57318 71.6816 2.26178Z" fill="#7CBFE5"/>
<path d="M77.5175 69.4929C77.3019 68.4104 79.1976 65.4596 79.7255 65.6153C80.2533 65.771 79.5991 69.3669 78.8259 70.7311C78.0899 72.0211 77.5175 69.4929 77.5175 69.4929Z" fill="#FF9566"/>
<path d="M79.2647 66.4533C77.3095 66.2383 75.9713 66.8907 75.9416 66.2976C75.9118 65.7119 79.6067 65.3041 79.7628 65.5191C79.9115 65.7416 79.2647 66.4533 79.2647 66.4533Z" fill="#FF9566"/>
<path d="M78.8258 67.6623C76.8705 67.4473 75.5324 68.0997 75.5026 67.5066C75.4729 66.9209 79.1677 66.5131 79.3239 66.7281C79.48 66.9505 78.8258 67.6623 78.8258 67.6623Z" fill="#FF9566"/>
<path d="M78.4542 68.7814C76.499 68.5664 75.1608 69.2189 75.131 68.6257C75.1013 68.04 78.7962 67.6323 78.9523 67.8473C79.1084 68.0697 78.4542 68.7814 78.4542 68.7814Z" fill="#FF9566"/>
<path d="M37.2381 149.848L35.9073 148.083L24.9565 150.737L27.0084 153.458L37.2381 149.848Z" fill="#A5254C"/>
<path d="M38.0932 148.091H35.8852L35.7886 159.16H39.2009L38.0932 148.091Z" fill="#BC395B"/>
<path d="M27.1572 150.752H24.9492V159.16H28.3616L27.1572 150.752Z" fill="#A5254C"/>
<path d="M41.3791 156.143L22.429 157.225C18.9349 162.408 17.4183 170.793 18.7936 183.671H55.0583C50.8133 168.317 48.2633 163.016 41.3791 156.143Z" fill="#BC395B"/>
<path d="M38.5319 172.862C38.5319 166.522 39.6768 160.739 41.5502 156.321C41.4908 156.261 41.4313 156.202 41.3718 156.143L22.4217 157.225C18.9276 162.408 17.411 170.793 18.7863 183.671H39.714C38.9631 180.402 38.5319 176.732 38.5319 172.862Z" fill="#A5254C"/>
<path d="M41.5579 156.321C41.4984 156.261 41.439 156.202 41.3795 156.143L22.4294 157.225C22.3104 157.396 22.2064 157.588 22.0874 157.766C27.232 157.937 33.3653 163.89 36.7925 172.535C38.3314 176.413 39.0971 180.268 39.1492 183.671H39.7216C38.9633 180.394 38.5396 176.732 38.5396 172.862C38.5321 166.522 39.677 160.739 41.5579 156.321Z" fill="#991F47"/>
<path d="M42.8882 160.924L46.3526 183.67H49.9136L42.8882 160.924Z" fill="#A5254C"/>
<path d="M38.6581 177.577L18.3252 177.888L18.3921 172.239L19.3809 176.828L37.4165 176.524L38.5986 170.756L38.6581 177.577Z" fill="#7C193A"/>
<path d="M28.6519 177.206H25.9756L26.4142 180.364H29.0831L28.6519 177.206Z" fill="#7C193A"/>
<path d="M27.9678 176.234H26.2505L26.6222 178.963H28.347L27.9678 176.234Z" fill="#B77437"/>
<path d="M60.4482 66.6163C61.9722 65.2743 64.9385 64.7405 65.5407 63.6877C66.009 62.8647 64.4553 60.3291 63.7564 60.3291C63.0576 60.3291 59.7939 65.7044 59.7939 65.7044L60.4482 66.6163Z" fill="#FFB882"/>
<path d="M60.9462 64.0954C61.3179 62.3976 61.0577 59.5209 61.1172 59.0093C61.1767 58.5052 61.7937 58.7128 62.0985 60.114C62.4108 61.545 62.106 62.0121 62.7899 62.2716C63.5259 62.5385 60.7529 64.9555 60.9462 64.0954Z" fill="#FFB882"/>
<path d="M63.6451 62.1161C64.2473 61.0484 65.6895 58.535 65.3178 58.2681C64.9461 58.0012 62.6191 61.5823 62.6191 61.5823L63.6451 62.1161Z" fill="#FFB882"/>
<path d="M64.6189 62.776C65.4441 61.9827 67.429 60.1217 67.1019 59.8177C66.7748 59.5138 63.6821 62.1087 63.6821 62.1087L64.6189 62.776Z" fill="#FFB882"/>
<path d="M65.2213 64.0587C66.552 63.3099 68.4106 61.8938 68.0686 61.5824C67.734 61.271 64.1953 63.3618 64.1953 63.3618L65.2213 64.0587Z" fill="#FFB882"/>
<path d="M0 182.106L150.679 195L313 182.106H0Z" fill="#FFBF4D"/>
</svg>
