<svg width="317" height="206" viewBox="0 0 317 206" fill="none" xmlns="http://www.w3.org/2000/svg">
<g clip-path="url(#clip0)">
<path d="M110.29 177.195H121.779L122.645 191.82H115.056L110.29 177.195Z" fill="#56323B"/>
<path d="M43.3237 177.195H31.834L31.4048 191.82H38.9868L43.3237 177.195Z" fill="#56323B"/>
<path d="M121.877 181.871H30.9604V189.04H121.877V181.871Z" fill="#56323B"/>
<path d="M35.448 177.195H25.6749L25.3135 191.82H31.7586L35.448 177.195Z" fill="#FFEED2"/>
<path d="M117.879 177.195H127.042L127.735 191.82H121.689L117.879 177.195Z" fill="#FFEED2"/>
<path d="M126.139 80.5811H27.2862L25.7427 184.327H127.268L126.139 80.5811Z" fill="#FFEED2"/>
<path d="M116.953 80.5811H81.3016L35.4404 184.327H94.5081L116.953 80.5811Z" fill="#FFF3E1"/>
<path d="M107.556 163.014C107.398 151.74 106.803 140.489 106.209 129.246C106.156 128.252 106.013 127.069 105.305 126.647L47.5249 130.759C50.4011 148.246 49.8439 166.237 50.0246 184.153C50.0322 184.552 50.3559 184.876 50.755 184.876C51.1766 184.876 51.5079 184.515 51.4778 184.101C51.1315 179.567 50.9658 175.018 50.9959 170.462C51.011 168.097 51.1089 165.59 52.1329 163.617C52.9234 164.362 53.0364 165.793 53.074 167.043C53.2472 172.473 53.1343 183.325 53.8345 183.325C55.3027 183.325 54.3314 177.217 55.2651 173.55C55.3554 173.188 55.4006 172.797 55.6039 172.526C55.9879 172.014 56.6956 172.157 57.1022 172.646C57.5013 173.136 57.6669 173.851 57.8024 174.544C58.3822 177.586 58.578 180.727 58.8264 183.852C58.8716 184.44 59.361 184.884 59.9483 184.884H61.7102C62.305 184.884 62.7944 184.424 62.832 183.83C62.9977 181.149 63.1558 178.468 63.3214 175.787C66.0621 176.803 68.8028 177.82 71.5435 178.837C72.7482 179.281 73.9905 179.755 74.9543 180.787C75.7976 181.698 76.3321 182.926 76.6785 184.274C76.7688 184.628 77.1001 184.876 77.4691 184.876H80.91C81.3015 184.876 81.6328 184.598 81.7156 184.214C81.9716 182.963 82.2954 181.736 82.7245 180.569C83.0558 179.672 83.7335 178.663 84.4563 179.04C84.8779 180.689 85.0586 182.391 85.1189 184.116C85.1339 184.537 85.4803 184.876 85.9019 184.876H87.1744C87.581 184.876 87.9198 184.56 87.9499 184.153C88.2285 180.644 88.5899 177.15 89.0492 173.67C89.1998 172.533 89.388 171.328 90.0205 170.507C90.6529 169.687 91.8877 169.536 92.3771 170.507C92.5804 170.914 92.6106 171.419 92.6331 171.901C92.8214 175.877 92.7009 179.891 92.603 183.897C92.588 184.432 93.0247 184.876 93.5593 184.876H93.8755C94.2821 184.876 94.6209 184.56 94.6359 184.146C94.7489 181.277 95.3437 170.718 97.9187 166.448C98.3931 165.665 99.0406 164.874 99.8161 164.957C101.736 165.175 101.089 169.498 102.662 170.922C102.685 166.795 102.7 162.675 102.722 158.548C102.73 157.622 102.948 156.387 103.671 156.364C103.95 156.357 104.206 156.553 104.417 156.771C106.449 158.85 106.148 162.811 105.832 166.109C105.328 171.358 105.922 178.46 106.532 184.319C106.562 184.635 106.833 184.876 107.157 184.876C107.481 184.876 107.76 184.635 107.782 184.311C108.219 178.942 107.632 168.504 107.556 163.014Z" fill="#70D8EF"/>
<path opacity="0.6" d="M82.972 169.343C100.035 166.001 110.985 148.577 107.431 130.425C103.877 112.273 87.1638 100.267 70.1012 103.609C53.0385 106.952 42.0878 124.376 45.642 142.528C49.1962 160.68 65.9094 172.686 82.972 169.343Z" fill="#C94343"/>
<path d="M97.5387 156.291C109.627 144.979 110.009 125.742 98.3919 113.323C86.7752 100.905 67.5587 100.008 55.4707 111.32C43.3827 122.632 43.0007 141.87 54.6175 154.288C66.2342 166.707 85.4507 167.604 97.5387 156.291Z" fill="#FFF1DC"/>
<path d="M106.088 127.754C100.878 136.001 91.6994 141.445 81.1057 141.445C66.4159 141.445 53.8871 130.978 50.7173 117.083C47.683 121.88 45.9964 127.626 46.162 133.809C46.6063 150.611 60.5581 164.226 77.3109 164.226C94.0712 164.226 107.3 150.611 106.848 133.809C106.796 131.731 106.532 129.712 106.088 127.754Z" fill="#F4E2C9"/>
<path d="M91.4845 149.816C100.093 141.76 100.365 128.06 92.0916 119.216C83.8187 110.373 70.1338 109.734 61.5256 117.79C52.9173 125.845 52.6455 139.545 60.9184 148.389C69.1913 157.233 82.8762 157.872 91.4845 149.816Z" fill="#C1A584"/>
<path d="M76.2416 137.733C68.8478 137.733 62.0037 139.179 56.4019 141.634C59.7449 149.73 67.7335 155.469 76.9193 155.469C86.0147 155.469 93.6344 149.836 96.616 141.868C90.9088 139.27 83.8689 137.733 76.2416 137.733Z" fill="#DDC2A8"/>
<path d="M88.4016 140.481C88.0478 138.975 87.6487 137.454 86.9108 136.098C86.1654 134.743 85.0436 133.545 83.6055 133.018C82.4836 132.604 81.2563 132.612 80.0591 132.725C77.6723 132.95 75.3232 133.44 73.0192 134.11C70.6927 134.788 68.3586 135.473 66.032 136.151C65.5049 136.302 64.9628 136.467 64.5638 136.844C63.8861 137.492 63.585 138.584 63.8334 139.495C67.0936 151.65 63.9162 155.272 64.3981 161.794C64.496 163.112 65.9943 163.789 65.9943 162.02C65.9943 155.859 66.431 153.54 66.5967 153.404C67.8917 152.305 74.6531 154.911 75.0898 156.055C76.5354 159.851 75.7599 163.262 75.6921 163.82C75.5415 165.047 77.838 166.041 77.8305 163.835C77.8229 161.929 76.3171 157.584 76.8893 154.858C77.0323 154.188 79.5321 154.353 79.9387 155.159C80.8874 157.057 81.3391 160.009 81.2864 163.797C81.2638 165.559 82.9881 165.296 82.6116 163.24C81.0605 154.647 81.8135 151.122 83.5151 148.11C84.1024 148.283 84.2756 149.021 84.4261 149.616C84.5767 150.219 85.0285 150.919 85.6233 150.753C86.3085 156.417 85.021 158.947 85.6986 162.833C85.7438 163.104 86.0374 163.255 86.2934 163.149C86.3762 163.112 86.4591 163.074 86.5419 163.044C86.8732 162.901 87.1066 162.592 87.1819 162.238C87.9348 158.578 85.8868 157.192 86.7301 150.58C86.9033 149.24 86.188 147.929 86.1955 146.581C86.2031 145.233 86.5946 143.818 87.5659 142.899C87.8746 142.605 88.2511 142.357 88.4318 141.965C88.6275 141.513 88.5146 140.971 88.4016 140.481Z" fill="#70D8EF"/>
<path d="M65.076 153.51C65.5203 153.645 65.972 153.788 66.4389 153.931C66.4991 153.6 66.5593 153.434 66.597 153.404C67.8243 152.365 73.9381 154.639 74.9545 155.852C75.5494 155.912 76.1517 155.95 76.7616 155.965C76.7766 155.573 76.8143 155.197 76.882 154.85C77.0251 154.18 79.5248 154.346 79.9314 155.151C80.0293 155.355 80.1272 155.573 80.21 155.799C80.7371 155.731 81.2491 155.656 81.761 155.558C81.7385 152.109 82.4312 150.008 83.5079 148.11C84.0951 148.283 84.2683 149.021 84.4189 149.616C84.5695 150.219 85.0213 150.919 85.6161 150.753C85.7892 152.199 85.8344 153.442 85.8194 154.557C86.0603 154.481 86.2937 154.406 86.5271 154.338C86.4895 153.291 86.5271 152.079 86.7154 150.588C86.8885 149.247 86.1732 147.937 86.1808 146.589C86.1883 145.241 86.5798 143.825 87.5511 142.906C87.8598 142.613 88.2363 142.364 88.417 141.972C88.6278 141.513 88.5224 140.978 88.4095 140.481C88.0556 138.975 87.6565 137.454 86.9186 136.098C86.1732 134.743 85.0514 133.545 83.6133 133.018C82.4914 132.604 81.2641 132.612 80.0669 132.725C77.6802 132.95 75.331 133.44 73.027 134.11C70.7005 134.788 68.3664 135.473 66.0398 136.151C65.5127 136.302 64.9706 136.467 64.5716 136.844C63.8939 137.492 63.5928 138.584 63.8412 139.495C65.588 146.054 65.4751 150.128 65.076 153.51Z" fill="#4CB1CC"/>
<path d="M80.3925 153.537C90.548 151.537 97.0424 141.085 94.8981 130.193C92.7539 119.301 82.783 112.092 72.6274 114.092C62.4719 116.093 55.9775 126.544 58.1218 137.436C60.266 148.328 70.2369 155.537 80.3925 153.537Z" fill="#56323B"/>
<path d="M80.1013 152.033C89.4816 150.185 95.4798 140.529 93.4986 130.466C91.5175 120.402 82.3072 113.741 72.9269 115.589C63.5466 117.436 57.5484 127.092 59.5296 137.156C61.5108 147.219 70.721 153.88 80.1013 152.033Z" fill="#619CAA"/>
<path d="M63.314 124.509C66.3106 128.297 70.7831 130.722 75.7298 130.722C81.0907 130.722 85.7439 127.875 88.4996 123.523C85.5029 119.735 81.0305 117.31 76.0837 117.31C70.7228 117.31 66.0697 120.164 63.314 124.509Z" fill="#4C8993"/>
<path d="M92.0383 141.016C88.1381 139.932 83.8163 139.329 79.261 139.329C72.9439 139.329 67.071 140.489 62.1694 142.477C65.0532 148.133 70.6701 151.996 77.0399 151.996C83.9518 151.989 89.7494 147.447 92.0383 141.016Z" fill="#80CBD8"/>
<path d="M27.0605 97.827H126.305L126.282 96.2305H27.0907L27.0605 97.827Z" fill="#E5D2B7"/>
<path d="M107.097 186.277C106.352 188.875 106.043 189.937 107.346 190.005C108.648 190.073 107.097 186.277 107.097 186.277Z" fill="#70D8EF"/>
<path d="M97.5121 181.081C96.7667 184.718 96.458 186.217 97.7606 186.307C99.0556 186.405 97.5121 181.081 97.5121 181.081Z" fill="#70D8EF"/>
<path d="M79.9088 186.978C79.2914 189.99 79.0354 191.232 80.1121 191.308C81.1963 191.383 79.9088 186.978 79.9088 186.978Z" fill="#70D8EF"/>
<path d="M69.5182 182.444C68.9008 185.457 68.6448 186.699 69.7215 186.775C70.8057 186.85 69.5182 182.444 69.5182 182.444Z" fill="#70D8EF"/>
<path d="M61.2662 186.172C60.6488 188.326 60.3928 189.214 61.4695 189.267C62.5537 189.327 61.2662 186.172 61.2662 186.172Z" fill="#70D8EF"/>
<path d="M49.9194 80.5811V96.6294H51.5081V80.5811H49.9194Z" fill="#E5D2B7"/>
<path d="M66.1675 80.5811V96.6294H67.7562V80.5811H66.1675Z" fill="#E5D2B7"/>
<path d="M73.2681 89.6481C73.2681 92.3894 75.2935 94.6185 77.7932 94.6185C80.2929 94.6185 82.3183 92.3969 82.3183 89.6481C82.3183 86.9069 80.2929 84.6777 77.7932 84.6777C75.2935 84.6777 73.2681 86.8993 73.2681 89.6481Z" fill="#C1A787"/>
<path d="M80.2954 90.7191C81.6609 89.3381 81.6487 87.1113 80.2679 85.7455C78.8872 84.3796 76.6609 84.3919 75.2953 85.7729C73.9298 87.1539 73.942 89.3807 75.3228 90.7465C76.7035 92.1124 78.9298 92.1001 80.2954 90.7191Z" fill="#F4E2C9"/>
<path d="M77.7932 84.9717C76.6864 84.9717 75.7302 85.5741 75.2031 86.4628C75.7302 87.3514 76.6864 87.9539 77.7932 87.9539C78.9 87.9539 79.8563 87.3514 80.3833 86.4628C79.8563 85.5666 78.9 84.9717 77.7932 84.9717Z" fill="#FFF1DC"/>
<path d="M90.3821 94.6185C92.8812 94.6185 94.9072 92.3932 94.9072 89.6481C94.9072 86.9031 92.8812 84.6777 90.3821 84.6777C87.8829 84.6777 85.8569 86.9031 85.8569 89.6481C85.8569 92.3932 87.8829 94.6185 90.3821 94.6185Z" fill="#C1A787"/>
<path d="M92.8676 90.7261C94.2407 89.3526 94.2407 87.1259 92.8676 85.7524C91.4945 84.379 89.2681 84.379 87.895 85.7524C86.5218 87.1259 86.5218 89.3526 87.895 90.7261C89.2681 92.0995 91.4945 92.0995 92.8676 90.7261Z" fill="#F4E2C9"/>
<path d="M90.3821 84.9717C89.2753 84.9717 88.319 85.5741 87.792 86.4628C88.319 87.3514 89.2753 87.9539 90.3821 87.9539C91.4889 87.9539 92.4451 87.3514 92.9722 86.4628C92.4451 85.5666 91.4889 84.9717 90.3821 84.9717Z" fill="#FFF1DC"/>
<path d="M113.121 89.6481C113.121 92.3894 115.146 94.6185 117.646 94.6185C120.145 94.6185 122.171 92.3969 122.171 89.6481C122.171 86.9069 120.145 84.6777 117.646 84.6777C115.146 84.6777 113.121 86.8993 113.121 89.6481Z" fill="#C1A787"/>
<path d="M120.132 90.729C121.505 89.3556 121.505 87.1288 120.132 85.7554C118.759 84.3819 116.533 84.3819 115.16 85.7554C113.786 87.1288 113.786 89.3556 115.16 90.729C116.533 92.1024 118.759 92.1024 120.132 90.729Z" fill="#F4E2C9"/>
<path d="M117.646 84.9717C116.539 84.9717 115.583 85.5741 115.056 86.4628C115.583 87.3514 116.539 87.9539 117.646 87.9539C118.753 87.9539 119.709 87.3514 120.236 86.4628C119.709 85.5666 118.753 84.9717 117.646 84.9717Z" fill="#FFF1DC"/>
<path d="M110.877 84.874H97.9868V91.4711H110.877V84.874Z" fill="#C1A787"/>
<path d="M110.493 85.2656H98.3706V91.0719H110.493V85.2656Z" fill="#56323B"/>
<path d="M109.747 86.124H99.1235V90.2208H109.747V86.124Z" fill="#80CBD8"/>
<path d="M47.1638 85.6416H30.7197V86.357C30.7197 88.0967 32.1277 89.4974 33.8595 89.4974H44.0165C45.7558 89.4974 47.1563 88.0891 47.1563 86.357V85.6416H47.1638Z" fill="#C1A787"/>
<path d="M45.4317 84.3086H32.4512V85.024C32.4512 86.7637 33.8592 88.1644 35.5909 88.1644H42.292C44.0313 88.1644 45.4317 86.7561 45.4317 85.024V84.3086Z" fill="#FFEED2"/>
<path d="M121.93 180.976H114.039C112.691 180.976 111.6 179.884 111.6 178.536V171.645C111.6 170.297 112.691 169.205 114.039 169.205H121.93C123.278 169.205 124.369 170.297 124.369 171.645V178.536C124.369 179.876 123.27 180.976 121.93 180.976ZM114.039 169.981C113.128 169.981 112.383 170.726 112.383 171.638V178.528C112.383 179.44 113.128 180.185 114.039 180.185H121.93C122.841 180.185 123.586 179.44 123.586 178.528V171.638C123.586 170.726 122.841 169.981 121.93 169.981H114.039Z" fill="#C1A787"/>
<path d="M57.155 90.168H54.708V92.5176H57.155V90.168Z" fill="#C1A787"/>
<path d="M57.155 84.0225H54.708V86.3721H57.155V84.0225Z" fill="#C1A787"/>
<path d="M62.9978 90.168H60.5508V92.5176H62.9978V90.168Z" fill="#C1A787"/>
<path d="M62.9978 84.0225H60.5508V86.3721H62.9978V84.0225Z" fill="#C1A787"/>
<path d="M91.9403 51.0524C77.1075 52.1745 72.1382 45.8486 72.6878 39.2138C73.2375 32.5716 76.4525 30.9148 76.4525 30.9148C76.4525 30.9148 68.3735 32.2402 70.5871 23.9412C72.8008 15.6422 79.9913 13.4281 79.9913 13.4281C79.9913 13.4281 75.3457 10.8826 79.547 5.67879C83.7484 0.474944 95.6975 -0.963456 98.3553 0.587907C101.013 2.13927 101.789 3.90903 101.789 3.90903C101.789 3.90903 109.868 -0.0748109 113.406 9.11288C116.945 18.3006 109.868 29.2505 109.868 29.2505C109.868 29.2505 119.709 48.9513 91.9403 51.0524Z" fill="#BA5438"/>
<path d="M113.226 21.8175C100.381 8.77395 103.189 25.2064 93.002 20.5824C82.491 15.8153 79.3362 9.9789 80.1645 5.00098C79.9461 5.21937 79.7353 5.4453 79.5471 5.67876C75.3457 10.8826 79.9913 13.428 79.9913 13.428C79.9913 13.428 72.8008 15.6421 70.5871 23.9412C68.3735 32.2402 76.4525 30.9148 76.4525 30.9148C76.4525 30.9148 73.245 32.5716 72.6878 39.2138C72.1382 45.8561 77.1075 52.1745 91.9403 51.0524C119.709 48.9513 109.86 29.2504 109.86 29.2504C109.86 29.2504 111.878 26.1251 113.226 21.8175Z" fill="#A0402A"/>
<path d="M96.0965 21.8857C88.6199 21.8857 82.0844 41.3757 84.3734 50.9098C86.5418 51.2035 89.0566 51.2713 91.9403 51.0529C101.841 50.2998 106.961 47.3176 109.446 43.7856C109.499 43.1379 109.529 42.4752 109.529 41.8125C109.529 31.9696 103.566 21.8857 96.0965 21.8857Z" fill="#7A2618"/>
<path d="M94.1543 160.235C90.5854 124.742 86.6174 100.945 87.4155 97.7741C88.2061 94.6036 97.5274 79.1351 94.7491 67.0405L107.835 61.4902C107.835 61.4902 105.057 66.6489 110.019 77.3503C114.973 88.0592 128.059 128.703 129.053 156.666L124.693 158.646L105.659 119.388L99.7109 156.267L94.1543 160.235Z" fill="#C95D7C"/>
<path d="M94.1089 145.783L100.697 149.752L99.8688 156.342L95.0726 153.525L94.1089 145.783Z" fill="#B54168"/>
<path d="M119.829 145.716L128.021 145.204L129.105 151.41L122.901 154.61L119.829 145.716Z" fill="#B54168"/>
<path d="M92.4448 88.6995C106.359 90.522 113.075 85.2429 113.075 85.2429L111.923 81.5L94.3573 82.0723L92.4448 88.6995Z" fill="#B54168"/>
<path d="M91.2929 97.91C91.8652 95.6056 99.9291 77.1775 99.9291 77.1775L96.2849 66.3857L94.7414 67.0409C97.5197 79.1355 87.3777 93.7831 86.5871 96.9536C85.7965 100.124 90.5852 124.743 94.1465 160.236L96.3978 158.632C94.9898 143.901 90.8186 99.8304 91.2929 97.91Z" fill="#B54168"/>
<path d="M106.909 108.023L105.478 119.817L123.827 158.744L125.468 158.006C121.056 146.536 111.705 120.705 106.909 108.023Z" fill="#B54168"/>
<path d="M100.418 105.199L106.977 109.703L113.113 101.931L106.427 105.899L100.418 105.199Z" fill="#B54168"/>
<path d="M89.1997 148.141L97.1281 190.577H98.122L104.07 151.514L89.1997 148.141Z" fill="#FFCE55"/>
<path d="M93.4538 149.105L89.1997 148.141L97.1281 190.577H97.7756L93.4538 149.105Z" fill="#FFB345"/>
<path d="M131.161 145.896L136.514 190.577H135.52L118.504 154.534L131.161 145.896Z" fill="#FFCE55"/>
<path d="M123.255 151.289L118.504 154.535L135.52 190.578H136.145L123.255 151.289Z" fill="#FFB345"/>
<path d="M143.953 192.626H134.805C134.805 192.626 134.805 189.938 136.017 189.041C137.237 188.145 143.953 192.626 143.953 192.626Z" fill="#FFCE55"/>
<path d="M93.1226 192.626H100.223C100.223 192.626 99.1761 190.005 97.8886 189.131C96.5936 188.265 93.1226 192.626 93.1226 192.626Z" fill="#FFCE55"/>
<path d="M107.639 64.2012L93.3635 64.9919C95.2157 75.8289 92.1738 83.8945 92.1738 83.8945C92.1738 83.8945 103.543 87.7277 113.188 83.7589C113.188 83.7664 106.841 67.7708 107.639 64.2012Z" fill="#FFF1C5"/>
<path d="M95.5997 84.768C96.1719 77.6965 99.7182 71.9203 104.153 72.5755C107.903 73.1328 111.193 78.1183 112.488 84.0375C112.721 83.9547 112.955 83.8643 113.181 83.7664C113.181 83.7664 106.833 67.7708 107.632 64.2012L93.3635 64.9919C95.2157 75.8289 92.1738 83.8945 92.1738 83.8945C92.1738 83.8945 93.4915 84.3388 95.5997 84.768Z" fill="#E8D6A3"/>
<path d="M122.66 59.3513C116.019 59.2911 101.751 53.6128 94.3275 47.189C92.2193 45.359 102.934 41.0136 105.064 43.0018C107.24 45.0201 120.123 51.4364 125.266 52.7995C127.908 53.4999 127.69 59.3965 122.66 59.3513Z" fill="#FFF1C5"/>
<path d="M125.16 54.8404C111.645 53.4698 109.725 47.2342 102.813 41.9551C100.155 43.0245 93.2807 46.2853 94.3272 47.189C101.751 53.6129 116.019 59.2912 122.66 59.3514C126.139 59.3816 127.313 56.565 126.831 54.5919C126.349 54.7501 125.785 54.9007 125.16 54.8404Z" fill="#E8D6A3"/>
<path d="M88.462 41.6312C80.4508 47.6408 71.3328 63.3126 70.8359 66.7843C70.3389 70.2561 73.0194 72.5379 74.6984 70.9489C76.385 69.3599 86.7905 56.7682 89.2677 55.1868C91.7523 53.5977 90.8413 39.8463 88.462 41.6312Z" fill="#FFF1C5"/>
<path d="M88.8008 43.2957C86.0676 45.0504 75.0522 65.3989 73.1924 67.1536C72.4621 67.8389 71.5661 67.8615 70.7831 67.4171C70.6701 70.5274 73.1247 72.4402 74.7058 70.9491C76.3924 69.3601 86.798 56.7685 89.2751 55.187C90.5927 54.3435 90.9541 50.0735 90.6454 46.5189C90.3894 48.0854 89.4633 42.8664 88.8008 43.2957Z" fill="#E8D6A3"/>
<path d="M68.2985 61.4823C65.8063 64.2537 64.8199 70.1353 68.0651 72.3268C71.3102 74.5258 75.1426 72.9895 75.9558 70.429C76.769 67.8685 75.9031 64.201 73.5314 62.6195C71.1521 61.038 68.2985 61.4823 68.2985 61.4823Z" fill="#FF7694"/>
<path d="M71.197 69.1943C68.9081 67.6429 68.7274 64.2691 69.6911 61.4375C68.8554 61.3923 68.2907 61.4826 68.2907 61.4826C65.7985 64.254 64.8121 70.1356 68.0573 72.3271C71.3024 74.5261 75.1348 72.9898 75.948 70.4293C75.9932 70.3013 76.0233 70.1582 76.0534 70.0227C74.5927 70.4595 72.8233 70.2938 71.197 69.1943Z" fill="#EA4974"/>
<path d="M56.1685 39.1688C60.0687 51.1278 63.0051 59.5172 65.422 66.2047C66.1222 68.1401 67.9142 72.2294 71.4982 71.0018C75.0144 69.7969 72.3038 62.1455 70.0525 58.847C64.767 51.1203 56.9139 39.0859 56.9139 39.0859L56.1685 39.1688Z" fill="#FFB882"/>
<path d="M68.637 65.1505C65.5425 58.5986 61.9284 51.61 56.9365 40.2534L56.1685 39.1689C60.0687 51.128 63.0051 59.5174 65.422 66.2048C66.1222 68.1403 67.9142 72.2296 71.4982 71.002C72.0328 70.8213 72.4092 70.4673 72.6803 70.023C70.6925 69.1494 69.3147 66.5814 68.637 65.1505Z" fill="#FF9566"/>
<path d="M87.3929 43.0693C86.9939 50.7056 89.2527 65.6243 91.2329 66.8142C93.2131 68.0041 113.354 66.6109 113.753 65.0218C114.152 63.4328 107.323 45.5093 104.665 42.8509C102.979 41.164 97.5952 39.3039 94.6512 39.4771C91.1802 39.6804 87.4682 41.5556 87.3929 43.0693Z" fill="#FFF1C5"/>
<path d="M105.343 43.7246C108.181 48.951 112.345 61.7159 112.029 63.1016C111.66 64.6906 93.9586 66.3399 92.129 65.15C90.8716 64.3367 88.5751 56.979 87.521 49.418C88.048 56.9865 89.6593 66.4754 91.1727 67.3867C93.1529 68.5766 113.618 67.0177 113.889 65.406C114.325 62.7326 108.325 48.1603 105.343 43.7246Z" fill="#E8D6A3"/>
<path d="M98.5891 48.7029L102.421 41.398C100.065 40.2608 96.7444 39.3571 94.6512 39.4776C93.0399 39.5755 91.3759 40.0274 90.0508 40.6374L98.5891 48.7029Z" fill="#FF7694"/>
<path d="M91.5791 25.5C91.8727 35.2148 91.677 40.125 91.677 40.125L98.2651 45.0502L101.021 40.7877L99.1084 27.1794L91.5791 25.5Z" fill="#FFB882"/>
<path d="M120.228 49.3956C118.444 52.664 118.843 58.6134 122.51 60.0066C126.177 61.3923 129.55 59.0125 129.745 56.3391C129.941 53.6656 128.262 50.2917 125.582 49.2977C122.901 48.3036 120.228 49.3956 120.228 49.3956Z" fill="#FF7694"/>
<path d="M123.18 54.7723C121.275 54.0494 120.258 52.1064 119.965 49.9375C118.496 53.2887 119.031 58.6884 122.502 60.0063C126.169 61.392 129.542 59.0122 129.738 56.3388C129.805 55.4275 129.647 54.441 129.316 53.4921C127.998 54.923 125.657 55.7062 123.18 54.7723Z" fill="#EA4974"/>
<path d="M129.55 26.7129C127.524 41.4734 121.96 50.8042 121.96 50.8042C121.96 50.8042 121.222 55.9102 124.031 57.2431C126.734 58.5309 129.572 52.2577 130.054 49.0495C130.875 43.6047 130.483 27.225 130.483 27.225L129.55 26.7129Z" fill="#FFB882"/>
<path d="M127.329 47.6104C128.383 43.1145 129.663 31.8859 129.986 26.9607L129.55 26.7197C127.524 41.4803 121.96 50.811 121.96 50.811C121.96 50.811 121.463 54.2828 122.864 56.2484C125.062 54.6141 126.734 50.1333 127.329 47.6104Z" fill="#FF9566"/>
<path opacity="0.6" d="M104.439 42.6558C103.686 42.0081 102.436 41.3454 101.021 40.7957L99.4771 29.8081C96.8946 28.3094 94.1539 27.5488 91.6391 27.6994C91.8273 35.2529 91.7069 39.3798 91.6843 40.0275C91.4961 40.0878 91.3078 40.148 91.1196 40.2082C91.1045 40.2158 91.097 40.2158 91.0895 40.2233C90.7281 40.3513 90.3817 40.4944 90.0504 40.645C89.1394 41.0668 88.394 41.5563 87.9271 42.0533C87.0312 42.7687 86.1276 43.5971 85.2241 44.5084C85.5629 45.2012 85.9394 45.8941 86.3836 46.5794C90.9841 53.7337 99.2136 57.2883 104.763 54.5245C107.925 52.943 109.529 49.6445 109.476 45.7811C107.368 44.6289 105.726 43.6122 105.064 43.0022C104.906 42.8441 104.687 42.7386 104.439 42.6558Z" fill="#C94343"/>
<path opacity="0.6" d="M108.046 33.52C107.85 32.541 107.737 31.4641 107.737 30.3194C107.737 28.3689 108.054 26.5916 108.573 25.2361L105.192 21.6513L104.447 21.6137L104.432 21.5986L104.424 21.6137H104.409L104.417 21.6363L102.128 27.164L108.046 33.52Z" fill="#C94343"/>
<path d="M101.322 39.026C94.1316 35.5919 91.3382 33.0164 90.3444 25.493C89.3505 17.9696 91.8502 10.1375 99.2591 10.8078C106.676 11.4705 106.623 18.5194 106.713 23.1735C106.939 34.1234 101.322 39.026 101.322 39.026Z" fill="#FFB882"/>
<path d="M104.464 23.7859C104.434 22.5848 103.847 21.6061 103.14 21.5987C102.441 21.5913 101.899 22.5625 101.921 23.771C101.951 24.9721 102.538 25.9508 103.237 25.9582C103.951 25.9582 104.493 24.9869 104.464 23.7859Z" fill="#66423B"/>
<path d="M97.5943 23.7116C97.6017 22.3251 96.9996 21.1611 96.2413 21.1092C95.483 21.0573 94.8659 22.1324 94.8585 23.5188C94.851 24.8979 95.4532 26.0693 96.2115 26.1212C96.9698 26.1731 97.5869 25.0906 97.5943 23.7116Z" fill="#66423B"/>
<path d="M93.6392 23.081C93.6392 23.081 95.9735 21.2867 98.0775 21.7316C98.0775 21.7316 97.5496 20.612 95.9958 20.8641C94.4495 21.1162 93.6392 23.081 93.6392 23.081Z" fill="#66423B"/>
<path d="M105.349 22.7702C105.349 22.7702 103.185 21.3096 101.334 21.8211C101.334 21.8211 101.758 20.7906 103.148 20.924C104.538 21.0575 105.349 22.7702 105.349 22.7702Z" fill="#66423B"/>
<path d="M93.0818 20.5236L93 20.227C93.7509 18.4328 95.6764 17.291 96.8212 17.0908L96.9476 18.1362C96.0035 18.0769 93.9442 19.0185 93.0818 20.5236Z" fill="#C14D33"/>
<path d="M105.571 20.1452C104.315 18.3732 102.003 17.9728 101.445 18.0322L101.49 17.0016C102.122 16.9645 104.285 17.5651 105.727 19.7893L105.571 20.1452Z" fill="#C14D33"/>
<path d="M97 31L102 31.2065C102 31.2065 101.421 34.149 99.3843 33.9941C97.4244 33.8564 97 31 97 31Z" fill="#491D2E"/>
<path d="M97.031 31L101.987 31.2483C101.987 31.2483 102.329 33.0689 99.509 32.998C96.5354 32.9152 97.031 31 97.031 31Z" fill="#FFEBEB"/>
<path d="M100.449 7.52367C100.426 7.50108 95.5094 2.5081 87.6864 10.4005C80.4056 17.7506 91.9631 30.4778 91.9631 30.4778C90.4949 13.217 102.218 9.21812 100.449 7.52367Z" fill="#BA5438"/>
<path d="M92.3547 31.1028C87.2574 30.056 84.5393 25.3869 86.9185 23.1653C89.2978 20.9512 91.2178 25.3793 91.9029 27.134C92.5806 28.8887 92.3547 31.1028 92.3547 31.1028Z" fill="#FFB882"/>
<path d="M90.9694 29.2206C88.1234 28.6332 86.6024 26.0275 87.9351 24.7849C89.2603 23.5423 90.337 26.0275 90.721 26.999C91.0974 27.978 90.9694 29.2206 90.9694 29.2206Z" fill="#DB5B3E"/>
<path d="M91.4284 29.8154C89.4708 29.4088 88.4242 27.6164 89.3428 26.7654C90.2538 25.9144 90.9992 27.6164 91.2552 28.2867C91.5188 28.9645 91.4284 29.8154 91.4284 29.8154Z" fill="#FFB882"/>
<path d="M58.2469 43.1604C56.8013 41.5639 53.8799 40.6978 53.3378 39.5079C52.9161 38.5816 54.5726 36.0136 55.2653 36.0814C55.958 36.1567 58.9396 42.2417 58.9396 42.2417L58.2469 43.1604Z" fill="#FFB882"/>
<path d="M57.8704 40.4038C57.5768 38.5436 57.9758 35.4786 57.9382 34.9288C57.9081 34.3866 57.2831 34.5447 56.9142 36.0132C56.5377 37.5194 56.8239 38.0466 56.1312 38.2574C55.3857 38.4758 58.021 41.3451 57.8704 40.4038Z" fill="#FFB882"/>
<path d="M55.2953 38.0093C54.7532 36.8044 53.4356 33.9577 53.8196 33.7092C54.2036 33.4606 56.3344 37.5349 56.3344 37.5349L55.2953 38.0093Z" fill="#FFB882"/>
<path d="M54.2937 38.6269C53.5107 37.693 51.6283 35.494 51.9671 35.2003C52.306 34.9066 55.2499 38.0018 55.2499 38.0018L54.2937 38.6269Z" fill="#FFB882"/>
<path d="M53.6388 39.9369C52.3588 39.0031 50.5818 37.3011 50.9282 36.9999C51.2745 36.6987 54.6853 39.2968 54.6853 39.2968L53.6388 39.9369Z" fill="#FFB882"/>
<path d="M130.581 32.173C131.266 29.9137 133.841 27.3834 133.788 26.0203C133.751 24.9659 130.731 23.7685 130.054 24.2505C129.376 24.7325 129.79 31.1865 129.79 31.1865L130.581 32.173Z" fill="#FFB882"/>
<path d="M129.557 29.5669C128.909 27.7896 126.944 25.3947 126.696 24.8977C126.455 24.4082 127.178 24.1672 128.307 25.2065C129.467 26.2683 129.444 26.9009 130.265 26.6524C131.146 26.3888 129.888 30.4706 129.557 29.5669Z" fill="#FFB882"/>
<path d="M131.003 25.9296C130.95 24.559 130.86 21.3056 130.34 21.3282C129.821 21.3508 129.685 26.1631 129.685 26.1631L131.003 25.9296Z" fill="#FFB882"/>
<path d="M132.35 25.8468C132.681 24.559 133.51 21.524 133.005 21.4789C132.508 21.4337 131.04 25.8995 131.04 25.8995L132.35 25.8468Z" fill="#FFB882"/>
<path d="M133.698 26.5772C134.549 24.9806 135.513 22.4352 135.001 22.39C134.489 22.3448 132.29 26.6675 132.29 26.6675L133.698 26.5772Z" fill="#FFB882"/>
<path d="M101.899 28.0078C101.891 28.0455 101.899 28.0756 101.891 28.1132C101.681 28.8061 100.883 29.1751 100.115 28.9492C99.6628 28.8136 99.339 28.4898 99.1734 28.1057C99.0303 28.776 99.4595 29.4613 100.19 29.6797C100.965 29.9131 101.756 29.5366 101.974 28.8437C102.057 28.5576 102.004 28.2714 101.899 28.0078Z" fill="#EA7B59"/>
<path d="M100.913 35.3957C100.928 35.1096 100.484 35.3957 99.9566 35.3957C99.4296 35.3957 99.0155 35.1096 99.0004 35.3957C98.9853 35.6819 99.3994 35.9154 99.9265 35.9154C100.454 35.9078 100.89 35.6744 100.913 35.3957Z" fill="#EF8F6F"/>
<path d="M158.793 106.419C154.404 104.228 153.116 103.776 153.44 101.577C153.764 99.3853 155.443 91.7038 157.054 91.38C158.665 91.0562 161.895 92.1557 161.895 92.1557L158.793 106.419Z" fill="#FFA33E"/>
<path d="M245.677 182.735H274.868V174.188H245.677V182.735Z" fill="#7A545B"/>
<path d="M245.674 174.19H259.159L267.675 182.738H245.674V174.19Z" fill="#634047"/>
<path d="M245.677 182.734H274.868V179.451H245.677V182.734Z" fill="#634047"/>
<path d="M174.989 85.0918C172.52 94.9874 171.225 97.6759 171.225 97.6759L173.16 111.977C173.16 111.977 185.847 108.859 185.741 98.6399C185.628 88.428 174.989 85.0918 174.989 85.0918Z" fill="#FF9566"/>
<path opacity="0.6" d="M176.646 100.869C176.608 96.9906 175.049 94.1063 173.13 92.0202C173.649 90.2429 174.266 87.9837 174.989 85.0918C174.989 85.0918 185.636 88.428 185.741 98.6399C185.847 108.859 173.16 111.977 173.16 111.977L172.821 109.469C174.982 107.436 176.683 104.634 176.646 100.869Z" fill="#C94343"/>
<path d="M179.514 68.1778C173.709 77.4258 172.406 90.9061 172.406 90.9061L186.494 105.749C186.494 105.749 192.946 81.1234 188.752 73.7055C184.551 66.2725 179.514 68.1778 179.514 68.1778Z" fill="#F7DEB0"/>
<path d="M186.486 105.742L175.539 94.2046C175.772 91.7721 177.195 79.0449 182.323 70.0304C182.323 70.0304 183.979 69.3526 186.208 70.3015C187.058 71.1299 187.917 72.2219 188.753 73.6904C192.939 81.1159 186.486 105.742 186.486 105.742Z" fill="#E8C792"/>
<path d="M219.548 61.046C233.763 75.43 218.095 153.699 218.095 153.699L224.382 191.609H223.41L204.06 154.188L198.089 133.056L194.377 133.215L178.091 150.31L172.286 191.602H171.639L165.028 146.273C165.028 146.273 183.896 114.493 183.896 112.557C183.896 110.622 176.48 76.4241 178.249 69.33C180.026 62.2359 198.571 55.6162 204.052 55.4581C209.549 55.3074 216.596 58.0562 219.548 61.046Z" fill="#5C95B7"/>
<path d="M218.102 153.699L224.389 191.609H224.073C221.362 182.256 212.455 151.711 212.455 151.711C212.455 151.711 208.999 107.738 207.523 96.2608C203.947 68.4869 217.311 58.7795 219.547 61.0463C233.763 75.4379 218.102 153.699 218.102 153.699Z" fill="#417EA3"/>
<path d="M173.566 147.456L189.626 131.972L185.176 128.485L195.815 131.196L207.817 128.681L198.526 134.57L197.366 133.998L193.978 134.096L178.106 150.317L172.301 191.609H171.653L171.488 190.465L173.566 147.456Z" fill="#417EA3"/>
<path d="M208.299 75.8438C206.454 80.9798 208.419 101.23 211.326 103.701C214.232 106.171 220.896 108.543 221.972 104.235C223.049 99.9351 224.66 89.0755 223.689 82.8324C222.725 76.5968 208.299 75.8438 208.299 75.8438Z" fill="#E8C792"/>
<path d="M223.101 97.8123C223.101 97.8123 206.943 90.0705 207.817 80.0996L224.555 87.4573L223.101 97.8123Z" fill="#D8B37C"/>
<path d="M163.522 192.935H173.656C173.656 192.935 174.342 189.199 172.572 188.507C170.803 187.821 163.522 192.935 163.522 192.935Z" fill="#F7DEB0"/>
<path d="M221.648 64.9843C231.752 68.3205 240.999 78.3215 246.269 87.1402L231.429 97.1412C227.769 89.5049 211.965 82.087 211.965 82.087C211.965 82.087 211.544 61.6481 221.648 64.9843Z" fill="#FF9566"/>
<path d="M246.646 82.0801C246.646 82.0801 253.362 99.3936 252.775 116.112L236.165 113.047C235.359 110.306 226.324 94.4985 226.324 94.4985L246.646 82.0801Z" fill="#FFBF4D"/>
<path d="M247.933 106.163C247.285 97.9018 244.966 90.5516 241.804 85.039L246.638 82.0869C246.638 82.0869 253.354 99.4004 252.767 116.119L236.157 113.054C235.863 112.045 234.455 109.273 232.792 106.163H247.933Z" fill="#FFA33E"/>
<path d="M193.255 120.954C194.648 119.102 199.745 122.604 200.822 123.417L228.779 144.436C229.855 145.249 230.036 146.823 229.178 147.968C228.319 149.105 226.753 149.376 225.676 148.563L197.72 127.544C196.643 126.731 191.862 122.807 193.255 120.954Z" fill="#8E3F4C"/>
<path d="M193.285 120.932C194.43 122.626 196.591 124.381 197.268 124.893L225.225 145.912C226.301 146.725 227.867 146.454 228.726 145.317C228.869 145.121 228.974 144.91 229.065 144.699C229.878 145.558 229.953 146.936 229.178 147.96C228.319 149.097 226.753 149.368 225.676 148.555L197.72 127.536C196.643 126.723 191.862 122.799 193.255 120.954C193.263 120.947 193.278 120.939 193.285 120.932Z" fill="#6B2A37"/>
<path d="M228.259 146.356C228.259 147.177 227.596 147.839 226.776 147.839C225.955 147.839 225.292 147.177 225.292 146.356C225.292 145.535 225.955 144.872 226.776 144.872C227.596 144.872 228.259 145.535 228.259 146.356Z" fill="#FFEED2"/>
<path d="M228.455 150.807H225.36L226.332 145.972H227.363L228.455 150.807Z" fill="#EDD3AE"/>
<path d="M201.101 192.738H262.277C262.277 192.738 266.388 171.644 240.931 171.644C235.209 171.644 239.388 163.39 256.773 163.39C274.158 163.39 271.734 109.507 271.734 109.507H231.022V146.649H233.665V149.857H186.163C184.198 149.857 182.609 151.446 182.609 153.412C182.609 155.378 184.198 156.967 186.163 156.967H186.569C186.569 156.967 189.212 186.548 213.419 186.548C213.426 186.548 201.101 188.837 201.101 192.738Z" fill="#FFEED2"/>
<path d="M231.813 149.857H233.672V146.649H231.813V145.648H231.03V141.024C233.748 145.324 249.13 149.39 256.193 140.677C260.033 135.948 262.578 118.032 261.832 109.507H271.741C271.741 109.507 274.158 163.39 256.78 163.39C239.402 163.39 235.216 171.644 240.938 171.644C266.395 171.644 262.284 192.738 262.284 192.738H201.108C201.108 188.837 213.434 186.548 213.434 186.548C189.227 186.548 186.584 156.967 186.584 156.967H186.177C184.385 156.967 182.917 155.634 182.676 153.901H227.777C229.998 153.901 231.813 152.094 231.813 149.857Z" fill="#EDD3AE"/>
<path d="M200.243 159.249C221.114 163.647 234.087 172.646 231.181 179.447C229.381 183.664 221.701 186.398 211.19 187.046C212.515 186.722 213.426 186.549 213.426 186.549C190.56 186.549 186.938 160.16 186.607 157.238C191.004 157.607 195.597 158.27 200.243 159.249Z" fill="#F4DBBD"/>
<path d="M264.784 158.134C262.743 161.372 260.131 163.383 256.772 163.383C250.139 163.383 245.433 164.588 242.459 166.072C243.837 155.867 231.805 149.858 231.805 149.858H233.665V146.649C233.672 146.649 243.28 160.559 264.784 158.134Z" fill="#DDBC94"/>
<path d="M239.169 74.3374C238.951 74.8721 225.293 93.4508 225.293 93.4508C225.293 93.4508 210.031 85.5208 208.314 82.403C206.597 79.2852 210.784 61.8286 215.407 61.0002C222.612 59.7125 239.169 74.3374 239.169 74.3374Z" fill="#F7DEB0"/>
<path d="M216.25 60.9329C223.817 60.7823 239.455 74.2701 239.455 74.2701C239.41 74.3906 238.627 75.2642 237.498 76.6875C233.605 72.9673 224.525 62.8759 216.25 60.9329Z" fill="#E8C792"/>
<path d="M226.972 91.0034C225.85 92.3815 225.293 93.4584 225.293 93.4584C225.293 93.4584 210.008 86.3643 208.314 82.4106C208.231 82.2223 208.133 81.9889 208.073 81.7178C210.227 84.0147 224.675 90.0394 226.972 91.0034Z" fill="#E8C792"/>
<path d="M175.2 114.237C181.976 110.901 176.404 96.3887 172.519 94.024C168.642 91.6518 163.477 89.8293 159.93 94.8826C156.384 99.9358 158.304 122.551 175.2 114.237Z" fill="#FFBF4D"/>
<path d="M158.342 94.4835C166.752 86.5158 165.442 108.973 175.456 104.04C176.307 103.618 176.962 103.023 177.451 102.301C178.912 107.06 178.965 112.377 175.2 114.237C159.592 121.918 155.895 101.374 158.342 94.4835Z" fill="#FFA33E"/>
<path d="M182.323 89.9042C182.323 89.9042 178.581 77.7117 178.822 67.9517C182.413 61.3998 198.94 55.6161 204.068 55.4655C206.673 55.3902 209.624 55.9776 212.327 56.9264C203.179 66.1593 203.902 87.5696 203.902 87.5696L182.323 89.9042Z" fill="#F7DEB0"/>
<path d="M178.822 67.9521C179.484 66.7471 180.576 65.5723 181.961 64.4502C181.065 65.2937 180.335 66.1672 179.853 67.0483C179.612 76.8084 182.978 89.2569 182.978 89.2569L203.887 86.7717C203.887 87.2763 203.902 87.5625 203.902 87.5625L181.946 90.3489C181.954 90.3565 178.588 77.7121 178.822 67.9521Z" fill="#E8C792"/>
<path d="M153.971 111.196L157.519 112.263L165.622 85.313L162.075 84.2459L153.971 111.196Z" fill="#847477"/>
<path d="M163.085 77.252L161.361 82.983L166.835 84.6322L168.559 78.9012C169.688 80.3396 170.11 82.388 169.508 84.3988C168.566 87.5241 165.509 89.3767 162.678 88.5257C159.847 87.6747 158.319 84.4515 159.26 81.3186C159.87 79.3079 161.353 77.8318 163.085 77.252Z" fill="#847477"/>
<path d="M156.392 117.708L157.513 113.973L153.094 112.647L151.972 116.383C151.061 115.215 150.729 113.551 151.219 111.909C151.987 109.364 154.457 107.85 156.738 108.543C159.019 109.228 160.247 111.849 159.486 114.402C158.997 116.036 157.792 117.241 156.392 117.708Z" fill="#847477"/>
<path d="M204.662 58.2073L191.975 41.8652L175.734 54.984L183.264 69.3906C183.264 69.3906 197.351 76.4923 204.662 58.2073Z" fill="#FFB882"/>
<path d="M230.847 113.472H271.189V109.759H230.847V113.472Z" fill="#EDD3AE"/>
<path d="M186.577 156.967H230.164L186.818 158.578L186.577 156.967Z" fill="#DDBC94"/>
<path d="M230.683 107.73H272.087C272.908 107.73 273.571 108.393 273.571 109.214V109.952C273.571 110.773 272.908 111.436 272.087 111.436H230.683C229.863 111.436 229.2 110.773 229.2 109.952V109.214C229.2 108.393 229.863 107.73 230.683 107.73Z" fill="#FFE3BB"/>
<path d="M229.215 109.38C229.321 108.453 230.096 107.73 231.052 107.73H271.718C271.816 107.73 271.914 107.746 272.005 107.761C271.899 108.687 271.124 109.41 270.167 109.41H229.501C229.404 109.41 229.313 109.395 229.215 109.38Z" fill="#FFEED2"/>
<path d="M238.875 77.2227C240.231 78.5255 241.601 80.2425 242.986 82.2307L233.552 87.9692L232.265 86.6814L238.875 77.2227Z" fill="#FFB882"/>
<path opacity="0.6" d="M186.531 82.328C180.244 80.5884 178.821 67.9591 178.821 67.9591C179.153 67.3491 179.604 66.7466 180.139 66.1592C180.146 66.1517 180.146 66.1517 180.154 66.1441C180.305 65.9785 180.463 65.8203 180.621 65.6622C180.666 65.617 180.704 65.5793 180.741 65.5341C180.847 65.4287 180.96 65.3233 181.073 65.2254L179.604 62.4163C180.342 59.2157 181.479 55.8871 183.038 52.5735C184.099 50.2991 185.297 48.1754 186.577 46.2249L191.96 41.8721L202.629 55.6159C202.637 55.6159 202.652 55.6159 202.659 55.6084C202.75 55.5934 202.84 55.5783 202.923 55.5708C203.066 55.5482 203.201 55.5406 203.329 55.5256C203.39 55.5181 203.457 55.5105 203.525 55.503C203.713 55.4879 203.894 55.4729 204.06 55.4729C204.391 55.4653 204.73 55.4653 205.076 55.4729C205.234 55.4804 205.385 55.4879 205.543 55.503C205.731 55.5105 205.919 55.5256 206.108 55.5406C206.318 55.5557 206.537 55.5858 206.748 55.6159C206.883 55.631 207.011 55.6461 207.147 55.6611C207.403 55.6988 207.666 55.744 207.922 55.7816C208.013 55.7967 208.103 55.8118 208.186 55.8268C208.479 55.8795 208.773 55.9398 209.074 56.0076C209.127 56.0226 209.18 56.0302 209.232 56.0377C209.556 56.113 209.88 56.1883 210.204 56.2787C210.226 56.2862 210.249 56.2862 210.271 56.2937C210.61 56.3841 210.949 56.482 211.288 56.5874C211.295 56.5874 211.295 56.5874 211.303 56.595C211.649 56.7004 211.988 56.8134 212.319 56.9339C212.809 57.1071 213.291 57.2953 213.765 57.4911C213.042 60.142 212.048 62.8607 210.776 65.5718C204.158 79.6997 194.686 84.5798 186.531 82.328Z" fill="#C94343"/>
<path d="M191.975 37.8057C203.375 52.3252 199.158 61.5129 196.787 71.0018C196.357 72.7189 182.729 77.7796 180.576 77.132C178.423 76.4843 175.524 62.0777 173.589 59.3892C171.654 56.7007 167.249 46.5942 167.249 46.5942L191.975 37.8057Z" fill="#5E343D"/>
<path d="M191.757 57.4086C191.757 50.2015 189.558 43.8153 186.177 39.8691L191.975 37.8057C203.374 52.3252 199.941 61.302 197.569 70.791C197.261 72.0336 189.656 75.1288 184.649 76.5069C188.88 72.8243 191.757 65.6549 191.757 57.4086Z" fill="#4C2831"/>
<path d="M162.083 39.9294C163.16 38.4232 165.63 37.0225 165.63 37.0225L163.913 36.3748C165.314 34.7632 168.86 33.5808 168.86 33.5808L167.572 32.3985C169.289 31.3216 173.807 31.3216 173.807 31.3216L173.378 29.9208C176.171 28.9493 179.506 30.0263 179.506 30.0263L178.535 28.0908C178.535 28.0908 183.158 28.1963 187.781 30.561C192.404 32.9257 192.08 37.1204 192.08 37.1204C192.08 37.1204 197.456 42.279 194.445 49.1622L174.981 60.3456C174.981 60.3456 169.824 47.1214 168.099 47.1214C166.383 47.1214 166.488 50.1337 166.488 50.1337C164.124 48.846 163.476 43.8982 163.476 43.8982L162.505 45.2989C161.428 42.392 164.011 39.8164 164.011 39.8164L162.083 39.9294Z" fill="#5E343D"/>
<path d="M186.787 47.3928C186.787 38.9506 179.77 32.1051 171.111 32.1051C169.922 32.1051 168.77 32.2482 167.655 32.4891L167.565 32.4063C169.282 31.3294 173.799 31.3294 173.799 31.3294L173.37 29.9286C176.163 28.9572 179.499 30.0341 179.499 30.0341L178.528 28.0986C178.528 28.0986 183.151 28.2041 187.774 30.5688C192.397 32.9335 192.073 37.1282 192.073 37.1282C192.073 37.1282 197.449 42.2868 194.437 49.1701L184.897 54.6526C186.11 52.4987 186.787 50.0211 186.787 47.3928Z" fill="#4C2831"/>
<path d="M195.228 50.7064C198.142 48.2514 198.481 43.4617 197.035 42.2342C195.589 41.0066 192.826 40.3966 193.368 44.6892C193.91 48.9894 195.228 50.7064 195.228 50.7064Z" fill="#FFB882"/>
<path d="M184.536 40.2603C185.658 40.2076 186.72 40.7574 187.352 41.6761C190.357 46.0365 193.293 51.1726 192.133 53.1231C190.846 55.2995 177.052 61.3468 175.524 60.4657C174.575 59.9159 171.872 54.5991 169.952 50.6078C168.634 47.8891 169.771 44.6358 172.467 43.2802C175.945 41.533 179.928 40.4636 184.536 40.2603Z" fill="#FFB882"/>
<path d="M195.349 48.7402C197.246 47.1361 197.472 44.0183 196.523 43.2125C195.582 42.4142 193.775 42.0151 194.129 44.8166C194.49 47.6181 195.349 48.7402 195.349 48.7402Z" fill="#DB5B3E"/>
<path d="M195.318 49.2526C196.666 48.1155 196.824 45.9014 196.154 45.3366C195.484 44.7718 194.204 44.4856 194.46 46.4737C194.708 48.4619 195.318 49.2526 195.318 49.2526Z" fill="#FFB882"/>
<path d="M211.973 113.385L183.821 112.226L183.625 113.295L182.759 115.23L213.426 118.905L211.973 113.385Z" fill="#417EA3"/>
<path d="M192.54 113.476L196.335 113.197L196.614 115.946L192.465 114.937L192.54 113.476Z" fill="#E8C792"/>
<path d="M202.019 92.9094C201.756 91.2074 202.298 89.754 203.239 89.6636C204.18 89.5732 205.159 90.8761 205.422 92.5856C205.686 94.2876 205.144 95.741 204.203 95.8314C203.262 95.9143 202.283 94.6114 202.019 92.9094Z" fill="#417EA3"/>
<path d="M202.546 92.3367C202.441 91.2824 202.825 90.4088 203.405 90.3862C203.984 90.3636 204.541 91.1995 204.647 92.2463C204.752 93.3006 204.368 94.1742 203.789 94.1968C203.209 94.2194 202.652 93.391 202.546 92.3367Z" fill="#E8C792"/>
<path d="M181.961 94.6487C181.698 92.9467 182.24 91.4932 183.181 91.4029C184.122 91.3125 185.101 92.6153 185.364 94.3249C185.628 96.0268 185.086 97.4803 184.145 97.5707C183.203 97.661 182.225 96.3507 181.961 94.6487Z" fill="#417EA3"/>
<path d="M182.481 94.0769C182.375 93.0226 182.759 92.149 183.339 92.1264C183.919 92.1038 184.476 92.9398 184.581 93.9866C184.687 95.0409 184.303 95.9145 183.723 95.9371C183.143 95.9672 182.586 95.1313 182.481 94.0769Z" fill="#E8C792"/>
<path d="M248.415 192.738H201.101C201.101 188.995 212.47 186.729 213.358 186.555C216.212 186.217 219.299 186.028 222.514 186.028C235.148 186.028 245.712 188.898 248.415 192.738Z" fill="#F4DBBD"/>
<path d="M271.673 173.196L274.866 171.841V185.088L271.673 183.732V173.196Z" fill="#FF9739"/>
<path d="M258.03 104.002C262.578 98.0002 264.995 96.5542 262.382 95.1008C259.77 93.6473 258.03 104.002 258.03 104.002Z" fill="#7FB8DB"/>
<path d="M261.78 90.1679C265.063 85.8301 266.809 84.7833 264.927 83.7365C263.045 82.6822 261.78 90.1679 261.78 90.1679Z" fill="#7FB8DB"/>
<path d="M254.137 95.6204C254.476 90.2282 255.35 88.3982 253.211 88.5639C251.073 88.7296 254.137 95.6204 254.137 95.6204Z" fill="#7FB8DB"/>
<path d="M264.829 104.469C269.392 101.833 271.35 101.547 270.054 99.9055C268.759 98.2562 264.829 104.469 264.829 104.469Z" fill="#7FB8DB"/>
<path d="M174.951 53.4316L177.172 52.4375C177.677 53.5069 178.129 54.9528 177.067 55.4574C175.998 55.962 175.245 54.2524 174.951 53.4316Z" fill="#5B302C"/>
<path d="M176.716 47.8746C177.117 48.0532 178.645 50.8709 178.613 51.2314C178.589 51.591 173.926 54.5278 173.54 54.4688C173.154 54.4172 171.554 51.5628 171.491 51.1078C171.429 50.6676 176.292 47.6912 176.716 47.8746Z" fill="#5E343D"/>
<path d="M178.256 50.0059C179.039 54.1705 180.267 61.1065 180.673 61.9198C181.08 62.7331 183.542 59.171 183.7 58.3727C183.851 57.6347 178.753 49.7725 178.753 49.7725L178.256 50.0059Z" fill="#EA7B59"/>
<path d="M178.595 49.4706C179.371 53.3942 180.583 59.8633 180.967 60.6314C181.351 61.3996 183.655 58.2893 183.806 57.5513C183.949 56.8735 179.062 49.2598 179.062 49.2598L178.595 49.4706Z" fill="#FFB882"/>
<path d="M181.946 50.6152L184.167 49.6211C184.687 50.683 185.153 52.1214 184.092 52.6259C183.03 53.1305 182.255 51.436 181.946 50.6152Z" fill="#5B302C"/>
<path d="M185.866 45.3086C186.278 45.5892 186.968 48.715 186.791 49.0525C186.614 49.3899 179.825 50.9418 179.385 50.7863C178.937 50.6297 178.171 47.4609 178.275 47.0048C178.38 46.5488 185.426 45.0157 185.866 45.3086Z" fill="#5E343D"/>
<g opacity="0.9">
<path opacity="0.9" d="M187.857 58.2744L188.399 58.6359C188.369 60.7596 186.253 62.567 181.765 64.2916L181.652 64.0506C185.967 62.3938 187.826 60.1873 187.857 58.2744Z" fill="#DF725C"/>
</g>
<path opacity="0.9" d="M184.558 64.1784C184.649 64.329 185.206 64.3742 185.733 64.0428C186.26 63.7114 186.546 63.1165 186.456 62.9659C186.365 62.8153 185.974 63.2972 185.447 63.6286C184.92 63.9675 184.468 64.0277 184.558 64.1784Z" fill="#DF725C"/>
<path d="M161.037 99.4614C161.15 93.6776 162.001 93.2032 163.078 92.9773C164.147 92.7438 165.344 92.4878 165.57 94.1446C165.788 95.8013 165.126 101.329 164.184 101.909C163.243 102.489 160.999 101.171 161.037 99.4614Z" fill="#FFBF4D"/>
<path d="M158.281 90.8755C162.212 91.0939 162.407 91.975 162.407 93.067C162.407 94.159 162.407 95.3865 161.248 95.5823C160.088 95.7781 156.407 95.0024 156.151 94.031C155.895 93.067 157.114 90.8077 158.281 90.8755Z" fill="#FFBF4D"/>
<path d="M156.926 95.259C160.857 95.4774 161.052 96.3585 161.052 97.4505C161.052 98.55 161.052 99.77 159.893 99.9658C158.733 100.162 155.051 99.3859 154.795 98.4144C154.539 97.4505 155.767 95.1988 156.926 95.259Z" fill="#FFBF4D"/>
<path d="M155.443 99.6499C159.373 99.8683 159.569 100.749 159.569 101.841C159.569 102.941 159.569 104.161 158.409 104.357C157.25 104.553 153.568 103.777 153.312 102.805C153.056 101.841 154.283 99.5822 155.443 99.6499Z" fill="#FFBF4D"/>
<path d="M0 192.896L152.605 206L317 192.896H0Z" fill="#FFBF4D"/>
</g>
<defs>
<clipPath id="clip0">
<rect width="317" height="206" fill="white"/>
</clipPath>
</defs>
</svg>
