<svg width="30" height="30" viewBox="0 0 30 30" fill="none" xmlns="http://www.w3.org/2000/svg">
<path d="M14.9449 12.9454V17.2591H20.9349C20.3774 20.0004 18.0436 21.5754 14.9449 21.5754C11.3356 21.5257 8.43572 18.5857 8.43572 14.976C8.43572 11.3664 11.3356 8.42632 14.9449 8.37665C16.4452 8.37485 17.8992 8.89549 19.0574 9.84915L22.3074 6.59915C18.5794 3.32174 13.1349 2.9002 8.94684 5.56471C4.75878 8.22922 2.83367 13.3394 4.2227 18.1049C5.61173 22.8704 9.98108 26.1459 14.9449 26.1429C20.5286 26.1429 25.6061 22.0816 25.6061 14.9754C25.5975 14.2912 25.5137 13.61 25.3561 12.9441L14.9449 12.9454Z" fill="#E04B42"/>
</svg>
