<svg width="80" height="78" viewBox="0 0 80 78" fill="none" xmlns="http://www.w3.org/2000/svg">
<path d="M57.7824 35.751C60.3973 34.2795 61.7047 33.5437 61.7319 32.4065C61.7591 31.2693 60.4884 30.4718 57.9469 28.8769L16.9729 3.16388C14.6906 1.73164 13.5495 1.01552 12.5759 1.44874C11.6023 1.88196 11.3703 3.20908 10.9064 5.86333L1.45262 59.9542C0.823046 63.5563 0.50826 65.3574 1.54131 66.0881C2.57436 66.8188 4.16776 65.9221 7.35458 64.1288L57.7824 35.751Z" fill="url(#paint0_linear)"/>
<path d="M21.8592 35.751C19.2443 34.2795 17.9369 33.5437 17.9097 32.4065C17.8825 31.2693 19.1532 30.4718 21.6947 28.8769L62.6687 3.16388C64.951 1.73164 66.0921 1.01552 67.0657 1.44874C68.0393 1.88196 68.2713 3.20908 68.7352 5.86333L78.189 59.9542C78.8186 63.5563 79.1333 65.3574 78.1003 66.0881C77.0672 66.8188 75.4738 65.9221 72.287 64.1288L21.8592 35.751Z" fill="url(#paint1_linear)"/>
<path d="M63.6211 32.4502L42.6221 47.4228L39.7737 45.8923L63.6211 32.4502Z" fill="#98340F"/>
<defs>
<linearGradient id="paint0_linear" x1="59.5741" y1="34.4563" x2="-4.03757" y2="58.6893" gradientUnits="userSpaceOnUse">
<stop stop-color="#FD8F04"/>
<stop offset="1" stop-color="#F05223"/>
</linearGradient>
<linearGradient id="paint1_linear" x1="20.0675" y1="34.4563" x2="83.6792" y2="58.6893" gradientUnits="userSpaceOnUse">
<stop stop-color="#FD8F04"/>
<stop offset="1" stop-color="#F05223"/>
</linearGradient>
</defs>
</svg>
