<svg width="30" height="30" viewBox="0 0 30 30" fill="none" xmlns="http://www.w3.org/2000/svg">
<path d="M24.9938 8.35974C26.1143 7.68985 26.9527 6.63504 27.3525 5.39224C26.2996 6.01699 25.1476 6.45709 23.9463 6.69349C22.2807 4.93165 19.6419 4.5029 17.5043 5.64681C15.3666 6.79072 14.2594 9.2241 14.8013 11.5872C10.4883 11.3707 6.46998 9.33339 3.74627 5.98224C2.32482 8.43402 3.05121 11.5682 5.40627 13.1447C4.55466 13.1174 3.72193 12.8868 2.97752 12.4722C2.97752 12.4947 2.97752 12.5172 2.97752 12.5397C2.97801 15.0937 4.77798 17.2936 7.28127 17.7997C6.49135 18.0147 5.66278 18.0463 4.85877 17.8922C5.56277 20.0763 7.57571 21.5726 9.87002 21.6172C7.96981 23.1087 5.62311 23.9174 3.20752 23.9135C2.77936 23.9141 2.35153 23.8895 1.92627 23.8397C4.37926 25.416 7.23423 26.2527 10.15 26.2497C14.2066 26.2776 18.1051 24.6784 20.9734 21.8098C23.8418 18.9412 25.4407 15.0426 25.4125 10.986C25.4125 10.7535 25.4071 10.5222 25.3963 10.2922C26.4468 9.53299 27.3535 8.59243 28.0738 7.51474C27.095 7.94857 26.0569 8.2334 24.9938 8.35974Z" fill="#08A0E9"/>
</svg>
